SplineFontDB: 3.0
FontName: CSPraJad-bold
FullName: CS PraJad Bold
FamilyName: CS PraJad
Weight: Bold
Copyright: (c) 2014, Chanok Samiti.\n\nCreated by Chanok Samiti with the help from F0nt.com community.\n\nThis work is licensed under the Creative Commons Attribution 4.0 International License. To view a copy of this license, visit http://creativecommons.org/licenses/by/4.0/.
Version: 0.1.1
ItalicAngle: 0
UnderlinePosition: -120
UnderlineWidth: 60
Ascent: 960
Descent: 240
InvalidEm: 0
sfntRevision: 0x00001999
LayerCount: 2
Layer: 0 0 "Back" 1
Layer: 1 0 "Fore" 0
XUID: [1021 318 -2145553614 19834]
StyleMap: 0x0020
FSType: 8
OS2Version: 3
OS2_WeightWidthSlopeOnly: 0
OS2_UseTypoMetrics: 0
CreationTime: 1398965089
ModificationTime: 1564189793
PfmFamily: 17
TTFWeight: 700
TTFWidth: 5
LineGap: 0
VLineGap: 0
Panose: 2 0 8 3 0 0 0 0 0 0
OS2TypoAscent: 1240
OS2TypoAOffset: 0
OS2TypoDescent: -480
OS2TypoDOffset: 0
OS2TypoLinegap: 0
OS2WinAscent: 1240
OS2WinAOffset: 0
OS2WinDescent: 480
OS2WinDOffset: 0
HheadAscent: 1240
HheadAOffset: 0
HheadDescent: -480
HheadDOffset: 0
OS2SubXSize: 780
OS2SubYSize: 840
OS2SubXOff: 0
OS2SubYOff: 168
OS2SupXSize: 780
OS2SupYSize: 840
OS2SupXOff: 0
OS2SupYOff: 576
OS2StrikeYSize: 59
OS2StrikeYPos: 310
OS2CapHeight: 800
OS2XHeight: 605
OS2Vendor: 'BUni'
OS2CodePages: 00010000.00000000
OS2UnicodeRanges: 81000003.12000002.04000000.00000000
Lookup: 1 0 0 "'locl' Localized Forms in Thai lookup 0" { "'locl' Localized Forms in Thai lookup 0 subtable"  } ['locl' ('thai' <'PAL ' 'SAN ' > ) ]
Lookup: 1 0 0 "'salt' Stylistic Alternatives lookup 1" { "'salt' Stylistic Alternatives lookup 1 subtable"  } ['salt' ('DFLT' <'dflt' > 'latn' <'dflt' > 'thai' <'dflt' > ) ]
Lookup: 1 0 0 "'ss01' Style Set 1 lookup 2" { "'ss01' Style Set 1 lookup 2 subtable"  } ['ss01' ('DFLT' <'dflt' > 'latn' <'dflt' > 'thai' <'dflt' > ) ]

StartChar: .notdef
Encoding: 1114112 -1 0
Width: 600
Flags: MW
HStem: 0 60<120 480 120 540> 580 60<120 480 120 120>
VStem: 60 60<60 60 60 580> 480 60<60 580 580 580>
LayerCount: 2
Fore
SplineSet
60 0 m 1
 60 640 l 1
 540 640 l 1
 540 0 l 1
 60 0 l 1
120 60 m 1
 480 60 l 1
 480 580 l 1
 120 580 l 1
 120 60 l 1
EndSplineSet
EndChar

StartChar: exclam
Encoding: 33 33 2
Width: 260
GlyphClass: 2
Flags: HMW
HStem: 0 140 820 20G
VStem: 76.5 119 93.5 85 110.5 51
LayerCount: 2
Fore
SplineSet
192.950195312 69 m 0xc0
 192.950195312 30 164.900390625 0 130.049804688 0 c 0
 95.2001953125 0 68 30 68 69 c 0
 68 108 95.2001953125 138 130.049804688 138 c 0
 164.900390625 138 192.950195312 108 192.950195312 69 c 0xc0
176.799804688 822 m 1
 176.799804688 205 l 1
 84.150390625 205 l 1
 84.150390625 822 l 1
 176.799804688 822 l 1
EndSplineSet
EndChar

StartChar: quotedbl
Encoding: 34 34 3
Width: 332
GlyphClass: 2
Flags: HMW
HStem: 581 229<76.5 132.6 76.5 76.5 199.75 255.85 199.75 199.75>
VStem: 68 73.1<810 810> 76.5 56.1<581 581> 191.25 73.1<810 810> 199.75 56.1<581 581>
LayerCount: 2
Fore
SplineSet
264.349609375 810 m 1x90
 255.849609375 581 l 1
 199.75 581 l 1x88
 191.25 810 l 1
 264.349609375 810 l 1x90
141.099609375 810 m 1xc0
 132.599609375 581 l 1
 76.5 581 l 1xa0
 68 810 l 1
 141.099609375 810 l 1xc0
EndSplineSet
EndChar

StartChar: numbersign
Encoding: 35 35 4
Width: 647
GlyphClass: 2
Flags: HMW
HStem: 0 21G<117.3 203.15 117.3 117.3 307.7 393.55 307.7 307.7> 220 70 500 70 780 20G
LayerCount: 2
Fore
SplineSet
596.700195312 562 m 1
 582.25 476 l 1
 474.299804688 476 l 1
 448.799804688 329 l 1
 555.900390625 329 l 1
 542.299804688 243 l 1
 433.5 243 l 1
 393.549804688 0 l 1
 307.700195312 0 l 1
 348.5 243 l 1
 243.099609375 243 l 1
 230.349609375 166 215.049804688 76 203.150390625 0 c 1
 117.299804688 0 l 1
 158.099609375 243 l 1
 51 243 l 1
 65.4501953125 329 l 1
 172.549804688 329 l 1
 197.200195312 476 l 1
 90.099609375 476 l 1
 105.400390625 562 l 1
 212.5 562 l 1
 250.75 793 l 1
 336.599609375 793 l 1
 297.5 562 l 1
 403.75 562 l 1
 442 793 l 1
 527.849609375 793 l 1
 488.75 562 l 1
 596.700195312 562 l 1
283.049804688 476 m 1
 258.400390625 329 l 1
 362.950195312 329 l 1
 388.450195312 476 l 1
 283.049804688 476 l 1
EndSplineSet
EndChar

StartChar: dollar
Encoding: 36 36 5
Width: 626
GlyphClass: 2
Flags: HMW
HStem: -17 85 380 85 732 86
VStem: 68 89.25<255.002 269.002> 87.55 87.55<550.998 626.333 550.998 661.001> 280.5 82.45<-114.998 -16.998 -16.998 -16.998 72.0029 354.003 465.003 731 818.001 914.001> 459.85 86.7<552.001 565.001> 470.05 88.4<177.544 259.448>
LayerCount: 2
Fore
SplineSet
362.950195312 -115 m 1xe5
 280.5 -114.998046875 l 1
 280.5 -16.998046875 l 1
 171.700195312 -2.998046875 85.849609375 92.001953125 68 255.001953125 c 1
 157.25 269.001953125 l 1xf5
 169.150390625 146.965820312 215.900390625 82.3583984375 280.5 68.0009765625 c 1
 280.5 380.000976562 l 1
 192.950195312 409.296875 87.5498046875 453.240234375 87.5498046875 588.000976562 c 0
 87.5498046875 734.000976562 180.200195312 803.000976562 280.5 818.000976562 c 1
 280.5 914.000976562 l 1
 362.950195312 914.000976562 l 1
 362.950195312 818.000976562 l 1
 460.700195312 801.000976562 533.799804688 714.000976562 546.549804688 565.000976562 c 1
 459.849609375 552.000976562 l 1xee
 449.650390625 658.989257812 414.799804688 715.569335938 362.950195312 731 c 1
 362.950195312 437 l 1
 453.900390625 405.723632812 558.450195312 361.7421875 558.450195312 221 c 0
 558.450195312 75 462.400390625 3 362.950195312 -14 c 1
 362.950195312 -115 l 1xe5
175.099609375 588.001953125 m 0xec
 175.099609375 513.993164062 228.650390625 484.807617188 280.5 465.002929688 c 1
 280.5 732.002929688 l 1
 214.200195312 716.462890625 175.099609375 664.6640625 175.099609375 588.001953125 c 0xec
362.950195312 354.002929688 m 1
 362.950195312 72.0029296875 l 1
 418.200195312 87.5234375 470.049804688 134.0859375 470.049804688 221.002929688 c 0xe5
 470.049804688 297.893554688 415.650390625 333.221679688 362.950195312 354.002929688 c 1
EndSplineSet
EndChar

StartChar: percent
Encoding: 37 37 6
Width: 628
GlyphClass: 2
Flags: HMW
HStem: -10 65 0 21G 285 65 450 65 745 65 780 20G
VStem: 59.5 68 263.5 68 382.5 68 586.5 68
LayerCount: 2
Fore
SplineSet
140.25 -21 m 1x33c0
 68 26 l 1
 488.75 825 l 1
 560.150390625 778 l 1
 140.25 -21 l 1x33c0
206.549804688 488 m 0
 133.450195312 488 74.7998046875 561 74.7998046875 651 c 0
 74.7998046875 740 133.450195312 813 206.549804688 813 c 0
 279.650390625 813 337.450195312 740 337.450195312 651 c 0
 337.450195312 561 279.650390625 488 206.549804688 488 c 0
206.549804688 720 m 0
 181.049804688 720 158.950195312 689 158.950195312 651 c 0
 158.950195312 612 181.049804688 581 206.549804688 581 c 0
 232.900390625 581 253.299804688 612 253.299804688 651 c 0
 253.299804688 689 232.900390625 720 206.549804688 720 c 0
425.849609375 -11 m 0
 353.599609375 -11 294.950195312 62 294.950195312 152 c 0
 294.950195312 243 353.599609375 316 425.849609375 316 c 0
 498.950195312 316 557.599609375 243 557.599609375 152 c 0
 557.599609375 62 498.950195312 -11 425.849609375 -11 c 0
425.849609375 221 m 0
 400.349609375 221 379.099609375 190 379.099609375 152 c 0
 379.099609375 115 400.349609375 84 425.849609375 84 c 0
 452.200195312 84 473.450195312 115 473.450195312 152 c 0
 473.450195312 190 452.200195312 221 425.849609375 221 c 0
EndSplineSet
EndChar

StartChar: ampersand
Encoding: 38 38 7
Width: 712
GlyphClass: 2
Flags: HMW
HStem: -20 90 0 21G 730 90
VStem: 68 85 153 85 399.5 85 501.5 85
LayerCount: 2
Fore
SplineSet
678.299804688 50 m 1x26
 628.150390625 -21 l 1
 591.599609375 11 553.349609375 50 516.799804688 93 c 1
 469.200195312 28 408.849609375 -10 332.349609375 -10 c 0
 217.599609375 -10 85 52 85 220 c 0
 85 340 182.75 411 266.049804688 472 c 1
 216.75 540 193.799804688 597 193.799804688 643 c 0
 193.799804688 747 270.299804688 810 344.25 810 c 0
 420.75 810 499.799804688 750 499.799804688 655 c 0
 499.799804688 564 440.299804688 498 385.049804688 451 c 1
 503.200195312 264 l 1
 515.950195312 306 523.599609375 350 527.849609375 380 c 1
 612.849609375 367 l 1
 606.900390625 323 589.049804688 241 561 174 c 1
 605.200195312 122 644.299804688 80 678.299804688 50 c 1x26
169.150390625 220 m 0
 169.150390625 107 267.75 80 332.349609375 80 c 0
 378.25 80 422.450195312 109 462.400390625 168 c 1
 316.200195312 400 l 1
 295.799804688 386 l 2
 239.700195312 345 169.150390625 293 169.150390625 220 c 0
415.650390625 655 m 0
 415.650390625 698 374 721 344.25 721 c 0
 313.650390625 721 277.950195312 695 277.950195312 650 c 0
 277.950195312 610 306 566 334.900390625 526 c 1
 379.950195312 564 415.650390625 605 415.650390625 655 c 0
EndSplineSet
EndChar

StartChar: quotesingle
Encoding: 39 39 8
Width: 209
GlyphClass: 2
Flags: HMW
HStem: 581 229<76.5 132.6 76.5 76.5>
VStem: 68 73.1<810 810> 76.5 56.1<581 581>
LayerCount: 2
Fore
SplineSet
141.099609375 810 m 1xc0
 132.599609375 581 l 1
 76.5 581 l 1xa0
 68 810 l 1
 141.099609375 810 l 1xc0
EndSplineSet
EndChar

StartChar: parenleft
Encoding: 40 40 9
Width: 290
GlyphClass: 2
Flags: HMW
VStem: 76.5 92.65<247 451 247 459.5>
LayerCount: 2
Fore
SplineSet
202.299804688 -150 m 1
 155.469726562 -61.6357421875 76.5 120.291992188 76.5 349 c 0
 76.5 570 155.549804688 755 203.150390625 847 c 1
 273.700195312 803 l 1
 231.200195312 721 169.150390625 553 169.150390625 349 c 0
 169.150390625 145 231.200195312 -23 273.700195312 -105 c 1
 202.299804688 -150 l 1
EndSplineSet
EndChar

StartChar: parenright
Encoding: 41 41 10
Width: 331
GlyphClass: 2
Flags: HMW
VStem: 162.35 92.65<269 473>
LayerCount: 2
Fore
SplineSet
129.200195312 870 m 1
 176.030273438 781.635742188 255 599.708007812 255 371 c 0
 255 150 175.950195312 -35 128.349609375 -127 c 1
 57.7998046875 -83 l 1
 100.299804688 -1 162.349609375 167 162.349609375 371 c 0
 162.349609375 575 100.299804688 743 57.7998046875 825 c 1
 129.200195312 870 l 1
EndSplineSet
EndChar

StartChar: asterisk
Encoding: 42 42 11
Width: 409
GlyphClass: 2
Flags: HMW
HStem: 489 339<144.5 243.1 168.3 266.05>
VStem: 168.3 74.8<711 828 711 828>
LayerCount: 2
Fore
SplineSet
324.700195312 540 m 1
 266.049804688 489 l 1
 204.849609375 584 l 1
 144.5 489 l 1
 88.400390625 542 l 1
 146.200195312 635 l 1
 50.150390625 671 l 1
 70.5498046875 748 l 1
 168.299804688 711 l 1
 168.299804688 828 l 1
 243.099609375 828 l 1
 243.099609375 711 l 1
 339.150390625 748 l 1
 359.549804688 671 l 1
 262.650390625 635 l 1
 324.700195312 540 l 1
EndSplineSet
EndChar

StartChar: plus
Encoding: 43 43 12
Width: 489
GlyphClass: 2
Flags: HMW
HStem: 285 70
VStem: 204 68
LayerCount: 2
Fore
SplineSet
421.599609375 366 m 1
 421.599609375 280 l 1
 284.75 280 l 1
 284.75 121 l 1
 204 121 l 1
 204 280 l 1
 68 280 l 1
 68 366 l 1
 204 366 l 1
 204 525 l 1
 284.75 525 l 1
 284.75 366 l 1
 421.599609375 366 l 1
EndSplineSet
EndChar

StartChar: comma
Encoding: 44 44 13
Width: 289
GlyphClass: 2
Flags: HMW
HStem: -150 290
VStem: 136 68
LayerCount: 2
Fore
SplineSet
183.599609375 103 m 0
 192.099609375 86 195.5 66 195.5 46 c 0
 195.5 -7 162.349609375 -70 99.4501953125 -108 c 1
 95.2001953125 -80 l 1
 124.950195312 -48 136 2 134.299804688 2 c 0
 102 2 76.5 31 76.5 70 c 0
 76.5 107 102 136 134.299804688 136 c 0
 154.700195312 136 173.400390625 123 183.599609375 103 c 0
EndSplineSet
EndChar

StartChar: hyphen
Encoding: 45 45 14
Width: 498
GlyphClass: 2
Flags: HMW
HStem: 283 70<85 413.95 85 413.95>
VStem: 85 328.95<283 353 283 353>
LayerCount: 2
Fore
SplineSet
413.950195312 353 m 1
 413.950195312 283 l 1
 85 283 l 1
 85 353 l 1
 413.950195312 353 l 1
EndSplineSet
EndChar

StartChar: period
Encoding: 46 46 15
Width: 250
GlyphClass: 2
Flags: HMW
HStem: 0 140
VStem: 76.5 119
LayerCount: 2
Fore
SplineSet
125.799804688 131 m 0
 153.849609375 131 182.75 99 182.75 64 c 0
 182.75 28 153.849609375 -4 125.799804688 -4 c 0
 96.0498046875 -4 68 28 68 64 c 0
 68 99 96.0498046875 131 125.799804688 131 c 0
EndSplineSet
EndChar

StartChar: slash
Encoding: 47 47 16
Width: 413
GlyphClass: 2
Flags: HMW
HStem: 820 20G
VStem: 34 314.5
LayerCount: 2
Fore
SplineSet
110.5 -26 m 1
 34 10 l 1
 302.599609375 810 l 1
 379.099609375 775 l 1
 110.5 -26 l 1
EndSplineSet
EndChar

StartChar: zero
Encoding: 48 48 17
Width: 637
GlyphClass: 2
Flags: HMW
HStem: -20 90 730 90
VStem: 68 85 408 85
LayerCount: 2
Fore
SplineSet
319.599609375 -11 m 1
 317.900390625 -11 l 1
 122.400390625 -4 65.4501953125 185 65.4501953125 397 c 0
 65.4501953125 608 119.849609375 807 318.75 807 c 0
 515.950195312 807 572.049804688 605 572.049804688 397 c 0
 572.049804688 188 515.099609375 -4 319.599609375 -11 c 1
318.75 719 m 0
 179.349609375 717 147.900390625 562 147.900390625 397 c 0
 147.900390625 237 180.200195312 75 318.75 75 c 0
 456.450195312 75 489.599609375 240 489.599609375 397 c 0
 489.599609375 560 458.150390625 718 318.75 719 c 0
EndSplineSet
EndChar

StartChar: one
Encoding: 49 49 18
Width: 481
GlyphClass: 2
Flags: HMW
HStem: 0 21G<234.6 317.05 234.6 234.6> 525 95 780 20G
VStem: 314.5 85
LayerCount: 2
Fore
SplineSet
101.150390625 585 m 1
 68 665 l 1
 170.849609375 720 243.950195312 800 244.799804688 801 c 2
 317.049804688 801 l 1
 317.049804688 0 l 1
 234.599609375 0 l 1
 234.599609375 674 l 1
 203.150390625 648 162.349609375 618 101.150390625 585 c 1
EndSplineSet
EndChar

StartChar: two
Encoding: 50 50 19
Width: 637
GlyphClass: 2
Flags: HMW
HStem: 0 90 730 90
VStem: 68 93.5 76.5 85 399.5 85
LayerCount: 2
Fore
SplineSet
570.349609375 89 m 1xc8
 570.349609375 1 l 1
 67.150390625 1 l 1
 67.150390625 75 l 2
 67.150390625 144 94.349609375 204 147.900390625 261 c 0
 187.849609375 301 246.5 340 302.599609375 377 c 0
 397.799804688 438 487.049804688 497 487.049804688 589 c 0
 487.049804688 692 400.349609375 724 313.650390625 724 c 0
 230.349609375 724 162.349609375 674 162.349609375 560 c 1
 79.900390625 560 l 1
 79.900390625 729 185.299804688 811 313.650390625 811 c 0
 433.5 811 570.349609375 753 570.349609375 589 c 0
 570.349609375 449 453.049804688 373 342.549804688 300 c 0
 291.549804688 267 239.700195312 233 202.299804688 195 c 0
 169.150390625 162 153 128 149.599609375 89 c 1
 570.349609375 89 l 1xc8
EndSplineSet
EndChar

StartChar: three
Encoding: 51 51 20
Width: 637
GlyphClass: 2
Flags: HMW
HStem: -20 90 375 80 730 90
VStem: 51 85 68 85 391 85 408 85
LayerCount: 2
Fore
SplineSet
318.75 -9 m 0xe0
 181.900390625 -9 68 82 65.4501953125 258 c 1
 147.900390625 258 l 1
 150.450195312 135 227.799804688 78 318.75 78 c 0
 408.849609375 78 489.599609375 130 489.599609375 239 c 0
 489.599609375 346 408.849609375 401 318.75 399 c 2
 260.950195312 399 l 1
 260.950195312 486 l 1
 317.900390625 486 l 1
 391.849609375 490 464.950195312 519 464.950195312 606 c 0
 464.950195312 690 388.450195312 722 318.75 722 c 0
 245.650390625 722 178.5 686 172.549804688 587 c 1
 90.099609375 587 l 1
 95.2001953125 741 202.299804688 810 318.75 810 c 0
 431.799804688 810 546.549804688 747 546.549804688 606 c 0
 546.549804688 542 516.799804688 480 468.349609375 444 c 1
 532.099609375 401 572.049804688 326 572.049804688 239 c 0
 572.049804688 77 451.349609375 -9 318.75 -9 c 0xe0
EndSplineSet
EndChar

StartChar: four
Encoding: 52 52 21
Width: 637
GlyphClass: 2
Flags: HMW
HStem: 0 21G<411.4 492.15 411.4 411.4> 150 90 780 20G
VStem: 348.5 85
LayerCount: 2
Fore
SplineSet
492.150390625 153 m 1
 492.150390625 0 l 1
 411.400390625 0 l 1
 411.400390625 153 l 1
 66.2998046875 153 l 1
 66.2998046875 226 l 1
 418.200195312 798 l 1
 492.150390625 798 l 1
 492.150390625 240 l 1
 571.200195312 240 l 1
 571.200195312 153 l 1
 492.150390625 153 l 1
173.400390625 240 m 1
 411.400390625 240 l 1
 411.400390625 626 l 1
 173.400390625 240 l 1
EndSplineSet
EndChar

StartChar: five
Encoding: 53 53 22
Width: 575
GlyphClass: 2
Flags: HMW
HStem: -11 86<255.851 348.076 255.851 372.725> 453 87<267.75 347.651> 710 88<164.9 509.15 164.9 164.9>
VStem: 464.1 82.45
LayerCount: 2
Fore
SplineSet
293.25 -11 m 0
 184.450195312 -11 96.05078125 34 51.8505859375 164 c 1
 127.500976562 197 l 1
 161.500976562 105 218.451171875 75 293.250976562 75 c 0
 402.900390625 75 464.100585938 137 464.100585938 265 c 0
 464.100585938 392 402.05078125 453 293.250976562 453 c 0
 210.813476562 453 153.931640625 428.729492188 129.200195312 358 c 1
 47.599609375 346 l 1
 89.25 798 l 1
 509.150390625 798 l 1
 509.150390625 710 l 1
 164.900390625 710 l 1
 157.25 631 150.450195312 586 143.650390625 501 c 1
 188.700195312 531 242.25 540 293.25 540 c 0
 449.650390625 540 546.549804688 441 546.549804688 265 c 0
 546.549804688 89 452.200195312 -11 293.25 -11 c 0
EndSplineSet
EndChar

StartChar: six
Encoding: 54 54 23
Width: 638
GlyphClass: 2
Flags: HMW
HStem: -20 90 410 90 730 90
VStem: 68 85 399.5 85 408 85
LayerCount: 2
Fore
SplineSet
330.650390625 -10 m 0xf0
 143.650390625 -6 72.25 163 72.25 399 c 0
 72.25 630 142.799804688 809 325.549804688 809 c 0
 435.200195312 809 516.799804688 734 556.75 594 c 1
 480.25 564 l 1
 451.349609375 664 401.200195312 721 325.549804688 721 c 0
 206.549804688 721 162.349609375 601 155.549804688 445 c 1
 199.75 497 264.349609375 523 330.650390625 523 c 0
 466.650390625 523 566.099609375 409 566.099609375 257 c 0
 566.099609375 94 462.400390625 -10 330.650390625 -10 c 0xf0
330.650390625 436 m 0
 241.400390625 436 176.799804688 361 176.799804688 257 c 0
 176.799804688 150 245.650390625 77 330.650390625 77 c 0
 419.049804688 77 483.650390625 153 483.650390625 257 c 0
 483.650390625 366 414.799804688 436 330.650390625 436 c 0
EndSplineSet
EndChar

StartChar: seven
Encoding: 55 55 24
Width: 637
GlyphClass: 2
Flags: HMW
HStem: 0 21G 710 90
VStem: 204 85
LayerCount: 2
Fore
SplineSet
283.049804688 -10 m 2
 202.299804688 10 l 1
 202.299804688 28 203.150390625 31 205.700195312 41 c 2
 205.700195312 40 l 1
 211.650390625 69 230.349609375 159 266.900390625 270 c 0
 319.599609375 428 386.75 582 464.950195312 712 c 1
 66.2998046875 712 l 1
 66.2998046875 800 l 1
 571.200195312 800 l 1
 571.200195312 726 l 1
 471.75 571 397.799804688 401 343.400390625 239 c 0
 300.900390625 110 283.049804688 -9 283.049804688 -10 c 2
EndSplineSet
EndChar

StartChar: eight
Encoding: 56 56 25
Width: 637
GlyphClass: 2
Flags: HMW
HStem: -20 90 375 80 730 90
VStem: 59.5 85 76.5 85 399.5 85 416.5 85
LayerCount: 2
Fore
SplineSet
318.75 -10 m 0xe0
 184.450195312 -10 65.4501953125 73 65.4501953125 237 c 0
 65.4501953125 323 107.950195312 400 170 443 c 1
 122.400390625 479 90.9501953125 539 90.9501953125 604 c 0
 90.9501953125 745 206.549804688 808 318.75 808 c 0
 431.799804688 808 546.549804688 745 546.549804688 604 c 0
 546.549804688 538 516.799804688 479 468.349609375 443 c 1
 532.099609375 401 572.049804688 324 572.049804688 237 c 0
 572.049804688 75 451.349609375 -10 318.75 -10 c 0xe0
318.75 397 m 0
 229.5 397 147.900390625 346 147.900390625 237 c 0
 147.900390625 128 228.650390625 76 318.75 76 c 0
 408.849609375 76 489.599609375 129 489.599609375 237 c 0
 489.599609375 345 408.849609375 397 318.75 397 c 0
318.75 720 m 0
 249.049804688 720 173.400390625 689 173.400390625 604 c 0
 173.400390625 518 248.200195312 487 318.75 487 c 0
 388.450195312 487 464.950195312 519 464.950195312 604 c 0
 464.950195312 688 388.450195312 720 318.75 720 c 0
EndSplineSet
EndChar

StartChar: nine
Encoding: 57 57 26
Width: 638
GlyphClass: 2
Flags: HMW
HStem: -20 90 300 90 730 90
VStem: 68 85 76.5 85 408 85
LayerCount: 2
Fore
SplineSet
307.700195312 810 m 0xe4
 494.700195312 806 566.099609375 637 566.099609375 401 c 0
 566.099609375 170 495.549804688 -9 312.799804688 -9 c 0
 202.299804688 -9 121.549804688 66 80.75 206 c 1
 158.099609375 236 l 1
 187 136 236.299804688 79 312.799804688 79 c 0
 431.799804688 79 475.150390625 199 482.799804688 355 c 1
 436.900390625 303 373.150390625 277 307.700195312 277 c 0
 171.700195312 277 72.25 391 72.25 543 c 0
 72.25 706 175.950195312 810 307.700195312 810 c 0xe4
307.700195312 364 m 0
 396.950195312 364 461.549804688 439 461.549804688 543 c 0
 461.549804688 650 392.700195312 723 307.700195312 723 c 0
 218.450195312 723 154.700195312 647 154.700195312 543 c 0
 154.700195312 434 223.549804688 364 307.700195312 364 c 0
EndSplineSet
EndChar

StartChar: colon
Encoding: 58 58 27
Width: 267
GlyphClass: 2
Flags: HMW
HStem: 0 140 420 140
VStem: 76.5 119
LayerCount: 2
Fore
SplineSet
134.299804688 526 m 0
 162.349609375 526 191.25 494 191.25 459 c 0
 191.25 424 162.349609375 392 134.299804688 392 c 0
 104.549804688 392 76.5 424 76.5 459 c 0
 76.5 494 104.549804688 526 134.299804688 526 c 0
134.299804688 131 m 0
 162.349609375 131 191.25 99 191.25 64 c 0
 191.25 28 162.349609375 -4 134.299804688 -4 c 0
 104.549804688 -4 76.5 28 76.5 64 c 0
 76.5 99 104.549804688 131 134.299804688 131 c 0
EndSplineSet
EndChar

StartChar: semicolon
Encoding: 59 59 28
Width: 272
GlyphClass: 2
Flags: HMW
HStem: -150 290 420 140
VStem: 76.5 119<50.5 56 19.5 88.5> 136 68
LayerCount: 2
Fore
SplineSet
183.599609375 103 m 0x90
 192.099609375 86 195.5 66 195.5 46 c 0
 195.5 -7 162.349609375 -70 99.4501953125 -108 c 1
 95.2001953125 -80 l 1
 124.950195312 -48 136 2 134.299804688 2 c 0
 102 2 76.5 31 76.5 70 c 0
 76.5 107 102 136 134.299804688 136 c 0
 154.700195312 136 173.400390625 123 183.599609375 103 c 0x90
125.799804688 551 m 0x60
 153.849609375 551 182.75 519 182.75 484 c 0
 182.75 448 153.849609375 416 125.799804688 416 c 0
 96.0498046875 416 68 448 68 484 c 0
 68 519 96.0498046875 551 125.799804688 551 c 0x60
EndSplineSet
EndChar

StartChar: less
Encoding: 60 60 29
Width: 500
GlyphClass: 2
Flags: HW
LayerCount: 2
Fore
SplineSet
399.5 112 m 1
 68 290 l 1
 68 360 l 1
 399.5 536 l 1
 430.099609375 449 l 1
 163.200195312 325 l 1
 432.650390625 198 l 1
 399.5 112 l 1
EndSplineSet
EndChar

StartChar: equal
Encoding: 61 61 30
Width: 499
GlyphClass: 2
Flags: HMW
HStem: 180 70 390 70
LayerCount: 2
Fore
SplineSet
369.75 386 m 1
 68 386 l 1
 68 480 l 1
 369.75 480 l 1
 369.75 386 l 1
369.75 168 m 1
 68 168 l 1
 68 262 l 1
 369.75 262 l 1
 369.75 168 l 1
EndSplineSet
EndChar

StartChar: greater
Encoding: 62 62 31
Width: 476
GlyphClass: 2
Flags: HW
LayerCount: 2
Fore
SplineSet
76.5 528 m 1
 408 350 l 1
 408 280 l 1
 76.5 104 l 1
 45.900390625 191 l 1
 312.799804688 315 l 1
 43.349609375 442 l 1
 76.5 528 l 1
EndSplineSet
EndChar

StartChar: question
Encoding: 63 63 32
Width: 533
GlyphClass: 2
Flags: HMW
HStem: 0 140 770 90
VStem: 51 85 187 119 199.75 85 374 85
LayerCount: 2
Fore
SplineSet
306.849609375 207 m 1xe4
 226.099609375 207 l 1
 220.150390625 322 275.400390625 430 326.400390625 504 c 0
 367.200195312 560 401.200195312 621 401.200195312 692 c 0
 401.200195312 772 323 808 266.049804688 808 c 0
 175.950195312 808 137.700195312 737 137.700195312 623 c 1
 51 623 l 1
 51 799 127.5 895 266.049804688 895 c 0
 369.75 895 482.799804688 823 482.799804688 692 c 0
 482.799804688 582 434.349609375 510 389.299804688 448 c 0
 347.650390625 390 306.849609375 322 306.849609375 207 c 1xe4
328.950195312 69 m 0
 328.950195312 30 301.75 0 266.900390625 0 c 0
 231.200195312 0 204 30 204 69 c 0
 204 107 231.200195312 138 266.900390625 138 c 0
 301.75 138 328.950195312 107 328.950195312 69 c 0
EndSplineSet
EndChar

StartChar: at
Encoding: 64 64 33
Width: 973
GlyphClass: 2
Flags: HMW
HStem: -163 88<398.651 524.876 398.651 533.376> -19 20G<701.251 701.251> 27 88<697.001 716.126 697.001 726.326> 550 87<455.176 530.289 432.225 545.276> 603 20G<648.55 648.55> 737 88<398.651 535.076>
VStem: 68 81.6 259.25 81.6 823.65 81.6
LayerCount: 2
Fore
SplineSet
724.200195312 609 m 1xef80
 668.100585938 141 l 2
 665.935546875 122.936523438 685.951171875 115 708.05078125 115 c 0
 724.201171875 115 745.237304688 119.9296875 756.500976562 130 c 0
 799.000976562 168 823.650390625 260 823.650390625 331 c 0
 823.650390625 444 782.451171875 553.541015625 719.951171875 625 c 0
 659.600585938 694 578.850585938 737 491.30078125 737 c 0
 306.000976562 737 149.600585938 552 149.600585938 331 c 0
 149.600585938 110 306.000976562 -75 491.30078125 -75 c 0
 558.451171875 -75 637.500976562 -47 701.250976562 1 c 1
 742.900390625 -75 l 1
 670.650390625 -130 575.451171875 -163 491.30078125 -163 c 0
 256.701171875 -163 68.0009765625 70 68.0009765625 331 c 0
 68.0009765625 604 265.201171875 825 491.30078125 825 c 0
 728.451171875 825 905.250976562 590 905.250976562 331 c 0
 905.250976562 228 879.079101562 113.1328125 802.400390625 56 c 0
 776.900390625 37 743.750976562 27 708.900390625 27 c 0
 663.205078125 27 618.33984375 51.9375 598.400390625 111 c 1
 554.319335938 52.154296875 502.459960938 26 444.549804688 26 c 0
 306.849609375 26 259.25 143 259.25 270 c 0
 259.25 293 261.029296875 314.987304688 263.5 337 c 0
 281.349609375 496 357.849609375 637 506.599609375 637 c 0xf780
 553.979492188 637 599.724609375 609.727539062 632.400390625 562 c 1
 648.549804688 623 l 1
 724.200195312 609 l 1xef80
506.600585938 550 m 0
 403.750976562 550 357.954101562 430.845703125 345.100585938 325 c 0
 342.55078125 304 340.850585938 285 340.850585938 267 c 0
 340.850585938 180 368.05078125 112 444.55078125 112 c 0
 548.250976562 112 592.265625 228.879882812 606.05078125 337 c 0
 608.600585938 357 610.30078125 379 610.30078125 396 c 0
 610.30078125 482 583.951171875 550 506.600585938 550 c 0
EndSplineSet
EndChar

StartChar: A
Encoding: 65 65 34
Width: 664
GlyphClass: 2
Flags: HMW
HStem: 233 90<187 447.1 218.45 447.1 218.45 477.7> 779 20G<289.85 376.55 376.55 376.55>
LayerCount: 2
Fore
SplineSet
187 233 m 1
 102 -19 l 1
 25.5 16 l 1
 289.849609375 799 l 1
 376.549804688 799 l 1
 639.200195312 16 l 1
 561.849609375 -19 l 1
 477.700195312 233 l 1
 187 233 l 1
334.049804688 684 m 1
 218.450195312 323 l 1
 447.099609375 323 l 1
 334.049804688 684 l 1
EndSplineSet
EndChar

StartChar: B
Encoding: 66 66 35
Width: 678
GlyphClass: 2
Flags: HMW
HStem: 0 90<169.15 355.3 169.15 355.3> 367 93<169.15 339.15 169.15 339.15 339.15 348.5> 710 90<169.15 333.2 169.15 169.15>
VStem: 85 84.15<90 367 460 710> 483.65 84.15<549.5 634.5> 526.15 84.15<168 270 133 286.5>
LayerCount: 2
Fore
SplineSet
355.299804688 0 m 2xf4
 85 0 l 1
 85 800 l 1
 333.200195312 800 l 2
 459.849609375 800 567.799804688 745 567.799804688 583 c 0xf8
 567.799804688 516 545.873046875 462 492.150390625 424 c 1
 568.600585938 388 610.299804688 314 610.299804688 226 c 0
 610.299804688 40 481.950195312 0 355.299804688 0 c 2xf4
169.150390625 367 m 1
 169.150390625 90 l 1
 355.299804688 90 l 2
 459.849609375 90 526.150390625 110 526.150390625 226 c 0xf4
 526.150390625 347 434.349609375 367 348.5 367 c 2
 169.150390625 367 l 1
169.150390625 460 m 1
 339.150390625 460 l 2
 408 460 483.650390625 480 483.650390625 583 c 0xf8
 483.650390625 686 413.099609375 710 333.200195312 710 c 2
 169.150390625 710 l 1
 169.150390625 460 l 1
EndSplineSet
EndChar

StartChar: C
Encoding: 67 67 36
Width: 704
GlyphClass: 2
Flags: HMW
HStem: -20 90 735 85
VStem: 76.5 85 535.5 85
LayerCount: 2
Fore
SplineSet
399.5 -18 m 0
 185.299804688 -18 76.5 182 76.5 391 c 0
 76.5 610 184.450195312 820 399.5 820 c 0
 521.900390625 820 595.849609375 754 651.099609375 647 c 1
 585.650390625 586 l 1
 543.150390625 675 489.599609375 730 399.5 730 c 0
 236.299804688 730 160.650390625 564 160.650390625 391 c 0
 160.650390625 229 237.150390625 71 399.5 71 c 0
 489.599609375 71 543.150390625 118 589.900390625 199 c 1
 653.650390625 140 l 1
 595 40 520.200195312 -18 399.5 -18 c 0
EndSplineSet
EndChar

StartChar: D
Encoding: 68 68 37
Width: 668
GlyphClass: 2
Flags: HMW
HStem: 0 90<169.15 315.35 169.15 315.35> 715 85
VStem: 85 85 518.5 85
LayerCount: 2
Fore
SplineSet
315.349609375 0 m 2
 85 0 l 1
 85 800 l 1
 315.349609375 800 l 2
 532.950195312 800 609.450195312 620 609.450195312 400 c 0
 609.450195312 182 532.099609375 0 315.349609375 0 c 2
169.150390625 90 m 1
 315.349609375 90 l 2
 468.349609375 90 525.299804688 215 525.299804688 400 c 0
 525.299804688 587 469.200195312 710 315.349609375 710 c 2
 169.150390625 710 l 1
 169.150390625 90 l 1
EndSplineSet
EndChar

StartChar: E
Encoding: 69 69 38
Width: 623
GlyphClass: 2
Flags: HMW
HStem: 0 90<169.15 563.55 169.15 563.55> 355 90 710 90
VStem: 85 85
CounterMasks: 1 e0
LayerCount: 2
Fore
SplineSet
513.400390625 447 m 1
 513.400390625 357 l 1
 169.150390625 357 l 1
 169.150390625 90 l 1
 563.549804688 90 l 1
 563.549804688 0 l 1
 85 0 l 1
 85 800 l 1
 547.400390625 799 l 1
 547.400390625 710 l 1
 169.150390625 710 l 1
 169.150390625 447 l 1
 513.400390625 447 l 1
EndSplineSet
EndChar

StartChar: F
Encoding: 70 70 39
Width: 581
GlyphClass: 2
Flags: HMW
HStem: 0 21G 355 90 710 90<169.15 547.4>
VStem: 85 85
LayerCount: 2
Fore
SplineSet
513.400390625 448 m 1
 513.400390625 358 l 1
 169.150390625 358 l 1
 169.150390625 1 l 1
 85 1 l 1
 85 801 l 1
 547.400390625 800 l 1
 547.400390625 710 l 1
 169.150390625 710 l 1
 169.150390625 448 l 1
 513.400390625 448 l 1
EndSplineSet
EndChar

StartChar: G
Encoding: 71 71 40
Width: 735
GlyphClass: 2
Flags: HMW
HStem: -19 89<322.15 437.75 322.15 440.725> 0 21G<591.6 658.75 591.6 591.6> 357 90<377.4 574.6 377.4 658.75> 730 90<318.325 444.975>
VStem: 76.5 84.15<316 484 316 507> 574.6 84.15<70 70 181 357 357 357> 591.6 67.15<0 447>
LayerCount: 2
Fore
SplineSet
658.75 447 m 1xba
 658.75 0 l 1
 591.599609375 0 l 1x7a
 574.599609375 70 l 1
 529.549804688 11.9560546875 481.950195312 -19 399.5 -19 c 0
 185.299804688 -19 76.5 186 76.5 400 c 0
 76.5 614 175.950195312 820 399.5 820 c 0
 522.75 820 596.700195312 757 651.950195312 655 c 1
 586.5 595 l 1
 544.849609375 678 490.450195312 730 399.5 730 c 0
 237.150390625 730 160.650390625 568 160.650390625 400 c 0
 160.650390625 232 244.799804688 70 399.5 70 c 0
 476 70 530.400390625 115 574.599609375 181 c 1
 574.599609375 357 l 1xbc
 377.400390625 357 l 1
 377.400390625 447 l 1
 658.75 447 l 1xba
EndSplineSet
EndChar

StartChar: H
Encoding: 72 72 41
Width: 697
GlyphClass: 2
Flags: HMW
HStem: 0 21G<85 169.15 85 85 528.7 612.85 528.7 528.7> 355 90 780 20G<85 169.15 169.15 169.15 528.7 612.85 612.85 612.85>
VStem: 85 85 527 85
LayerCount: 2
Fore
SplineSet
612.849609375 800 m 1
 612.849609375 0 l 1
 528.700195312 0 l 1
 528.700195312 357 l 1
 169.150390625 357 l 1
 169.150390625 0 l 1
 85 0 l 1
 85 800 l 1
 169.150390625 800 l 1
 169.150390625 447 l 1
 528.700195312 447 l 1
 528.700195312 800 l 1
 612.849609375 800 l 1
EndSplineSet
EndChar

StartChar: I
Encoding: 73 73 42
Width: 288
GlyphClass: 2
Flags: HMW
HStem: 0 21G<102 186.15 102 102> 780 20G<102 186.15 186.15 186.15>
VStem: 102 85
LayerCount: 2
Fore
SplineSet
186.150390625 800 m 1
 186.150390625 0 l 1
 102 0 l 1
 102 800 l 1
 186.150390625 800 l 1
EndSplineSet
EndChar

StartChar: J
Encoding: 74 74 43
Width: 508
GlyphClass: 2
Flags: HMW
HStem: -20 85 780 20G<322.15 406.3 406.3 406.3>
VStem: 25.5 85 280.5 85
LayerCount: 2
Fore
SplineSet
214.200195312 -18 m 0
 118.150390625 -18 24.650390625 52 25.5 195 c 1
 109.650390625 195 l 1
 109.650390625 117 157.25 71 214.200195312 71 c 0
 277.099609375 71 322.150390625 109 322.150390625 180 c 2
 322.150390625 800 l 1
 406.299804688 800 l 1
 406.299804688 180 l 2
 406.299804688 49 322.150390625 -18 214.200195312 -18 c 0
EndSplineSet
EndChar

StartChar: K
Encoding: 75 75 44
Width: 644
GlyphClass: 2
Flags: HMW
HStem: 0 21G<85 169.15 85 85> 780 20G<85 169.15 169.15 169.15>
VStem: 85 84.15<0 284 413 800>
LayerCount: 2
Fore
SplineSet
610.299804688 44 m 1
 549.950195312 -20 l 1
 251.599609375 378 l 1
 169.150390625 284 l 1
 169.150390625 0 l 1
 85 0 l 1
 85 800 l 1
 169.150390625 800 l 1
 169.150390625 413 l 1
 527 817 l 1
 581.400390625 750 l 1
 311.099609375 444 l 1
 610.299804688 44 l 1
EndSplineSet
EndChar

StartChar: L
Encoding: 76 76 45
Width: 530
GlyphClass: 2
Flags: HMW
HStem: 0 90<170 513.4 170 513.4> 780 20G<85 170 170 170>
VStem: 85 85<90 800 90 800 90 800>
LayerCount: 2
Fore
SplineSet
513.400390625 90 m 1
 513.400390625 0 l 1
 85 0 l 1
 85 800 l 1
 170 800 l 1
 170 90 l 1
 513.400390625 90 l 1
EndSplineSet
EndChar

StartChar: M
Encoding: 77 77 46
Width: 802
GlyphClass: 2
Flags: HMW
HStem: 0 21G<85 169.15 85 85 633.25 717.4 633.25 633.25> 780 20G<85 184.45 184.45 184.45 618.8 717.4 717.4 717.4>
VStem: 85 84.15<0 602 0 800> 633.25 84.15<0 602 602 602>
LayerCount: 2
Fore
SplineSet
717.400390625 800 m 1
 717.400390625 0 l 1
 633.25 0 l 1
 633.25 602 l 1
 442.849609375 23 l 1
 357.849609375 23 l 1
 169.150390625 602 l 1
 169.150390625 0 l 1
 85 0 l 1
 85 800 l 1
 184.450195312 800 l 1
 400.349609375 158 l 1
 618.799804688 800 l 1
 717.400390625 800 l 1
EndSplineSet
EndChar

StartChar: N
Encoding: 78 78 47
Width: 687
GlyphClass: 2
Flags: HMW
HStem: 0 21G<85 169.15 85 85 526.15 602.65 526.15 526.15> 780 20G<85 162.35 162.35 162.35 518.5 602.65 602.65 602.65>
VStem: 85 85 527 85
LayerCount: 2
Fore
SplineSet
602.650390625 800 m 1
 602.650390625 0 l 1
 526.150390625 0 l 1
 169.150390625 615 l 1
 169.150390625 0 l 1
 85 0 l 1
 85 800 l 1
 162.349609375 800 l 1
 518.5 185 l 1
 518.5 800 l 1
 602.650390625 800 l 1
EndSplineSet
EndChar

StartChar: O
Encoding: 79 79 48
Width: 765
GlyphClass: 2
Flags: HMW
HStem: -20 90 735 85
VStem: 68 85 527 85
LayerCount: 2
Fore
SplineSet
382.5 -10 m 0
 177.650390625 -10 59.5 191 59.5 399 c 0
 59.5 609 176.799804688 810 382.5 810 c 0
 589.049804688 810 705.5 609 705.5 399 c 0
 705.5 191 588.200195312 -10 382.5 -10 c 0
382.5 720 m 0
 227.799804688 720 143.650390625 560 143.650390625 399 c 0
 143.650390625 236 228.650390625 79 382.5 79 c 0
 537.200195312 79 621.349609375 236 621.349609375 399 c 0
 621.349609375 560 538.049804688 720 382.5 720 c 0
EndSplineSet
EndChar

StartChar: P
Encoding: 80 80 49
Width: 619
GlyphClass: 2
Flags: HMW
HStem: 0 21G<85 169.15 85 85> 320 85 715 85
VStem: 85 85 493 85
LayerCount: 2
Fore
SplineSet
339.150390625 371 m 2
 169.150390625 371 l 1
 169.150390625 0 l 1
 85 0 l 1
 85 800 l 1
 334.900390625 800 l 2
 459.849609375 800 568.650390625 759 568.650390625 584 c 0
 568.650390625 404 452.200195312 371 339.150390625 371 c 2
169.150390625 461 m 1
 339.150390625 461 l 2
 408 461 484.5 464 484.5 584 c 0
 484.5 703 413.950195312 710 334.900390625 710 c 2
 169.150390625 710 l 1
 169.150390625 461 l 1
EndSplineSet
EndChar

StartChar: Q
Encoding: 81 81 50
Width: 782
GlyphClass: 2
Flags: HMW
HStem: -20 90<313.65 407.575 313.65 422.45> 735 85
VStem: 68 85 527 85
LayerCount: 2
Fore
SplineSet
391 730 m 0
 235.450195312 730 152.150390625 565 152.150390625 399 c 0
 152.150390625 231 236.299804688 70 391 70 c 0
 424.150390625 70 454.75 78 481.950195312 91 c 1
 399.5 162 l 1
 445.400390625 237 l 1
 550.799804688 147 l 1
 602.650390625 210 629.849609375 303 629.849609375 399 c 0
 629.849609375 565 546.549804688 730 391 730 c 0
391 -20 m 0
 185.299804688 -20 68 187 68 399 c 0
 68 613 184.450195312 819 391 819 c 0
 597.549804688 819 714 613 714 399 c 0
 714 288 677.450195312 172 616.25 92 c 1
 646.849609375 67 680.849609375 36 708.900390625 12 c 1
 662.150390625 -63 l 1
 552.5 31 l 1
 506.599609375 -1 453.900390625 -20 391 -20 c 0
EndSplineSet
EndChar

StartChar: R
Encoding: 82 82 51
Width: 679
GlyphClass: 2
Flags: HMW
HStem: 0 21G<85 169.15 85 85> 371 90<169.15 343.4 169.15 344.25> 710 90<169.15 373.15 169.15 169.15>
VStem: 85 84.15<0 371 461 710> 523.6 84.15<544 635.5>
LayerCount: 2
Fore
SplineSet
636.650390625 41 m 1
 576.299804688 -24 l 1
 520.200195312 50 513.470703125 118.922851562 509.150390625 185 c 0
 505.75 237 502.349609375 287 481.099609375 318 c 1
 481.950195312 317 l 1
 456.450195312 353 420.75 371 343.400390625 371 c 2
 169.150390625 371 l 1
 169.150390625 0 l 1
 85 0 l 1
 85 800 l 1
 373.150390625 800 l 2
 498.099609375 800 607.75 744 607.75 584 c 0
 607.75 504 571.265625 438 502.349609375 404 c 1
 566.51171875 348.204101562 586.8515625 276.453125 593.299804688 193 c 0
 597.549804688 138 600.950195312 86 636.650390625 41 c 1
169.150390625 461 m 1
 344.25 461 l 2
 436.049804688 461 523.599609375 464 523.599609375 584 c 0
 523.599609375 687 453.049804688 710 373.150390625 710 c 2
 169.150390625 710 l 1
 169.150390625 461 l 1
EndSplineSet
EndChar

StartChar: S
Encoding: 83 83 52
Width: 675
GlyphClass: 2
Flags: HMW
HStem: -20 90 730 90
VStem: 68 85 85 89.25 493 85
LayerCount: 2
Fore
SplineSet
339.150390625 -19 m 0xd8
 201.450195312 -21 90.099609375 75 68 255 c 1xe8
 152.150390625 269 l 1
 168.299804688 134 243.099609375 70 339.150390625 70 c 0
 422.450195312 70 523.599609375 112 523.599609375 221 c 0
 523.599609375 314 422.450195312 343 348.5 363 c 1
 350.200195312 362 l 1
 340.849609375 365 l 2
 235.450195312 396 88.400390625 431 88.400390625 588 c 0
 88.400390625 755 221.849609375 821 349.349609375 821 c 0
 476.849609375 821 578 733 595 565 c 1
 512.549804688 552 l 1
 498.950195312 674 434.349609375 731 349.349609375 731 c 0
 240.549804688 731 172.549804688 676 172.549804688 588 c 0
 172.549804688 504 270.299804688 476 339.150390625 458 c 2
 348.5 455 l 2
 459 422 607.75 384 607.75 221 c 0
 607.75 50 464.950195312 -19 339.150390625 -19 c 0xd8
EndSplineSet
EndChar

StartChar: T
Encoding: 84 84 53
Width: 563
GlyphClass: 2
Flags: HMW
HStem: 0 21G<241.4 325.55 241.4 241.4> 710 90
VStem: 221 85
LayerCount: 2
Fore
SplineSet
538.049804688 799 m 1
 538.049804688 710 l 1
 325.549804688 710 l 1
 325.549804688 0 l 1
 241.400390625 0 l 1
 241.400390625 710 l 1
 25.5 710 l 1
 25.5 799 l 1
 538.049804688 799 l 1
EndSplineSet
EndChar

StartChar: U
Encoding: 85 85 54
Width: 680
GlyphClass: 2
Flags: HMW
HStem: -20 90 780 20G<76.5 160.65 160.65 160.65 519.35 603.5 603.5 603.5>
VStem: 76.5 85 518.5 85
LayerCount: 2
Fore
SplineSet
337.450195312 -21 m 0
 176.799804688 -21 76.5 87 76.5 255 c 2
 76.5 800 l 1
 160.650390625 800 l 1
 160.650390625 255 l 2
 160.650390625 137 226.099609375 69 337.450195312 69 c 0
 453.900390625 69 519.349609375 129 519.349609375 262 c 2
 519.349609375 800 l 1
 603.5 800 l 1
 603.5 262 l 2
 603.5 74 503.200195312 -21 337.450195312 -21 c 0
EndSplineSet
EndChar

StartChar: V
Encoding: 86 86 55
Width: 664
GlyphClass: 2
Flags: HMW
HStem: 0 21G<289 374 289 289>
LayerCount: 2
Fore
SplineSet
639.200195312 784 m 1
 374 0 l 1
 289 0 l 1
 25.5 784 l 1
 102 819 l 1
 331.5 116 l 1
 561.849609375 819 l 1
 639.200195312 784 l 1
EndSplineSet
EndChar

StartChar: W
Encoding: 87 87 56
Width: 876
GlyphClass: 2
Flags: HMW
HStem: 0 21G<212.5 296.65 212.5 212.5 587.35 672.35 587.35 587.35> 779 20G<397.8 487.05 487.05 487.05>
LayerCount: 2
Fore
SplineSet
672.349609375 0 m 1
 587.349609375 0 l 1
 442.849609375 640 l 1
 296.650390625 0 l 1
 212.5 0 l 1
 25.5 790 l 1
 106.25 814 l 1
 255 168 l 1
 397.799804688 799 l 1
 487.049804688 799 l 1
 629 173 l 1
 768.400390625 814 l 1
 850.849609375 790 l 1
 672.349609375 0 l 1
EndSplineSet
EndChar

StartChar: X
Encoding: 88 88 57
Width: 662
GlyphClass: 2
Flags: HMW
HStem: 0 21G 780 20G
LayerCount: 2
Fore
SplineSet
636.650390625 35 m 1
 572.049804688 -23 l 1
 330.650390625 337 l 1
 254.150390625 221 165.75 90 90.099609375 -24 c 1
 25.5 35 l 1
 277.950195312 412 l 1
 46.75 764 l 1
 111.349609375 823 l 1
 330.650390625 489 l 1
 550.799804688 823 l 1
 614.549804688 764 l 1
 382.5 413 l 1
 463.25 291 555.900390625 156 636.650390625 35 c 1
EndSplineSet
EndChar

StartChar: Y
Encoding: 89 89 58
Width: 660
GlyphClass: 2
Flags: HMW
HStem: 0 21G<288.15 372.3 288.15 288.15>
VStem: 288.15 84.15<0 357 0 357>
LayerCount: 2
Fore
SplineSet
372.299804688 357 m 1
 372.299804688 0 l 1
 288.150390625 0 l 1
 288.150390625 357 l 1
 25.5 763 l 1
 89.25 822 l 1
 329.799804688 445 l 1
 571.200195312 822 l 1
 634.950195312 763 l 1
 372.299804688 357 l 1
EndSplineSet
EndChar

StartChar: Z
Encoding: 90 90 59
Width: 614
GlyphClass: 2
Flags: HMW
HStem: 0 100 710 90<67.15 453.05 67.15 563.55>
LayerCount: 2
Fore
SplineSet
563.549804688 90 m 1
 563.549804688 0 l 1
 51 0 l 1
 51 86 l 1
 453.049804688 710 l 1
 67.150390625 710 l 1
 67.150390625 800 l 1
 563.549804688 800 l 1
 563.549804688 715 l 1
 160.650390625 90 l 1
 563.549804688 90 l 1
EndSplineSet
EndChar

StartChar: bracketleft
Encoding: 91 91 60
Width: 287
GlyphClass: 2
Flags: HMW
HStem: -120 70 770 70
VStem: 76.5 68 76.5 170
LayerCount: 2
Fore
SplineSet
253.299804688 -36 m 1xd0
 253.299804688 -116 l 1
 76.5 -116 l 1
 76.5 838 l 1
 253.299804688 838 l 1
 253.299804688 759 l 1
 160.650390625 759 l 1
 160.650390625 -36 l 1
 253.299804688 -36 l 1xd0
EndSplineSet
EndChar

StartChar: backslash
Encoding: 92 92 61
Width: 413
GlyphClass: 2
Flags: HMW
HStem: 820 20G
VStem: 34 314.5
LayerCount: 2
Fore
SplineSet
379.099609375 10 m 1
 302.599609375 -26 l 1
 34 775 l 1
 110.5 810 l 1
 379.099609375 10 l 1
EndSplineSet
EndChar

StartChar: bracketright
Encoding: 93 93 62
Width: 287
GlyphClass: 2
Flags: HMW
HStem: -120 70 770 70
VStem: 34 170 136 68
LayerCount: 2
Fore
SplineSet
34 760 m 1xe0
 34 840 l 1
 210.799804688 840 l 1
 210.799804688 -114 l 1
 34 -114 l 1
 34 -35 l 1
 126.650390625 -35 l 1
 126.650390625 760 l 1
 34 760 l 1xe0
EndSplineSet
EndChar

StartChar: asciicircum
Encoding: 94 94 63
Width: 499
GlyphClass: 2
Flags: HMW
HStem: 560 240
LayerCount: 2
Fore
SplineSet
59.5 490 m 1
 220.150390625 819 l 1
 281.349609375 819 l 1
 440.299804688 490 l 1
 357 455 l 1
 249.900390625 702 l 1
 141.099609375 453 l 1
 59.5 490 l 1
EndSplineSet
EndChar

StartChar: underscore
Encoding: 95 95 64
Width: 328
GlyphClass: 2
Flags: HMW
HStem: -70 70
LayerCount: 2
Fore
SplineSet
328.950195312 25 m 1
 328.950195312 -47 l 1
 0 -47 l 1
 0 25 l 1
 328.950195312 25 l 1
EndSplineSet
EndChar

StartChar: grave
Encoding: 96 96 65
Width: 340
GlyphClass: 2
Flags: HMW
HStem: 660 140
VStem: 51 255
LayerCount: 2
Fore
SplineSet
175.950195312 800 m 1
 281.349609375 619 l 1
 195.5 619 l 1
 59.5 800 l 1
 175.950195312 800 l 1
EndSplineSet
EndChar

StartChar: a
Encoding: 97 97 66
Width: 579
GlyphClass: 2
Flags: HMW
HStem: -12 86 296 93 534 86
VStem: 68 80.75<145.501 208.501 145.501 245.001> 402.9 80.75<255.001 296.001 296.001 296.001 389.001 401.001>
LayerCount: 2
Fore
SplineSet
262.650390625 -12 m 0
 131.75 -12 68 48.0009765625 68 171.000976562 c 0
 68 319.000976562 222.435546875 362.000976562 306 362.000976562 c 0
 308.549804688 362.000976562 312.733398438 362.396484375 316.200195312 363.000976562 c 0
 339.150390625 367.000976562 392.700195312 377.000976562 402.900390625 389.000976562 c 1
 402.900390625 401.000976562 l 2
 402.900390625 484.000976562 355.299804688 534.000976562 277.950195312 534.000976562 c 0
 202.299804688 534.000976562 150.450195312 476.000976562 148.75 380.000976562 c 1
 68 386.000976562 l 1
 75.650390625 537.000976562 154.700195312 620.000976562 277.950195312 620.000976562 c 0
 400.349609375 620.000976562 487.049804688 533.000976562 483.650390625 401.000976562 c 1
 483.650390625 119.000976562 l 2
 483.650390625 102.797851562 520.200195312 70.3916015625 545.700195312 58.0009765625 c 1
 521.900390625 -17.9990234375 l 1
 491.299804688 -7.4892578125 439.450195312 37.1123046875 416.5 85 c 1
 377.400390625 35.4453125 323 -12 262.650390625 -12 c 0
262.650390625 74.0009765625 m 0
 370.599609375 74.0009765625 402.900390625 189.000976562 402.900390625 255.000976562 c 2
 402.900390625 296.000976562 l 1
 374 286.000976562 347.444335938 282.6953125 318.75 277.000976562 c 0
 248.200195312 263.000976562 148.75 246.000976562 148.75 171.000976562 c 0
 148.75 120.000976562 162.349609375 74.0009765625 262.650390625 74.0009765625 c 0
EndSplineSet
EndChar

StartChar: b
Encoding: 98 98 67
Width: 610
GlyphClass: 2
Flags: HMW
HStem: -9 86<289.845 365.923 262.648 393.727> 0 21G<93.4992 170.849 93.4992 93.4992> 537 85<293.349 366.348>
VStem: 93.5 81.6 453.05 80.75
LayerCount: 2
Fore
SplineSet
318.75 -9 m 0xb8
 260.940429688 -9 215.391601562 29.3076171875 175.099609375 74 c 1
 170.849609375 0 l 1
 93.4990234375 0 l 1x78
 93.4990234375 824 l 1
 175.099609375 824 l 1
 175.099609375 538 l 1
 213.639648438 585.25 267.946289062 622 318.75 622 c 0
 468.703125 622 533.799804688 477 533.799804688 307 c 0
 533.799804688 136 468.703125 -9 318.75 -9 c 0xb8
314.498046875 537 m 0
 210.798828125 537 175.948242188 426 175.948242188 307 c 0
 175.948242188 183 210.798828125 77 314.498046875 77 c 0xb8
 417.348632812 77 453.048828125 183 453.048828125 307 c 0
 453.048828125 431 418.198242188 537 314.498046875 537 c 0
EndSplineSet
EndChar

StartChar: c
Encoding: 99 99 68
Width: 569
GlyphClass: 2
Flags: HMW
HStem: -20 90 535 85
VStem: 76.5 85 416.5 85
LayerCount: 2
Fore
SplineSet
307.700195312 -10 m 0
 147.900390625 -10 68 131 68 306 c 0
 68 479 148.75 621 306.849609375 621 c 0
 394.400390625 621 464.099609375 575 510 489 c 1
 443.700195312 440 l 1
 409.700195312 503 363.799804688 536 306.849609375 536 c 0
 198.049804688 536 149.599609375 432 149.599609375 306 c 0
 149.599609375 177 198.049804688 76 307.700195312 76 c 0
 364.650390625 76 409.700195312 108 443.700195312 172 c 1
 510 122 l 1
 464.099609375 36 394.400390625 -10 307.700195312 -10 c 0
EndSplineSet
EndChar

StartChar: d
Encoding: 100 100 69
Width: 609
GlyphClass: 2
Flags: HMW
HStem: -9 86<243.525 317.41> 0 21G<439.45 515.95 439.45 439.45> 537 85<243.525 318.287 215.73 346.8>
VStem: 76.5 79.9<245 369 245 392> 435.2 80.75<79 79 538 825 0 825>
LayerCount: 2
Fore
SplineSet
290.700195312 -9 m 0xb8
 140.759765625 -9 76.5 136 76.5 307 c 0
 76.5 477 140.759765625 622 290.700195312 622 c 0
 345.873046875 622 395.791015625 593.125 435.200195312 538 c 1
 435.200195312 825 l 1
 515.950195312 825 l 1
 515.950195312 0 l 1
 439.450195312 0 l 1x78
 435.200195312 79 l 1
 396.666992188 32.412109375 344.12109375 -9 290.700195312 -9 c 0xb8
294.950195312 537 m 0
 192.099609375 537 156.400390625 431 156.400390625 307 c 0
 156.400390625 183 192.099609375 77 294.950195312 77 c 0xb8
 398.650390625 77 433.5 183 433.5 307 c 0
 433.5 426 398.650390625 537 294.950195312 537 c 0
EndSplineSet
EndChar

StartChar: e
Encoding: 101 101 70
Width: 621
GlyphClass: 2
Flags: HMW
HStem: -20 90 290 70 535 85
VStem: 76.5 85 433.5 85
LayerCount: 2
Fore
SplineSet
319.599609375 -11 m 0
 145.349609375 -9 76.5 113 76.5 305 c 0
 76.5 481 158.950195312 621 319.599609375 621 c 0
 453.049804688 621 537.200195312 532 553.349609375 377 c 1
 553.349609375 262 l 1
 159.799804688 262 l 1
 166.599609375 144 212.5 74 319.599609375 74 c 0
 395.25 74 444.549804688 113 471.75 210 c 1
 547.400390625 182 l 1
 514.25 53 437.75 -11 319.599609375 -11 c 0
159.799804688 348 m 1
 472.599609375 348 l 1
 472.599609375 369 l 1
 459.849609375 470 407.150390625 536 319.599609375 536 c 0
 224.400390625 536 169.150390625 458 159.799804688 348 c 1
EndSplineSet
EndChar

StartChar: f
Encoding: 102 102 71
Width: 326
GlyphClass: 2
Flags: HMW
HStem: 0 21G<130.05 211.65 130.05 130.05> 522 87<59.5 130.05 59.5 130.05 211.65 293.25> 749 83<309.4 309.4>
VStem: 130.05 81.6<0 522 0 522 609 698>
LayerCount: 2
Fore
SplineSet
293.25 609 m 1
 293.25 522 l 1
 211.650390625 522 l 1
 211.650390625 0 l 1
 130.049804688 0 l 1
 130.049804688 522 l 1
 59.5 522 l 1
 59.5 609 l 1
 130.049804688 609 l 1
 130.049804688 698 l 2
 130.049804688 744 140.25 778 161.5 802 c 0
 199.430664062 844.971679688 248.200195312 836 309.400390625 832 c 1
 309.400390625 749 l 1
 277.950195312 755 232.624023438 757.67578125 218.450195312 741 c 0
 213.349609375 735 211.650390625 720 211.650390625 698 c 2
 211.650390625 609 l 1
 293.25 609 l 1
EndSplineSet
EndChar

StartChar: g
Encoding: 103 103 72
Width: 600
GlyphClass: 2
Flags: HMW
HStem: -238 85<258.825 336.6 258.825 360.825> -11 85 534 86<243.525 321.79 215.314 346.375>
VStem: 76.5 79.9<241.5 366 241.5 390> 435.2 80.75<-13 73 73 73 530 530>
LayerCount: 2
Fore
SplineSet
296.650390625 -238 m 0
 178.5 -238 91.7998046875 -173 77.349609375 -23 c 1
 158.099609375 -16 l 1
 168.299804688 -115 221 -153 296.650390625 -153 c 0
 376.549804688 -153 435.200195312 -102 435.200195312 -13 c 2
 435.200195312 73 l 1
 400.17578125 32.3125 345.888671875 -16.25 289.849609375 -11 c 1
 139.087890625 -15 76.5 136 76.5 304 c 0
 76.5 476 139.92578125 620 290.700195312 620 c 0
 352.87890625 620 400.169921875 576.286132812 435.200195312 530 c 1
 439.450195312 602 l 1
 515.950195312 602 l 1
 515.950195312 -15 l 1
 510 -159 425 -238 296.650390625 -238 c 0
294.950195312 534 m 0
 192.099609375 534 156.400390625 428 156.400390625 304 c 0
 156.400390625 179 192.099609375 74 294.950195312 74 c 0
 402.049804688 74 433.5 194 433.5 304 c 0
 433.5 424 397.799804688 534 294.950195312 534 c 0
EndSplineSet
EndChar

StartChar: h
Encoding: 104 104 73
Width: 575
GlyphClass: 2
Flags: HMW
HStem: 0 21G<93.5 174.25 93.5 93.5 417.35 417.35 417.35 498.95> 537 86<277.13 335.75>
VStem: 93.5 80.75<0 362 540 825> 417.35 81.6<0 405 0 449>
LayerCount: 2
Fore
SplineSet
297.5 537 m 0
 216.75 537 174.25 449 174.25 362 c 2
 174.25 0 l 1
 93.5 0 l 1
 93.5 825 l 1
 174.25 825 l 1
 174.25 540 l 1
 207.6640625 580.840820312 252.508789062 623 301.75 623 c 0
 420.646484375 623 498.950195312 545 498.950195312 405 c 2
 498.950195312 0 l 1
 417.349609375 0 l 1
 417.349609375 405 l 2
 417.349609375 493 374 537 297.5 537 c 0
EndSplineSet
EndChar

StartChar: i
Encoding: 105 105 74
Width: 283
GlyphClass: 2
Flags: HMW
HStem: 0 21G<102 181.9 102 102> 580 20G 710 140
VStem: 93.5 119 110.5 85
LayerCount: 2
Fore
SplineSet
181.900390625 0 m 1xe0
 102 0 l 1
 102 605 l 1
 181.900390625 605 l 1
 181.900390625 0 l 1xe0
181.900390625 681 m 1
 102 681 l 1
 102 821 l 1
 181.900390625 821 l 1
 181.900390625 681 l 1
EndSplineSet
EndChar

StartChar: j
Encoding: 106 106 75
Width: 298
GlyphClass: 2
Flags: HMW
HStem: -250 75 580 20G 710 140
VStem: 93.5 119 110.5 80.75
LayerCount: 2
Fore
SplineSet
114.75 -87 m 2xe0
 114.75 606 l 1
 196.349609375 606 l 1
 196.349609375 -87 l 2
 196.349609375 -166 155.549804688 -223 82.4501953125 -223 c 0
 62.0498046875 -223 40.7998046875 -222 17 -221 c 1
 17 -139 l 1
 74.7998046875 -140 l 2
 106.25 -140 113.900390625 -125 114.75 -87 c 2xe0
195.5 821 m 1
 195.5 681 l 1
 114.75 681 l 1
 114.75 821 l 1
 195.5 821 l 1
EndSplineSet
EndChar

StartChar: k
Encoding: 107 107 76
Width: 532
GlyphClass: 2
Flags: HMW
HStem: 0 21G<93.5 175.1 93.5 93.5> 280 90 580 20G 820 20G
VStem: 93.5 85
LayerCount: 2
Fore
SplineSet
507.450195312 36 m 1
 448.799804688 -24 l 1
 229.5 269 l 1
 175.099609375 208 l 1
 175.099609375 0 l 1
 93.5 0 l 1
 93.5 825 l 1
 175.099609375 825 l 1
 175.099609375 333 l 1
 258.400390625 427 352.75 532 432.650390625 623 c 1
 486.200195312 559 l 1
 285.599609375 333 l 1
 356.150390625 237 437.75 130 507.450195312 36 c 1
EndSplineSet
EndChar

StartChar: l
Encoding: 108 108 77
Width: 301
GlyphClass: 2
Flags: HMW
HStem: -10 80 820 20G
VStem: 110.5 85
LayerCount: 2
Fore
SplineSet
191.25 828 m 1
 191.25 0 l 1
 110.5 0 l 1
 110.5 828 l 1
 191.25 828 l 1
EndSplineSet
EndChar

StartChar: m
Encoding: 109 109 78
Width: 820
GlyphClass: 2
Flags: HMW
HStem: 0 21G<85 166.6 85 85 368.05 449.65 368.05 368.05 663.85 743.75 663.85 663.85> 537 86<269.456 312.375 534.195 589.475>
VStem: 85 81.6<0 364> 368.05 81.6<0 364 0 447 0 477> 663.85 79.9<0 404 0 442>
LayerCount: 2
Fore
SplineSet
743.75 404 m 2
 743.75 0 l 1
 663.849609375 0 l 1
 663.849609375 404 l 2
 663.849609375 480 625.599609375 537 553.349609375 537 c 0
 483.650390625 537 449.650390625 446 449.650390625 364 c 2
 449.650390625 0 l 1
 368.049804688 0 l 1
 368.049804688 447 l 2
 368.049804688 507 339.150390625 537 285.599609375 537 c 0
 207.400390625 537 166.599609375 448 166.599609375 364 c 2
 166.599609375 0 l 1
 85 0 l 1
 85 601 l 1
 162.349609375 601 l 1
 166.599609375 539 l 1
 200.885742188 582.3125 243.961914062 623 294.950195312 623 c 0
 351.609375 623 399.484375 581 425 518 c 1
 459.206054688 574.823242188 505.690429688 623 562.700195312 623 c 0
 673.059570312 623 743.75 528 743.75 404 c 2
EndSplineSet
EndChar

StartChar: n
Encoding: 110 110 79
Width: 566
GlyphClass: 2
Flags: HMW
HStem: 0 21G<85 164.9 85 85 408 408 408 489.6> 537 81<271.616 327.25>
VStem: 85 79.9<0 362> 408 81.6<0 405 0 449>
LayerCount: 2
Fore
SplineSet
289 537 m 0
 207.400390625 537 164.900390625 449 164.900390625 362 c 2
 164.900390625 0 l 1
 85 0 l 1
 85 600 l 1
 160.650390625 600 l 1
 164.900390625 530 l 1
 200.3203125 573.301757812 245.731445312 618 297.5 618 c 0
 408.65625 618 489.599609375 541.7890625 489.599609375 405 c 2
 489.599609375 0 l 1
 408 0 l 1
 408 405 l 2
 408 493 365.5 537 289 537 c 0
EndSplineSet
EndChar

StartChar: o
Encoding: 111 111 80
Width: 596
GlyphClass: 2
Flags: HMW
HStem: -20 90 535 85<297.5 297.5>
VStem: 68 85 425 85
LayerCount: 2
Fore
SplineSet
299.200195312 -12 m 0
 139.400390625 -13 59.5 129 59.5 304 c 0
 59.5 478 138.549804688 620 297.5 620 c 0
 456.450195312 620 537.200195312 482 537.200195312 304 c 0
 537.200195312 129 457.299804688 -14 299.200195312 -12 c 0
297.5 535 m 0
 188.700195312 534 140.25 431 140.25 304 c 0
 140.25 175 189.549804688 74 299.200195312 74 c 0
 409.700195312 74 455.599609375 175 455.599609375 304 c 0
 455.599609375 435 409.700195312 534 297.5 535 c 0
EndSplineSet
EndChar

StartChar: p
Encoding: 112 112 81
Width: 600
GlyphClass: 2
Flags: HMW
HStem: -22 85<282.663 357.425 254.15 385.22> 523 86<283.54 357.425> 579 21G
VStem: 85 80.75<-225 62> 444.55 79.9<231 355>
LayerCount: 2
Fore
SplineSet
310.25 609 m 0x00
 460.190429688 609 524.450195312 464 524.450195312 293 c 0
 524.450195312 123 460.190429688 -22 310.25 -22 c 0
 255.077148438 -22 205.159179688 6.875 165.75 62 c 1
 165.75 -225 l 1
 85 -225 l 1
 85 600 l 1
 161.5 600 l 1
 165.75 521 l 1
 204.283203125 567.587890625 256.829101562 609 310.25 609 c 0x00
306 63 m 0
 408.849609375 63 444.549804688 169 444.549804688 293 c 0
 444.549804688 417 408.849609375 523 306 523 c 0
 202.299804688 523 167.450195312 417 167.450195312 293 c 0
 167.450195312 174 202.299804688 63 306 63 c 0
EndSplineSet
EndChar

StartChar: q
Encoding: 113 113 82
Width: 601
GlyphClass: 2
Flags: HMW
HStem: -22 85<243.95 316.951> 523 86<244.375 320.455 216.573 347.65> 579 21G
VStem: 76.5 80.75<231 355 231 378.5> 435.2 81.6<-224 62 62 62 526 526>
LayerCount: 2
Fore
SplineSet
291.549804688 609 m 0x00
 349.360351562 609 394.908203125 570.692382812 435.200195312 526 c 1
 439.450195312 600 l 1
 516.799804688 600 l 1
 516.799804688 -224 l 1
 435.200195312 -224 l 1
 435.200195312 62 l 1
 396.659179688 14.75 342.353515625 -22 291.549804688 -22 c 0
 141.59765625 -22 76.5 123 76.5 293 c 0
 76.5 464 141.59765625 609 291.549804688 609 c 0x00
295.799804688 63 m 0
 399.5 63 434.349609375 174 434.349609375 293 c 0
 434.349609375 417 399.5 523 295.799804688 523 c 0
 192.950195312 523 157.25 417 157.25 293 c 0
 157.25 169 192.099609375 63 295.799804688 63 c 0
EndSplineSet
EndChar

StartChar: r
Encoding: 114 114 83
Width: 389
GlyphClass: 2
Flags: HMW
HStem: 0 21G<102 182.75 102 102> 525 87<275.822 299.625>
VStem: 102 80.75<0 340>
LayerCount: 2
Fore
SplineSet
182.75 340 m 2
 182.75 0 l 1
 102 0 l 1
 102 601 l 1
 178.5 601 l 1
 182.75 531 l 1
 214.200195312 565.397460938 247.34375 612 304.299804688 612 c 0
 320.450195312 612 336.599609375 611 355.299804688 610 c 1
 351.049804688 521 l 1
 332.349609375 522 302.599609375 525 296.650390625 525 c 0
 211.650390625 525 182.75 430 182.75 340 c 2
EndSplineSet
EndChar

StartChar: s
Encoding: 115 115 84
Width: 557
GlyphClass: 2
Flags: HMW
HStem: -20 85 535 85
VStem: 68 85 85 89.25 391 85
LayerCount: 2
Fore
SplineSet
278.799804688 -9 m 0xd8
 163.200195312 -8 84.150390625 69 68 201 c 1xe8
 147.900390625 214 l 1
 159.799804688 120 211.650390625 76 279.650390625 76 c 0
 347.650390625 76 408 106 408 172 c 0
 408 232 340 252 289.849609375 267 c 1
 291.549804688 266 l 2
 286.450195312 267 285.599609375 269 279.650390625 270 c 0
 195.5 294 83.2998046875 327 83.2998046875 446 c 0
 83.2998046875 574 186.150390625 622 287.299804688 622 c 0
 393.549804688 622 466.650390625 549 480.25 426 c 1
 400.349609375 414 l 1
 390.150390625 498 346.799804688 537 287.299804688 537 c 0
 228.650390625 537 164.049804688 516 164.049804688 446 c 0
 164.049804688 396 212.5 378 293.25 355 c 0
 376.549804688 328 489.599609375 295 489.599609375 172 c 0
 489.599609375 49 377.400390625 -12 278.799804688 -9 c 0xd8
EndSplineSet
EndChar

StartChar: t
Encoding: 116 116 85
Width: 376
GlyphClass: 2
Flags: HMW
HStem: 0 83<232.9 317.05> 538 87<59.5 137.7 59.5 137.7 218.45 292.4>
VStem: 137.7 80.75<135 538 625 824>
LayerCount: 2
Fore
SplineSet
292.400390625 625 m 1
 292.400390625 538 l 1
 218.450195312 538 l 1
 218.450195312 135 l 2
 218.450195312 102 228.650390625 83 282.200195312 83 c 2
 317.049804688 83 l 1
 317.049804688 1 l 1
 309.400390625 1 281.349609375 0 274.549804688 0 c 0
 191.25 0 145.349609375 19 137.700195312 135 c 1
 137.700195312 538 l 1
 59.5 538 l 1
 59.5 625 l 1
 137.700195312 625 l 1
 137.700195312 824 l 1
 218.450195312 824 l 1
 218.450195312 625 l 1
 292.400390625 625 l 1
EndSplineSet
EndChar

StartChar: u
Encoding: 117 117 86
Width: 566
GlyphClass: 2
Flags: HMW
HStem: -18 81<238.85 294.484> 579 21G
VStem: 76.5 81.6<195 600> 401.2 79.9<70 70 238 600 0 600>
LayerCount: 2
Fore
SplineSet
277.099609375 63 m 0
 358.700195312 63 401.200195312 151 401.200195312 238 c 2
 401.200195312 600 l 1
 481.099609375 600 l 1
 481.099609375 0 l 1
 405.450195312 0 l 1
 401.200195312 70 l 1
 365.779296875 26.6982421875 320.369140625 -18 268.599609375 -18 c 0
 157.444335938 -18 76.5 58.2109375 76.5 195 c 2
 76.5 600 l 1
 158.099609375 600 l 1
 158.099609375 195 l 2
 158.099609375 107 200.599609375 63 277.099609375 63 c 0
EndSplineSet
EndChar

StartChar: v
Encoding: 118 118 87
Width: 528
GlyphClass: 2
Flags: HMW
HStem: 0 21G<225.25 302.6 225.25 225.25> 580 20G
LayerCount: 2
Fore
SplineSet
302.599609375 0 m 1
 225.25 0 l 1
 25.5 588 l 1
 100.299804688 622 l 1
 264.349609375 110 l 1
 429.25 622 l 1
 503.200195312 588 l 1
 302.599609375 0 l 1
EndSplineSet
EndChar

StartChar: w
Encoding: 119 119 88
Width: 704
GlyphClass: 2
Flags: HMW
HStem: 0 21G<176.8 254.15 176.8 176.8 457.3 534.65 457.3 457.3> 596 20G<110.5 110.5 593.3 593.3>
LayerCount: 2
Fore
SplineSet
534.650390625 0 m 1
 457.299804688 0 l 1
 355.299804688 448 l 1
 254.150390625 0 l 1
 176.799804688 0 l 1
 34 592 l 1
 110.5 616 l 1
 215.049804688 152 l 1
 315.349609375 600 l 1
 396.950195312 600 l 1
 494.700195312 152 l 1
 593.299804688 616 l 1
 670.650390625 593 l 1
 534.650390625 0 l 1
EndSplineSet
EndChar

StartChar: x
Encoding: 120 120 89
Width: 525
GlyphClass: 2
Flags: HMW
HStem: 607 20G<103.7 103.7 421.6 421.6>
LayerCount: 2
Fore
SplineSet
499.799804688 33 m 1
 437.75 -23 l 1
 262.650390625 249 l 1
 87.5498046875 -23 l 1
 25.5 33 l 1
 212.5 312 l 1
 41.650390625 571 l 1
 103.700195312 627 l 1
 262.650390625 376 l 1
 421.599609375 627 l 1
 484.5 571 l 1
 312.799804688 312 l 1
 499.799804688 33 l 1
EndSplineSet
EndChar

StartChar: y
Encoding: 121 121 90
Width: 538
GlyphClass: 2
Flags: HMW
HStem: -222 87<120.7 142.8 120.7 159.375> 603 20G<107.95 107.95 430.95 430.95>
LayerCount: 2
Fore
SplineSet
65.4501953125 -218 m 1
 65.4501953125 -132 l 1
 80.75 -133 114.75 -135 126.650390625 -135 c 0
 158.950195312 -135 178.5 -123 194.650390625 -76 c 0
 205.700195312 -42 216.75 -13 227.799804688 22 c 1
 34 588 l 1
 107.950195312 623 l 1
 270.299804688 138 l 1
 430.950195312 623 l 1
 504.900390625 588 l 1
 269.450195312 -110 l 2
 238.849609375 -199 191.25 -222 127.5 -222 c 0
 109.650390625 -222 89.25 -220 65.4501953125 -218 c 1
EndSplineSet
EndChar

StartChar: z
Encoding: 122 122 91
Width: 492
GlyphClass: 2
Flags: HMW
HStem: 0 100 510 90
LayerCount: 2
Fore
SplineSet
441.150390625 86 m 1
 441.150390625 0 l 1
 51 0 l 1
 51 72 l 1
 342.549804688 524 l 1
 51 524 l 1
 51 611 l 1
 441.150390625 611 l 1
 441.150390625 538 l 1
 149.599609375 86 l 1
 441.150390625 86 l 1
EndSplineSet
EndChar

StartChar: braceleft
Encoding: 123 123 92
Width: 410
GlyphClass: 2
Flags: HMW
HStem: -125 91<319.6 342.55> 328 64<68 68> 754 90<317.9 342.55>
VStem: 145.35 85.85<10.5 37 10.5 110>
LayerCount: 2
Fore
SplineSet
342.549804688 -34 m 1
 342.549804688 -125 l 1
 241.400390625 -122 145.349609375 -68 145.349609375 69 c 0
 145.349609375 151 176.799804688 326 68 328 c 1
 68 392 l 1
 175.950195312 396 145.349609375 561 145.349609375 651 c 0
 145.349609375 786 229.5 839 342.549804688 844 c 1
 342.549804688 754 l 1
 293.25 754 230.0625 733.983398438 231.200195312 680 c 0
 235.772460938 463 220.912109375 401 164.900390625 360 c 1
 274.637695312 277 219.768554688 149 231.200195312 37 c 1
 231.200195312 -16 296.650390625 -34 342.549804688 -34 c 1
EndSplineSet
EndChar

StartChar: bar
Encoding: 124 124 93
Width: 294
GlyphClass: 2
Flags: HMW
HStem: 780 20G<106.25 187.85 187.85 187.85>
VStem: 106.25 68
LayerCount: 2
Fore
SplineSet
187.849609375 800 m 1
 187.849609375 -115 l 1
 106.25 -115 l 1
 106.25 800 l 1
 187.849609375 800 l 1
EndSplineSet
EndChar

StartChar: braceright
Encoding: 125 125 94
Width: 331
GlyphClass: 2
Flags: HMW
HStem: -124 90<-11.05 13.6> 328 64<263.5 263.5> 754 91<-11.05 11.9>
VStem: 100.3 85.85<683 709.5>
LayerCount: 2
Fore
SplineSet
-11.0498046875 754 m 1
 -11.0498046875 845 l 1
 90.099609375 842 186.150390625 788 186.150390625 651 c 0
 186.150390625 569 154.700195312 394 263.5 392 c 1
 263.5 328 l 1
 155.549804688 324 186.150390625 159 186.150390625 69 c 0
 186.150390625 -66 102 -119 -11.0498046875 -124 c 1
 -11.0498046875 -34 l 1
 38.25 -34 101.4375 -13.9833984375 100.299804688 40 c 0
 95.7275390625 257 110.587890625 319 166.599609375 360 c 1
 56.8623046875 443 111.731445312 571 100.299804688 683 c 1
 100.299804688 736 34.849609375 754 -11.0498046875 754 c 1
EndSplineSet
EndChar

StartChar: asciitilde
Encoding: 126 126 95
Width: 515
GlyphClass: 2
Flags: HMW
HStem: 240 70 330 70
VStem: 68 42.5 433.5 42.5
LayerCount: 2
Fore
SplineSet
178.5 418 m 0
 237.150390625 418 292.400390625 369 334.049804688 369 c 0
 345.099609375 369 365.5 379 380.799804688 421 c 1
 447.099609375 391 l 1
 424.150390625 323 389.299804688 287 343.400390625 284 c 0
 281.349609375 280 230.349609375 331 179.349609375 331 c 0
 167.450195312 331 146.200195312 321 135.150390625 277 c 1
 68 308 l 1
 90.099609375 379 124.950195312 418 178.5 418 c 0
EndSplineSet
EndChar

StartChar: uni0E01
Encoding: 3585 3585 97
Width: 684
GlyphClass: 2
Flags: MW
HStem: 0 21G<112 215 112 112 490 594 490 490> 555 67
VStem: 112 103<0 264 264 280 0 309> 490 104<0 415 415 426 0 426.5>
AnchorPoint: "Anchor-0" 590 660 basechar 0
LayerCount: 2
Fore
SplineSet
215 403 m 1
 70 422 l 1
 70 422 101 622 339 622 c 0
 570 622 594 453 594 426 c 2
 594 0 l 1
 490 0 l 1
 490 415 l 2
 490 438 480 545 341 545 c 0
 238 545 189 484.907226562 185 458 c 1
 292 440 l 1
 292 393 l 1
 292 393 215 364 215 280 c 2
 215 0 l 1
 112 0 l 1
 112 264 l 2
 112 354 215 403 215 403 c 1
EndSplineSet
EndChar

StartChar: uni0E02
Encoding: 3586 3586 98
Width: 668
GlyphClass: 2
Flags: MW
HStem: 1 59 320 62<131.999 163.499 131.999 180> 555 58
VStem: 30 60 205 62 251 104 474 104
LayerCount: 2
Fore
SplineSet
474 603 m 1xf6
 577.999023438 603 l 1
 577.999023438 83 l 2
 577.999023438 1 538.999023438 1 457.999023438 1 c 2
 250.999023438 1 l 1
 250.999023438 287 l 2xf6
 250.999023438 294.26171875 279.999023438 360.5234375 327.999023438 464 c 1
 310.25390625 506.1640625 260.755859375 544.737304688 228.999023438 545 c 0
 214.97265625 545.116210938 212.143554688 544.720703125 203.909179688 544 c 1
 241.336914062 524.853515625 267 484.661132812 267 439 c 0xfa
 267 374 213 320 147 320 c 0
 82 320 30 374.9921875 30 441 c 0
 30 538 115 613 222 613 c 0
 315 613 382 545.875976562 409 482 c 1
 396 458 364 354 355 313 c 1
 355 80 l 1
 458 80 l 2
 468 80 474 80 474 103 c 2
 474 603 l 1xf6
146.999023438 382 m 0
 179.999023438 382 204.999023438 407 204.999023438 439 c 0xfa
 204.999023438 471 179.999023438 497 146.999023438 497 c 0
 116.999023438 497 89.9990234375 471 89.9990234375 439 c 0
 89.9990234375 407 116.999023438 382 146.999023438 382 c 0
EndSplineSet
EndChar

StartChar: uni0E03
Encoding: 3587 3587 99
Width: 675
GlyphClass: 2
Flags: MW
HStem: 0 59 285 62<133.5 165 133.5 182> 462 61<144.5 165> 601 20G<154 154>
VStem: 31 61<404 404> 207 61<388 420> 260 104<79 270 270 280.5> 481 104<102 602>
LayerCount: 2
Fore
SplineSet
481 602 m 1xfb
 585 602 l 1
 585 82 l 2
 585 0 545 0 464 0 c 2
 260 0 l 1
 260 270 l 2xfb
 260 291 333.573242188 441.05859375 341 458 c 0
 348.740234375 475.65625 314.33984375 539.77734375 298 550 c 1
 234 518 l 1
 160 553 l 1
 150 546.400390625 132 533.200195312 123 520 c 1
 131 522 140 523 149 523 c 0
 215 523 268 470 268 404 c 0xfd
 268 339 215 285 149 285 c 0
 84 285 32.6240234375 339.020507812 31 404 c 0
 29 484 51 565 154 621 c 1
 232 571 l 1
 255 587 281 606 302 620 c 1
 398 587 421 516 422 472 c 1
 422 472 372 339.469726562 364 296 c 1
 364 79 l 1
 464 79 l 2
 475 79 481 79 481 102 c 2
 481 602 l 1xfb
149 462 m 0
 118 462 92 436 92 404 c 0
 92 372 118 347 149 347 c 0
 181 347 207 372 207 404 c 0xfd
 207 436 181 462 149 462 c 0
EndSplineSet
EndChar

StartChar: uni0E04
Encoding: 3588 3588 100
Width: 702
GlyphClass: 2
Flags: MW
HStem: 0 21G<90 194 90 90 508 612 508 508> 229 62<337.5 369 337.5 386> 406 61<337.5 369> 556 66
VStem: 90 104<0 22 290 413> 411 61<332 364> 508 104<0 413 413 424 0 439.5>
LayerCount: 2
Fore
SplineSet
353 622 m 0
 552 622 612 479 612 424 c 2
 612 0 l 1
 508 0 l 1
 508 413 l 2
 508 466 473 546 353 546 c 0
 235 546 194 466 194 413 c 2
 194 290 l 1
 191 241 l 1
 198.381835938 283.900390625 222.030273438 355.827148438 249 404 c 0
 269 441 308 467 353 467 c 0
 419 467 472 414 472 348 c 0
 472 283 419 229 353 229 c 0
 316 229 283 246 261 274 c 1
 261 274 208 105 194 22 c 1
 194 0 l 1
 90 0 l 1
 90 423 l 2
 90 479 156 622 353 622 c 0
353 406 m 0
 322 406 296 380 296 348 c 0
 296 316 322 291 353 291 c 0
 385 291 411 316 411 348 c 0
 411 380 385 406 353 406 c 0
EndSplineSet
EndChar

StartChar: uni0E05
Encoding: 3589 3589 101
Width: 702
GlyphClass: 2
Flags: MW
HStem: 0 21G<194 194> 229 62 406 61 606 20G
VStem: 90 104<0 0 0 22 277.999 413.999> 411 61<331.999 363.999> 508 104<-0.000976562 413.999 413.999 420.999 -0.000976562 436.499>
LayerCount: 2
Fore
SplineSet
194 0 m 1
 90 -0.0009765625 l 1
 90 418.999023438 l 2
 90 471.999023438 116 596.999023438 280 625.999023438 c 1
 350 570.999023438 l 1
 423 624.999023438 l 1
 591 598.999023438 612 472.999023438 612 420.999023438 c 2
 612 -0.0009765625 l 1
 508 -0.0009765625 l 1
 508 413.999023438 l 2
 508 458.999023438 505 518.999023438 437 543.999023438 c 1
 350 498.999023438 l 1
 265 540.999023438 l 1
 192 516.999023438 194 457.999023438 194 413.999023438 c 2
 194 277.999023438 l 1
 192 242.999023438 l 1
 203.404296875 301.575195312 223.693359375 356.771484375 249 404 c 0
 269 441 308 467 353 467 c 0
 419 467 472 414 472 348 c 0
 472 283 419 229 353 229 c 0
 316 229 283 246 261 274 c 1
 261 274 208 105 194 22 c 1
 194 0 l 1
353 405.999023438 m 0
 322 405.999023438 296 379.999023438 296 347.999023438 c 0
 296 315.999023438 322 290.999023438 353 290.999023438 c 0
 385 290.999023438 411 315.999023438 411 347.999023438 c 0
 411 379.999023438 385 405.999023438 353 405.999023438 c 0
EndSplineSet
EndChar

StartChar: uni0E06
Encoding: 3590 3590 102
Width: 777
GlyphClass: 2
Flags: MW
HStem: -14 54 202 60 285 62 462 61 601 20G<153.999 153.999>
VStem: 31 61 207 61 262 103 584 103
LayerCount: 2
Fore
SplineSet
262 75 m 2xfd80
 261.999023438 192 l 1
 232.7109375 192.814453125 195.903320312 171.6015625 198 126 c 0
 200.172851562 75.16015625 233.759765625 55 261 55 c 0
 262 55 262 63 262 75 c 2xfd80
364.999023438 306 m 1
 364.998046875 258.999023438 l 1
 459.998046875 239.34765625 545.998046875 146.004882812 583.998046875 89.9990234375 c 1
 583.998046875 601.999023438 l 1
 686.998046875 601.999023438 l 1
 686.998046875 69.9990234375 l 2
 686.998046875 10.9990234375 671.998046875 -17.0009765625 562.998046875 -14.0009765625 c 1
 532.998046875 52.712890625 442.998046875 156.595703125 364.998046875 188.999023438 c 1
 364.998046875 57.9990234375 l 2
 364.998046875 6.9990234375 310.998046875 -14.0009765625 259.998046875 -14.0009765625 c 0
 175.998046875 -14.0009765625 139.926757812 48.994140625 134.998046875 117.999023438 c 0
 128.998046875 201.999023438 179.998046875 255.999023438 261.998046875 261.999023438 c 1
 261.998046875 289.999023438 l 2xfd80
 261.998046875 305.999023438 336.69140625 434.932617188 340.998046875 457.999023438 c 0
 344.438476562 477.514648438 314.338867188 539.77734375 297.999023438 550 c 1
 233.999023438 518 l 1
 159.999023438 553 l 1
 149.999023438 546.400390625 131.999023438 533.200195312 122.999023438 520 c 1
 130.999023438 522 139.999023438 523 148.999023438 523 c 0
 214.999023438 523 267.999023438 470 267.999023438 404 c 0xfe80
 267.999023438 339 214.999023438 285 148.999023438 285 c 0
 83.9990234375 285 32.623046875 339.020507812 30.9990234375 404 c 0
 28.9990234375 484 50.9990234375 565 153.999023438 621 c 1
 231.999023438 571 l 1
 254.999023438 587 280.999023438 606 301.999023438 620 c 1
 397.999023438 587 420.999023438 516 421.999023438 472 c 1
 421.999023438 472 372.999023438 347 364.999023438 306 c 1
148.998046875 461.999023438 m 0
 117.998046875 461.999023438 91.998046875 435.999023438 91.998046875 403.999023438 c 0
 91.998046875 371.999023438 117.998046875 346.999023438 148.998046875 346.999023438 c 0
 180.998046875 346.999023438 206.998046875 371.999023438 206.998046875 403.999023438 c 0xfe80
 206.998046875 435.999023438 180.998046875 461.999023438 148.998046875 461.999023438 c 0
EndSplineSet
EndChar

StartChar: uni0E07
Encoding: 3591 3591 103
Width: 548
GlyphClass: 2
Flags: MW
HStem: 0 21G<299 328 299 299> 375 61<313 331.5> 551 61<313 345>
VStem: 210 61<477.5 509 477.5 526> 344 104<75 82 82 376 376 376> 386 62<477.5 493>
LayerCount: 2
Fore
SplineSet
448 493 m 2xf4
 448 82 l 2
 448 0 409 0 328 0 c 2
 299 0 l 1
 299 0 156.501953125 208.989257812 40 348 c 1
 76 419 l 1
 183 299.474609375 344 75 344 75 c 1
 344 376 l 1xf8
 339 375 334 375 329 375 c 0
 263 375 210 428 210 493 c 0
 210 559 263 612 329 612 c 0
 394 612 448 559 448 493 c 2xf4
271 493 m 0
 271 462 297 436 329 436 c 0
 361 436 386 462 386 493 c 0xf4
 386 525 361 551 329 551 c 0
 297 551 271 525 271 493 c 0
EndSplineSet
EndChar

StartChar: uni0E08
Encoding: 3592 3592 104
Width: 618
GlyphClass: 2
Flags: MW
HStem: 1 21G<398 442> 556 66
VStem: 40 74<441 466> 425 103<190 413 413 423>
LayerCount: 2
Fore
SplineSet
398 1 m 1
 316 223 l 1
 279 189 221.728515625 181.525390625 176 208 c 0
 119 241 99.6845703125 314.181640625 132 370 c 0
 165 427 236.77734375 445.604492188 295 413 c 0
 320 399 337.91015625 376.94921875 347 351 c 2
 413.90625 160 l 1
 428 115 l 1
 425 190 l 1
 425 413 l 2
 425 466.997070312 392 546 278 546 c 0
 176 546 124 490.87890625 114 441 c 1
 40 466 l 1
 57.2744140625 533 122.532226562 622 278 622 c 0
 476 622 528 480 528 423 c 2
 528 83 l 2
 528 1 486 1 398 1 c 1
207 261 m 0
 234 245 268.67578125 255.182617188 284 282 c 0
 300 310 292 345 264 361 c 0
 236 377 201.901367188 366.46484375 185 339 c 0
 169 313 179.256835938 277.440429688 207 261 c 0
EndSplineSet
EndChar

StartChar: uni0E09
Encoding: 3593 3593 105
Width: 665
GlyphClass: 2
Flags: MW
HStem: -9 62<481.5 513 481.5 530> 0 21G<184 287 184 184> 158 61<153 171.5> 334 61<153 185> 556 66
VStem: 50 61<260.5 292 260.5 309> 65 76<434 460> 184 104<124 159 159 159> 226 62<260.5 276 124 292> 379 61<110 119 119 119> 480 104<272 411 411 424> 555 61<94 126>
LayerCount: 2
Fore
SplineSet
584 424 m 2x7b60
 584 260 l 2x7b60
 584 251 565 234 543 220 c 1
 586 202 616 160 616 110 c 0
 616 45 563 -9 497 -9 c 0xb850
 432 -9 379 45 379 110 c 2
 379 119 l 1
 295 75 287 0 287 0 c 1
 184 0 l 1
 184 159 l 1x7950
 179 158 174 158 169 158 c 0
 103 158 50 211 50 276 c 0
 50 342 103 395 169 395 c 0
 234 395 288 342 288 276 c 2x7cc0
 288 124 l 1
 304 150.211914062 344.831054688 186.681640625 429 218 c 0
 472 234 480 272 480 272 c 1
 480 411 l 2
 480 465 448 546 326 546 c 0
 219.228515625 546 151.571289062 486.91015625 141 434 c 1
 65 460 l 1
 84 527 166 622 326 622 c 0
 529 622 584 479 584 424 c 2x7b60
497 53 m 0xb850
 529 53 555 78 555 110 c 0
 555 142 529 168 497 168 c 0
 466 168 440 142 440 110 c 0
 440 78 466 53 497 53 c 0xb850
111 276 m 0x3cc0
 111 245 137 219 169 219 c 0
 201 219 226 245 226 276 c 0
 226 308 201 334 169 334 c 0
 137 334 111 308 111 276 c 0x3cc0
EndSplineSet
EndChar

StartChar: uni0E0A
Encoding: 3594 3594 106
Width: 659
GlyphClass: 2
Flags: MW
HStem: 0 59 320 62 555 58
VStem: 30 60 205 62 251 104 464 104
LayerCount: 2
Fore
SplineSet
403 457 m 1xf6
 387.34765625 420.052734375 362.3046875 345.209960938 355 312.999023438 c 1
 355 78.9990234375 l 1
 448 78.9990234375 l 2
 459 78.9990234375 464 78.9990234375 464 101.999023438 c 2
 464 412.999023438 l 2
 464 421.4609375 430.111328125 446.845703125 403 457 c 1xf6
394.000976562 518.999023438 m 1
 496.000976562 555.999023438 537.001953125 689.998046875 537.001953125 689.998046875 c 1
 622.001953125 646.998046875 l 1
 622.001953125 646.998046875 587.01171875 532.998046875 486.001953125 500.998046875 c 1
 510.923828125 487.998046875 568.001953125 458.998046875 568.001953125 428.998046875 c 2
 568.001953125 81.998046875 l 2
 568.001953125 -0.001953125 529.001953125 -0.001953125 448.001953125 -0.001953125 c 2
 251.001953125 -0.001953125 l 1
 251.001953125 286.998046875 l 2xf6
 251.001953125 294.177734375 280.001953125 359.690429688 328.001953125 461.998046875 c 1
 317.60546875 497.916015625 277.727539062 526.491210938 270.001953125 530.998046875 c 0
 256.5859375 538.82421875 230.001953125 545.998046875 220.001953125 544.998046875 c 2
 203.911132812 543.998046875 l 1
 241.147460938 524.483398438 267.000976562 484.66015625 267.000976562 438.999023438 c 0xfa
 267.000976562 373.999023438 213.000976562 319.999023438 147.000976562 319.999023438 c 0
 82.0009765625 319.999023438 30.0009765625 374.991210938 30.0009765625 440.999023438 c 0
 30.0009765625 537.999023438 115.000976562 612.999023438 222.000976562 612.999023438 c 0
 300.000976562 612.999023438 361.000976562 567.999023438 394.000976562 518.999023438 c 1
147.001953125 381.998046875 m 0
 180.001953125 381.998046875 205.001953125 406.998046875 205.001953125 438.998046875 c 0xfa
 205.001953125 470.998046875 180.001953125 496.998046875 147.001953125 496.998046875 c 0
 117.001953125 496.998046875 90.001953125 470.998046875 90.001953125 438.998046875 c 0
 90.001953125 406.998046875 117.001953125 381.998046875 147.001953125 381.998046875 c 0
EndSplineSet
EndChar

StartChar: uni0E0B
Encoding: 3595 3595 107
Width: 663
GlyphClass: 2
Flags: MW
HStem: 0 59 285 62<133.5 165 133.5 182> 462 61<144.5 165> 601 20G<154 154>
VStem: 31 61<404 404> 207 61<388 420> 260 105<79 79 79 270> 472 103<102 414 414 418.167>
LayerCount: 2
Fore
SplineSet
420 449 m 1xfb
 410 425.09375 371 330.424804688 364 296 c 1
 365 79 l 1
 455 79 l 2
 465 79 472 79 472 102 c 2
 472 414 l 2
 472 422.333007812 445 439.833007812 420 449 c 1xfb
411 524 m 1
 507 560 543 690 543 690 c 1
 628 647 l 1
 628 647 587.599609375 533 504 501 c 1
 525.578125 488 575 459 575 429 c 2
 575 82 l 2
 575 0 536 0 456 0 c 2
 260 0 l 1
 260 270 l 2xfb
 260 291 333.573242188 441.057617188 341 458 c 0
 348.740234375 475.65625 314.33984375 539.77734375 298 550 c 1
 234 518 l 1
 160 553 l 1
 150 546.400390625 132 533.200195312 123 520 c 1
 131 522 140 523 149 523 c 0
 215 523 268 470 268 404 c 0xfd
 268 339 215 285 149 285 c 0
 84 285 32.6240234375 339.020507812 31 404 c 0
 29 484 51 565 154 621 c 1
 232 571 l 1
 255 587 281 606 302 620 c 1
 365 598 396 560 411 524 c 1
149 462 m 0
 118 462 92 436 92 404 c 0
 92 372 118 347 149 347 c 0
 181 347 207 372 207 404 c 0xfd
 207 436 181 462 149 462 c 0
EndSplineSet
EndChar

StartChar: uni0E0C
Encoding: 3596 3596 108
Width: 960
GlyphClass: 2
Flags: MW
HStem: -14 54 -12 61<215 247 215 264> 164 61<228.5 247> 189 57.5 555 67
VStem: 112 62<107 122.5 91 264> 112 104<224 224 224 264 224 309> 289 61<91 122.5> 491 104<259.5 439.5 426 426.5> 766 104
LayerCount: 2
Fore
SplineSet
491 75 m 2x89c0
 491 182 l 1
 474 182.771484375 439.993164062 162.67578125 442 119.5 c 0
 444 73.314453125 474.869140625 55 490 55 c 0
 491 55 491 63 491 75 c 2x89c0
289 107 m 0
 289 138 263 164 231 164 c 0
 199 164 174 138 174 107 c 0
 174 75 199 49 231 49 c 0x6dc0
 263 49 289 75 289 107 c 0
595 426 m 2
 595.000976562 256.499023438 l 1
 670.000976562 245.668945312 734.000976562 163.950195312 766.000976562 97 c 1
 766.000976562 602 l 1
 870.000976562 602 l 1
 870.000976562 70 l 2
 870.000976562 11 855.7265625 -17 752.000976562 -14 c 1
 722.895507812 62.1123046875 656.369140625 159.971679688 594.000976562 179 c 1
 594.000976562 58 l 2
 594.000976562 7 540.000976562 -14 489.000976562 -14 c 0
 421.435546875 -14 388.47265625 45.892578125 384.000976562 111.5 c 0
 378.513671875 197.833007812 425.154296875 253.333007812 491 259.5 c 1
 491 415 l 2
 491 438 480 545 341 545 c 0
 238 545 189 484.907226562 185 458 c 1
 292 440 l 1
 292 393 l 1
 292 393 213.5 363.973632812 215 280 c 2
 216 224 l 1x9bc0
 221 225 226 225 231 225 c 0
 297 225 350 172 350 107 c 0
 350 41 297 -12 231 -12 c 0
 166 -12 112 41 112 107 c 2x6dc0
 112 264 l 2x6bc0
 112 354 215 403 215 403 c 1
 70 422 l 1
 70 422 101 622 339 622 c 0
 570 622 595 453 595 426 c 2
EndSplineSet
EndChar

StartChar: uni0E0D
Encoding: 3597 3597 109
Width: 930
GlyphClass: 2
Flags: MW
HStem: -240 64 -73 50<552 580> -12 61<205 237 205 254> 0 67<584 741 584 741> 164 61<218.5 237> 545 77<279.5 400.5>
VStem: 102 62<107 122.5 91 264> 102 103<107 322 280 309> 279 61<91 122.5> 464 50<-135.5 -110.5 -139 -96.5> 480 104<67 67 67 415 415 415> 618 50<-136 -110.5> 756 104<92 602> 785 78<-59 -46>
LayerCount: 2
Fore
SplineSet
785 -46 m 1xccd4
 863 -59 l 1
 848 -176 747 -237 641 -240 c 0
 568 -242 511 -227 482 -183 c 0
 471 -166 464 -146 464 -125 c 0
 464 -68 510 -23 566 -23 c 0
 622 -23 668 -68 668 -125 c 0
 668 -147 661 -168 648 -185 c 1
 727 -179 773 -139 785 -46 c 1xccd4
566 -176 m 0
 594 -176 618 -153 618 -125 c 0
 618 -96 594 -73 566 -73 c 0
 538 -73 514 -96 514 -125 c 0
 514 -153 538 -176 566 -176 c 0
279 107 m 0x2ea8
 279 138 253 164 221 164 c 0
 189 164 164 138 164 107 c 0
 164 75 189 49 221 49 c 0
 253 49 279 75 279 107 c 0x2ea8
584 67 m 1x1da8
 741 67 l 2
 751 67 756 67 756 92 c 2
 756 602 l 1
 860 602 l 1
 860 82 l 2
 860 0 822 0 741 0 c 2
 480 0 l 1
 480 415 l 2
 481 438 470 545 331 545 c 0
 228 545 179 484.907226562 175 458 c 1
 282 440 l 1
 282 393 l 1
 282 393 205 364 205 280 c 2x1da8
 206 224 l 1
 211 225 216 225 221 225 c 0
 287 225 340 172 340 107 c 0
 340 41 287 -12 221 -12 c 0
 156 -12 102 41 102 107 c 2x2ea8
 102 264 l 2
 102 354 205 403 205 403 c 1
 60 422 l 1
 60 422 91 622 329 622 c 0
 560 622 584 453 584 426 c 2
 584 67 l 1x1da8
EndSplineSet
Substitution2: "Single Substitution lookup 4 subtable" uni0E0D.descless
Substitution2: "'ss01' Style Set 1 lookup 2 subtable" uni0E0D.descless
Substitution2: "'salt' Stylistic Alternatives lookup 1 subtable" uni0E0D.descless
Substitution2: "'locl' Localized Forms in Thai lookup 0 subtable" uni0E0D.descless
EndChar

StartChar: uni0E0E
Encoding: 3598 3598 110
Width: 716
GlyphClass: 2
Flags: MW
HStem: -237 57<236.5 259.5 236.5 273.5> -112 57<239.5 258> -12 61<143 175 143 191.5> 164 61<143 161.5 126 175> 555 67
VStem: 40 61<91 122.5 91 139.5> 137 77<-150.5 -132 -150.5 -111.5> 174 104 216 62<107 107 107 122.5> 345 64 522 104<-97 415 415 426 -106 426.5>
LayerCount: 2
Fore
SplineSet
101 107 m 0xfce0
 101 75 127 49 159 49 c 0
 191 49 216 75 216 107 c 0
 216 138 191 164 159 164 c 0
 127 164 101 138 101 107 c 0xfce0
522 -97 m 1
 522 415 l 2
 522 438 512 545 373 545 c 0
 270 545 221 484.907226562 217 458 c 1
 348 440 l 1
 348 393 l 1
 348 393 267.606445312 363.862304688 271 280 c 2
 278 107 l 2xfee0
 280.666015625 41.107421875 224 -12 159 -12 c 0
 93 -12 40 41 40 107 c 0
 40 172 93 225 159 225 c 0
 164 225 169 225 174 224 c 1xfd60
 168 264 l 1
 168 354 271 403 271 403 c 1
 102 422 l 1
 102 422 133 622 371 622 c 0
 602 622 626 453 626 426 c 2
 626 -106 l 1
 486 -234 l 1
 441 -200 406 -182 376 -170 c 1
 341 -210 303 -237 244 -237 c 0
 189 -237 137 -192 137 -142 c 0xfe60
 137 -81 196 -55 251 -55 c 0
 277 -55 304 -60 345 -81 c 1
 352 -63 357 -42 362 -15 c 1
 438 -31 l 1
 430 -61 422 -90 409 -118 c 1
 480 -149 l 1
 522 -97 l 1
244 -180 m 0
 275 -180 296 -158 316 -136 c 1
 288 -122 265 -112 251 -112 c 0
 228 -112 214 -122 214 -142 c 0
 214 -159 229 -180 244 -180 c 0
EndSplineSet
EndChar

StartChar: uni0E0F
Encoding: 3599 3599 111
Width: 716
GlyphClass: 2
Flags: MW
HStem: -237 57<195.5 212 195.5 226.5> -111 57<198.5 213> -12 61<143 175 143 191.5> 164 61<143 161.5 126 175> 555 67
VStem: 40 61<91 122.5 91 139.5> 96 77<-151 -131.5 -151 -111> 174 104 216 62<107 107 107 122.5> 287 76<-28 -16> 522 104<-109 415 415 426 -118 426.5>
LayerCount: 2
Fore
SplineSet
101 107 m 0xfce0
 101 75 127 49 159 49 c 0
 191 49 216 75 216 107 c 0
 216 138 191 164 159 164 c 0
 127 164 101 138 101 107 c 0xfce0
522 -109 m 1
 522 415 l 2
 522 438 512 545 373 545 c 0
 270 545 221 484.907226562 217 458 c 1
 348 440 l 1
 348 393 l 1
 348 393 267.606445312 363.862304688 271 280 c 2
 278 107 l 2
 280.666015625 41.107421875 224 -12 159 -12 c 0
 93 -12 40 41 40 107 c 0xfce0
 40 172 93 225 159 225 c 0
 164 225 169 225 174 224 c 1
 168 264 l 1
 168 354 271 403 271 403 c 1
 102 422 l 1
 102 422 133 622 371 622 c 0
 602 622 626 453 626 426 c 2
 626 -118 l 1
 498 -239 l 1
 435 -170 l 1
 367 -238 l 1
 309 -179 l 1
 279 -209 251 -237 202 -237 c 0
 147 -237 96 -191 96 -141 c 0xfb60
 96 -81 155 -54 210 -54 c 0
 232 -54 253 -59 276 -71 c 1
 281 -59 285 -41 287 -16 c 1
 363 -28 l 1
 360 -63 351 -95 342 -118 c 1
 354 -128 359 -132 368 -140 c 1
 436 -81 l 1
 498 -141 l 1
 522 -109 l 1
202 -180 m 0
 222 -180 238 -163 255 -132 c 1
 231 -116 216 -111 210 -111 c 0
 187 -111 173 -122 173 -141 c 0xfa60
 173 -161 189 -180 202 -180 c 0
EndSplineSet
EndChar

StartChar: uni0E10
Encoding: 3600 3600 112
Width: 610
GlyphClass: 2
Flags: MW
HStem: -318 55<95.5 106.5 95.5 124> -199 56<98.5 113.5> -184 43<371 380 380 389.5 371 392> -73 43<371 389.5> 0 21G<368 412> 434 67 546 76<253 292.089>
VStem: 0 75<-235.5 -217 -235.5 -200> 294 53<-116.5 -97.5 -116.5 -85> 392 75<-218 -184 -184 -184> 395 103<127 331 331 345> 416 51<-116.5 -107 -228 -97.5>
LayerCount: 2
Fore
SplineSet
467 -107 m 2xbf90
 467 -228 l 1
 373 -314 l 1
 307 -267 l 1
 232 -319 l 1
 208 -281 201 -272 193 -263 c 1
 174 -290 145 -318 103 -318 c 0
 50 -318 0 -275 0 -227 c 0
 0 -173 53 -143 110 -143 c 0xdf90
 124 -143 139 -145 153 -150 c 1
 156 -132 158 -111 160 -84 c 1
 235 -89 l 1
 231 -133 227 -169 221 -197 c 1
 252 -240 l 1
 270 -226 293 -211 308 -200 c 1
 367 -244 l 1
 392 -218 l 1
 392 -184 l 1xbfc0
 380 -184 l 2
 333 -184 294 -151 294 -107 c 0
 294 -63 333 -30 380 -30 c 0
 428 -30 467 -63 467 -107 c 2xbf90
103 -263 m 0
 110 -263 124 -250 139 -210 c 1
 126 -201 117 -199 110 -199 c 0
 87 -199 75 -207 75 -227 c 0
 75 -244 88 -263 103 -263 c 0
347 -107 m 0
 347 -126 362 -141 380 -141 c 0xbf90
 399 -141 416 -126 416 -107 c 0
 416 -88 399 -73 380 -73 c 0
 362 -73 347 -88 347 -107 c 0
269 622 m 0x0e20
 356 622 412 556 480 621 c 1
 529 548 l 1
 496.8359375 517.235351562 464.061523438 507.736328125 432 508.395507812 c 0
 372.354492188 509.62109375 315.177734375 546 269 546 c 0
 237 546 198 528 178 501 c 1
 307 495.361328125 498 469.047851562 498 345 c 2
 498 82 l 2
 498 0 456 0 368 0 c 1
 286 193 l 1
 249 159 191.728515625 151.525390625 146 178 c 0
 89 211 69.6845703125 284.181640625 102 340 c 0
 135 397 206.77734375 415.604492188 265 383 c 0
 290 369 306.743164062 346.510742188 317 321 c 2
 395 127 l 1
 395 331 l 2
 395 426.14453125 245 434 54 434 c 1
 76 550.27734375 151 622 269 622 c 0x0e20
177 231 m 0
 204 215 238.67578125 225.182617188 254 252 c 0
 270 280 262 315 234 331 c 0
 206 347 171.901367188 336.46484375 155 309 c 0
 139 283 149.256835938 247.440429688 177 231 c 0
EndSplineSet
Substitution2: "Single Substitution lookup 4 subtable" uni0E10.descless
Substitution2: "'ss01' Style Set 1 lookup 2 subtable" uni0E10.descless
Substitution2: "'salt' Stylistic Alternatives lookup 1 subtable" uni0E10.descless
Substitution2: "'locl' Localized Forms in Thai lookup 0 subtable" uni0E10.descless
EndChar

StartChar: uni0E11
Encoding: 3601 3601 113
Width: 813
GlyphClass: 2
Flags: MW
HStem: 0 21G<260 361 260 260 617 723 617 617> 285 62<133.5 165 133.5 182> 462 61<144.5 165> 591 21G
VStem: 31 61<404 404> 207 61<388 420> 260 104<195 270 270 280.5> 617 106<0 440 0 454.286>
LayerCount: 2
Fore
SplineSet
364 306 m 1xfb
 364 195 l 1
 364 195 465 580 523 609 c 1
 536 611 l 1
 695 611 723 498 723 440 c 2
 723 0 l 1
 617 0 l 1
 617 440 l 2
 617 468.571289062 604.5 500.713867188 567 515 c 1
 520.358398438 510.995117188 450.396484375 219.588867188 361 0 c 1
 260 0 l 1
 260 270 l 2xfb
 260 291 333.573242188 441.05859375 341 458 c 0
 348.740234375 475.65625 314.33984375 539.77734375 298 550 c 1
 234 518 l 1
 160 553 l 1
 150 546.400390625 132 533.200195312 123 520 c 1
 131 522 140 523 149 523 c 0
 215 523 268 470 268 404 c 0xfd
 268 339 215 285 149 285 c 0
 84 285 32.6240234375 339.020507812 31 404 c 0
 29 484 51 565 154 621 c 1
 232 571 l 1
 255 587 281 606 302 620 c 1
 398 587 421 516 422 472 c 1
 422 472 372 347 364 306 c 1xfb
149 462 m 0
 118 462 92 436 92 404 c 0
 92 372 118 347 149 347 c 0
 181 347 207 372 207 404 c 0xfd
 207 436 181 462 149 462 c 0
EndSplineSet
EndChar

StartChar: uni0E12
Encoding: 3602 3602 114
Width: 987
GlyphClass: 2
Flags: MW
HStem: -14 54 0 21G 179 60 406 61 606 20G
VStem: 90 104<110.999 413.999 110.999 418.999 110.999 445.499> 235 61<332 364 332 380.999> 411 61<333.499 364> 518 104<242 413.999 413.999 420.999 238.999 436.499> 793 104<97 602>
LayerCount: 2
Fore
SplineSet
296 348 m 0x3fc0
 296 316 322 291 353 291 c 0
 385 291 411 316 411 348 c 0
 411 380 385 406 353 406 c 0
 322 406 296 380 296 348 c 0x3fc0
518 242 m 1
 518 413.999023438 l 2
 518 458.999023438 514.7890625 518.999023438 442 543.999023438 c 1
 355 498.999023438 l 1
 270 540.999023438 l 1
 191.859375 516.999023438 194 457.999023438 194 413.999023438 c 2
 194 110.999023438 l 1
 318 233.999023438 l 1
 270 248.999023438 235 294.999023438 235 347.999023438 c 0
 235 413.999023438 288 466.999023438 353 466.999023438 c 0
 419 466.999023438 472 413.999023438 472 347.999023438 c 0
 472 318.999023438 462.857421875 291.198242188 444 270.999023438 c 2
 191 -0.0009765625 l 1
 90 -0.0009765625 l 1x7fc0
 90 418.999023438 l 2
 90 471.999023438 116.684570312 596.999023438 285 625.999023438 c 1
 355 570.999023438 l 1
 428 624.999023438 l 1
 600.444335938 598.999023438 622 472.999023438 622 420.999023438 c 2
 622 238.999023438 l 1
 697 229.357421875 761 156.604492188 793 97 c 1
 793 602 l 1
 897 602 l 1
 897 70 l 2
 897 11 882.725585938 -17 779 -14 c 1
 749.89453125 56.591796875 683.368164062 147.352539062 621 165 c 1
 621 58 l 2
 621 7 567 -14 516 -14 c 0xbfc0
 446.50390625 -14 412.602539062 44.220703125 408 108 c 0
 402.359375 186.166992188 450.307617188 236.416992188 518 242 c 1
518 79.9990234375 m 2
 517.999023438 167.998046875 l 1
 499.264648438 168.702148438 461.836914062 150.374023438 464 110.999023438 c 0
 466.208007812 70.900390625 500.327148438 54.9990234375 517 54.9990234375 c 0xbfc0
 518 54.9990234375 518 64.9990234375 518 79.9990234375 c 2
EndSplineSet
EndChar

StartChar: uni0E13
Encoding: 3603 3603 115
Width: 983
GlyphClass: 2
Flags: MW
HStem: -9 62<788.5 820 788.5 837> 0 21G<490 595 490 490> 164 61<228.5 247> 555 67
VStem: 112 62<107 122.5 91 264> 112 104<224 224 224 264 224 309> 289 61<91 122.5> 490 105<0 0> 686 61<110 119 119 119> 787 104<272 602> 862 61<94 126>
LayerCount: 2
Fore
SplineSet
804 53 m 0xb3a0
 836 53 862 78 862 110 c 0
 862 142 836 168 804 168 c 0
 773 168 747 142 747 110 c 0
 747 78 773 53 804 53 c 0xb3a0
289 107 m 0
 289 138 263 164 231 164 c 0
 199 164 174 138 174 107 c 0x3b80
 174 75 199 49 231 49 c 0
 263 49 289 75 289 107 c 0
594 426 m 2
 595 124 l 1
 616 154.73046875 651.850585938 186.688476562 736 218 c 0
 779 234 787 272 787 272 c 1
 787 602 l 1
 891 602 l 1
 891 270 l 2x77c0
 891 261 876 245 850 220 c 1
 893 202 923 160 923 110 c 0
 923 45 870 -9 804 -9 c 0xb3a0
 739 -9 686 45 686 110 c 2
 686 119 l 1
 602 75 595 0 595 0 c 1
 490 0 l 1
 490 415 l 2
 490 438 480 545 341 545 c 0
 238 545 189 484.907226562 185 458 c 1
 292 440 l 1
 292 393 l 1
 292 393 213.5 363.973632812 215 280 c 2
 216 224 l 1x77a0
 221 225 226 225 231 225 c 0
 297 225 350 172 350 107 c 0
 350 41 297 -12 231 -12 c 0
 166 -12 112 41 112 107 c 2x7b80
 112 264 l 2x7780
 112 354 215 403 215 403 c 1
 70 422 l 1
 70 422 101 622 339 622 c 0
 570 622 593.91015625 453 594 426 c 2
EndSplineSet
EndChar

StartChar: uni0E14
Encoding: 3604 3604 116
Width: 702
GlyphClass: 2
Flags: MW
HStem: 0 21G<90 191 90 90 508 612 508 508> 406 61<337.5 369> 556 66
VStem: 90 104<111 410 111 420 111 448.5> 235 61<332 364 332 381> 411 61<333.5 364> 508 104<0 410 410 421 0 437>
LayerCount: 2
Fore
SplineSet
353 622 m 0
 552 622 612 477 612 421 c 2
 612 0 l 1
 508 0 l 1
 508 410 l 2
 508 464 474 546 353 546 c 0
 237 546 194 464 194 410 c 2
 194 111 l 1
 318 234 l 1
 270 249 235 295 235 348 c 0
 235 414 288 467 353 467 c 0
 419 467 472 414 472 348 c 0
 472 319 462.857421875 291.19921875 444 271 c 2
 191 0 l 1
 90 0 l 1
 90 420 l 2
 90 477 159 622 353 622 c 0
296 348 m 0
 296 316 322 291 353 291 c 0
 385 291 411 316 411 348 c 0
 411 380 385 406 353 406 c 0
 322 406 296 380 296 348 c 0
EndSplineSet
EndChar

StartChar: uni0E15
Encoding: 3605 3605 117
Width: 702
GlyphClass: 2
Flags: MW
HStem: 0 21G<90 191 90 90 508 508 508 612> 406 61<337.5 369> 606 20G<280 280>
VStem: 90 104<111 414 111 419 111 445.5> 235 61<332 364 332 381> 411 61<333.5 364> 508 104<0 414 414 421 0 436.5>
LayerCount: 2
Fore
SplineSet
191 0 m 1
 90 0 l 1
 90 419 l 2
 90 472 116 597 280 626 c 1
 350 571 l 1
 423 625 l 1
 591 599 612 473 612 421 c 2
 612 0 l 1
 508 0 l 1
 508 414 l 2
 508 459 505 519 437 544 c 1
 350 499 l 1
 265 541 l 1
 192 517 194 458 194 414 c 2
 194 111 l 1
 318 234 l 1
 270 249 235 295 235 348 c 0
 235 414 288 467 353 467 c 0
 419 467 472 414 472 348 c 0
 472 319 462.857421875 291.19921875 444 271 c 2
 191 0 l 1
296 348 m 0
 296 316 322 291 353 291 c 0
 385 291 411 316 411 348 c 0
 411 380 385 406 353 406 c 0
 322 406 296 380 296 348 c 0
EndSplineSet
EndChar

StartChar: uni0E16
Encoding: 3606 3606 118
Width: 684
GlyphClass: 2
Flags: MW
HStem: -12 61<215 247 215 264> 0 21G<490 594 490 490> 164 61<228.5 247> 555 67
VStem: 112 62<107 122.5 91 264> 112 104<224 224 224 264 224 309> 289 61<91 122.5> 490 104<0 415 415 415>
LayerCount: 2
Fore
SplineSet
289 107 m 0xbb
 289 138 263 164 231 164 c 0
 199 164 174 138 174 107 c 0
 174 75 199 49 231 49 c 0
 263 49 289 75 289 107 c 0xbb
215 280 m 2
 216 224 l 1x77
 221 225 226 225 231 225 c 0
 297 225 350 172 350 107 c 0
 350 41 297 -12 231 -12 c 0
 166 -12 112 41 112 107 c 2xbb
 112 264 l 2
 112 354 215 403 215 403 c 1
 70 422 l 1
 70 422 101 622 339 622 c 0
 570 622 594 453 594 426 c 2
 594 0 l 1
 490 0 l 1x77
 490 415 l 2
 491 438 480 545 341 545 c 0
 238 545 189 484.907226562 185 458 c 1
 292 440 l 1
 292 393 l 1
 292 393 215 364 215 280 c 2
EndSplineSet
EndChar

StartChar: uni0E17
Encoding: 3607 3607 119
Width: 738
GlyphClass: 2
Flags: MW
HStem: 0 21G<184 184 184 288> 375 61 551 61
VStem: 50 61 184 104<0 0> 226 62 542 106
LayerCount: 2
Fore
SplineSet
184 0 m 1xfa
 183.999023438 375.999023438 l 1xfa
 178.999023438 374.999023438 173.999023438 374.999023438 168.999023438 374.999023438 c 0
 102.999023438 374.999023438 49.9990234375 427.999023438 49.9990234375 492.999023438 c 0
 49.9990234375 558.999023438 102.999023438 611.999023438 168.999023438 611.999023438 c 0
 233.999023438 611.999023438 287.999023438 558.999023438 287.999023438 492.999023438 c 2xf6
 287.999023438 214.999023438 l 1xfa
 287.999023438 214.999023438 370.999023438 521.368164062 428.999023438 606.999023438 c 1
 460.999023438 606.999023438 l 2
 620.999023438 606.999023438 647.999023438 493.999023438 647.999023438 435.999023438 c 2
 647.999023438 -0.0009765625 l 1
 541.999023438 -0.0009765625 l 1
 541.999023438 425.999023438 l 2
 541.999023438 468.391601562 529.381835938 506.274414062 475.999023438 518 c 1
 446.6875 509.334960938 421.418945312 341.409179688 288 0 c 1xf6
 184 0 l 1xfa
110.999023438 492.999023438 m 0
 110.999023438 461.999023438 136.999023438 435.999023438 168.999023438 435.999023438 c 0
 200.999023438 435.999023438 225.999023438 461.999023438 225.999023438 492.999023438 c 0xf6
 225.999023438 524.999023438 200.999023438 550.999023438 168.999023438 550.999023438 c 0
 136.999023438 550.999023438 110.999023438 524.999023438 110.999023438 492.999023438 c 0
EndSplineSet
EndChar

StartChar: uni0E18
Encoding: 3608 3608 120
Width: 626
GlyphClass: 2
Flags: MW
HStem: 0 57 435.33 61.6697 556 66
VStem: 127 104 433 103
LayerCount: 2
Fore
SplineSet
536 333 m 1
 535.999023438 82.0009765625 l 2
 535.999023438 0.0009765625 497.999023438 0.0009765625 416.999023438 0.0009765625 c 2
 126.999023438 0.0009765625 l 1
 126.999023438 370.000976562 l 1
 230.999023438 370.000976562 l 1
 230.999023438 77.0009765625 l 1
 416.999023438 77.0009765625 l 2
 426.999023438 77.0009765625 432.999023438 77.0009765625 432.999023438 102.000976562 c 2
 432.999023438 319.000976562 l 1
 425.091796875 441.990234375 150.999023438 420.000976562 49.9990234375 418.000976562 c 1
 72.9990234375 533.305664062 144.999023438 622.000976562 272.999023438 622.000976562 c 0
 341.556640625 622.000976562 387.946289062 592.03125 433.999023438 592.067382812 c 0
 459.822265625 592.08984375 485.5390625 603 514.999023438 637 c 1
 561.999023438 559 l 1
 523.987304688 526.862304688 487.169921875 516.16015625 452 515.98828125 c 0
 385.393554688 515.663085938 324.69140625 542.212890625 273 541 c 0
 234 540.084960938 197 520.864257812 177 487 c 1
 303 482 531 476 536 333 c 1
EndSplineSet
EndChar

StartChar: uni0E19
Encoding: 3609 3609 121
Width: 706
GlyphClass: 2
Flags: MW
HStem: -9 62<511.5 543 511.5 560> 0 21G<184 283 184 184> 375 61<153 171.5> 551 61<153 185>
VStem: 50 61<477.5 509 477.5 526> 184 104<106.5 376 376 376> 226 62<477.5 493 106.5 509> 409 61<110 119 119 119> 510 104<272 602> 585 61<94 126>
LayerCount: 2
Fore
SplineSet
111 493 m 0x3b
 111 462 137 436 169 436 c 0
 201 436 226 462 226 493 c 0
 226 525 201 551 169 551 c 0
 137 551 111 525 111 493 c 0x3b
409 119 m 1
 325 75 283 0 283 0 c 1
 184 0 l 1
 184 376 l 1x7d40
 179 375 174 375 169 375 c 0
 103 375 50 428 50 493 c 0
 50 559 103 612 169 612 c 0
 234 612 288 559 288 493 c 2x7b
 288 106.5 l 1
 314 133.302734375 372.9296875 185.973632812 459 218 c 0
 502 234 510 272 510 272 c 1
 510 602 l 1
 614 602 l 1
 614 270 l 2x7d80
 614 261 599 245 573 220 c 1
 616 202 646 160 646 110 c 0
 646 45 593 -9 527 -9 c 0xb940
 462 -9 409 45 409 110 c 2
 409 119 l 1
527 53 m 0xb940
 559 53 585 78 585 110 c 0
 585 142 559 168 527 168 c 0
 496 168 470 142 470 110 c 0
 470 78 496 53 527 53 c 0xb940
EndSplineSet
EndChar

StartChar: uni0E1A
Encoding: 3610 3610 122
Width: 740
GlyphClass: 2
Flags: MW
HStem: -20 90 390 60 550 60 580 20G
VStem: 50 60 170 100 210 60 550 100
LayerCount: 2
Fore
SplineSet
184 0 m 1xc9
 184 376 l 1
 179 375 174 375 169 375 c 0
 103 375 50 428 50 493 c 0
 50 559 103 612 169 612 c 0
 234 612 288 559 288 493 c 2
 288 77 l 1
 531 77 l 2
 541 77 546 77 546 102 c 2
 546 602 l 1
 650 602 l 1
 650 82 l 2
 650 0 612 0 531 0 c 2
 184 0 l 1xc9
111 493 m 0
 111 462 137 436 169 436 c 0
 201 436 226 462 226 493 c 0
 226 525 201 551 169 551 c 0
 137 551 111 525 111 493 c 0
EndSplineSet
EndChar

StartChar: uni0E1B
Encoding: 3611 3611 123
Width: 740
GlyphClass: 2
Flags: MW
HStem: -20 90 390 60 550 60 820 20G<546 650 650 650>
VStem: 50 60 170 100 210 60 550 100
LayerCount: 2
Fore
SplineSet
184 0 m 1xf9
 184 376 l 1
 179 375 174 375 169 375 c 0
 103 375 50 428 50 493 c 0
 50 559 103 612 169 612 c 0
 234 612 288 559 288 493 c 2
 288 77 l 1
 531 77 l 2
 541 77 546 77 546 102 c 2
 546 840 l 1
 650 840 l 1
 650 82 l 2
 650 0 612 0 531 0 c 2
 184 0 l 1xf9
111 493 m 0
 111 462 137 436 169 436 c 0
 201 436 226 462 226 493 c 0
 226 525 201 551 169 551 c 0
 137 551 111 525 111 493 c 0
EndSplineSet
EndChar

StartChar: uni0E1C
Encoding: 3612 3612 124
Width: 689
GlyphClass: 2
Flags: MW
HStem: 400 50 550 60 580 20G
VStem: 90 100 290 50 570 100
LayerCount: 2
Fore
SplineSet
194 376 m 1x9c
 194 119 l 1
 344 339 l 1
 494 118 l 1
 494 602 l 1
 599 602 l 1
 599 0 l 1
 494 0 l 1
 344 228 l 1
 194 0 l 1
 90 0 l 1
 90 493 l 2
 90 559 144 612 209 612 c 0
 275 612 328 559 328 493 c 0
 328 428 275 375 209 375 c 0
 204 375 199 375 194 376 c 1x9c
267 493 m 0
 267 525 241 551 209 551 c 0
 177 551 152 525 152 493 c 0
 152 462 177 436 209 436 c 0
 241 436 267 462 267 493 c 0
EndSplineSet
EndChar

StartChar: uni0E1D
Encoding: 3613 3613 125
Width: 689
GlyphClass: 2
Flags: MW
HStem: 400 50 550 60 820 20G<494 599 599 599>
VStem: 90 100 290 50 570 100
LayerCount: 2
Fore
SplineSet
194 376 m 1
 194 119 l 1
 344 339 l 1
 494 118 l 1
 494 840 l 1
 599 840 l 1
 599 0 l 1
 494 0 l 1
 344 228 l 1
 194 0 l 1
 90 0 l 1
 90 493 l 2
 90 559 144 612 209 612 c 0
 275 612 328 559 328 493 c 0
 328 428 275 375 209 375 c 0
 204 375 199 375 194 376 c 1
267 493 m 0
 267 525 241 551 209 551 c 0
 177 551 152 525 152 493 c 0
 152 462 177 436 209 436 c 0
 241 436 267 462 267 493 c 0
EndSplineSet
EndChar

StartChar: uni0E1E
Encoding: 3614 3614 126
Width: 796
GlyphClass: 2
Flags: MW
HStem: 0 21G<184 290 184 184 600 706 600 600> 375 61<153 171.5> 551 61<153 185>
VStem: 50 61<477.5 509 477.5 526> 184 104<175 175 175 376 376 376> 226 62<477.5 493> 602 104<177 602 0 602>
LayerCount: 2
Fore
SplineSet
288 175 m 1xfa
 439 600 l 1
 451 600 l 1
 602 177 l 1
 602 602 l 1
 706 602 l 1
 706 0 l 1
 600 0 l 1
 446 436 l 1
 290 0 l 1
 184 0 l 1
 184 376 l 1xfa
 179 375 174 375 169 375 c 0
 103 375 50 428 50 493 c 0
 50 559 103 612 169 612 c 0
 234 612 288 559 288 493 c 2xf6
 288 175 l 1xfa
111 493 m 0
 111 462 137 436 169 436 c 0
 201 436 226 462 226 493 c 0xf6
 226 525 201 551 169 551 c 0
 137 551 111 525 111 493 c 0
EndSplineSet
EndChar

StartChar: uni0E1F
Encoding: 3615 3615 127
Width: 796
GlyphClass: 2
Flags: MW
HStem: 0 21G<184 290 184 184 600 706 600 600> 375 61<153 171.5> 551 61<153 185>
VStem: 50 61<477.5 509 477.5 526> 184 104<175 175 175 376 376 376> 226 62<477.5 493> 602 104<177 840 0 840>
LayerCount: 2
Fore
SplineSet
288 175 m 1xfa
 439 600 l 1
 451 600 l 1
 602 177 l 1
 602 840 l 1
 706 840 l 1
 706 0 l 1
 600 0 l 1
 446 436 l 1
 290 0 l 1
 184 0 l 1
 184 376 l 1xfa
 179 375 174 375 169 375 c 0
 103 375 50 428 50 493 c 0
 50 559 103 612 169 612 c 0
 234 612 288 559 288 493 c 2xf6
 288 175 l 1xfa
111 493 m 0
 111 462 137 436 169 436 c 0
 201 436 226 462 226 493 c 0xf6
 226 525 201 551 169 551 c 0
 137 551 111 525 111 493 c 0
EndSplineSet
EndChar

StartChar: uni0E20
Encoding: 3616 3616 128
Width: 716
GlyphClass: 2
Flags: MW
HStem: -12 61<143 175 143 191.5> 0 21G<522 626 522 522> 164 61<143 161.5 126 175> 555 67
VStem: 40 61<91 122.5 91 139.5> 174 104 216 62<91 107 74 122.5> 522 104<0 415 415 415>
LayerCount: 2
Fore
SplineSet
174 224 m 1xbd
 168 264 l 1
 168 354 271 403 271 403 c 1
 102 422 l 1
 102 422 133 622 371 622 c 0
 602 622 626 453 626 426 c 2
 626 0 l 1
 522 0 l 1
 522 415 l 2
 523 438 512 545 373 545 c 0
 270 545 221 484.907226562 217 458 c 1
 348 440 l 1
 348 393 l 1
 348 393 271 364 271 280 c 2
 278 107 l 2x7b
 278 41 224 -12 159 -12 c 0
 93 -12 40 41 40 107 c 0
 40 172 93 225 159 225 c 0
 164 225 169 225 174 224 c 1xbd
101 107 m 0
 101 75 127 49 159 49 c 0xbb
 191 49 216 75 216 107 c 0
 216 138 191 164 159 164 c 0
 127 164 101 138 101 107 c 0
EndSplineSet
EndChar

StartChar: uni0E21
Encoding: 3617 3617 129
Width: 730
GlyphClass: 2
Flags: MW
HStem: -14 54 202 60 375 61 551 61
VStem: 80 61<477.499 508.999 477.499 525.999> 215 103<79.999 188.999 271.999 375.999 375.999 375.999> 256 62<477.499 492.999> 537 103<91 601.999>
LayerCount: 2
Fore
SplineSet
537 602 m 1xfd
 640 601.999023438 l 1
 640 69.9990234375 l 2
 640 10.9990234375 625.604492188 -17.0009765625 521 -14.0009765625 c 1
 490.2421875 52.712890625 397.969726562 156.595703125 318 188.999023438 c 1
 318 57.9990234375 l 2
 318 6.9990234375 264 -14.0009765625 213 -14.0009765625 c 0
 129 -14.0009765625 92.6103515625 48.9716796875 88 117.999023438 c 0
 82 207.83203125 133 265.58203125 215 271.999023438 c 1
 215 375.999023438 l 1xfd
 210 374.999023438 204 374.999023438 199 374.999023438 c 0
 133 374.999023438 80 427.999023438 80 492.999023438 c 0
 80 558.999023438 133 611.999023438 199 611.999023438 c 0
 264 611.999023438 318 558.999023438 318 492.999023438 c 2xfb
 318 268.999023438 l 1
 413 248.301757812 499 149.98828125 537 91 c 1
 537 602 l 1xfd
215 79.9990234375 m 1
 215 191.999023438 l 1
 188 192.751953125 154.451171875 173.151367188 156 130.999023438 c 0
 158 76.5791015625 188.919921875 54.9990234375 214 54.9990234375 c 0
 215 54.9990234375 215 79.9990234375 215 79.9990234375 c 1
141 492.999023438 m 0
 141 461.999023438 167 435.999023438 199 435.999023438 c 0
 231 435.999023438 256 461.999023438 256 492.999023438 c 0xfb
 256 524.999023438 231 550.999023438 199 550.999023438 c 0
 167 550.999023438 141 524.999023438 141 492.999023438 c 0
EndSplineSet
EndChar

StartChar: uni0E22
Encoding: 3618 3618 130
Width: 676
GlyphClass: 2
Flags: MW
HStem: 0 58 258 57 375 62<224.5 249 217.5 266> 552 61<231 238 231 249>
VStem: 79 97<424 510> 115 105<78 140 140 151 78 181> 291 61<478 510> 481 104<103 602>
LayerCount: 2
Fore
SplineSet
463 0 m 2xf7
 115 0 l 1
 115 140 l 2xf7
 115 222 183 256 214 270 c 1
 181 277 110 305 93 349 c 0
 80 381 79 412 79 436 c 0xfb
 79 520 124 597 211 611 c 0
 217 612 224 613 238 613 c 0
 301 610 352 558 352 494 c 0
 352 429 299 375 233 375 c 0
 216 375 201 378 186 385 c 1
 181.75 313 291 316 387 315 c 1
 387 251 l 1
 356 251 313 247 292 243 c 0
 254 230.918945312 220 190.030273438 220 151 c 2
 220 78 l 1
 465 78 l 2
 475 78 481 78 481 103 c 2
 481 602 l 1
 585 602 l 1
 585 83 l 2
 585 0 546 0 463 0 c 2xf7
233 437 m 0
 265 437 291 462 291 494 c 0
 291 526 265 552 233 552 c 0
 202 552 176 526 176 494 c 0xfb
 176 462 202 437 233 437 c 0
EndSplineSet
EndChar

StartChar: uni0E23
Encoding: 3619 3619 131
Width: 567
GlyphClass: 2
Flags: MW
HStem: -10 65 165 65 400 45 540 70 550 70
VStem: 210 65 350 100 385 65
LayerCount: 2
Fore
SplineSet
485 332 m 2xe4
 485.000976562 108.999023438 l 2
 485.000976562 42.9990234375 431.000976562 -10.0009765625 366.000976562 -10.0009765625 c 0
 300.000976562 -10.0009765625 247.000976562 42.9990234375 247.000976562 108.999023438 c 0
 247.000976562 173.999023438 300.000976562 226.999023438 366.000976562 226.999023438 c 0
 371.000976562 226.999023438 376.000976562 226.999023438 381.000976562 225.999023438 c 1
 381.000976562 317.999023438 l 2
 381.000976562 425.602539062 187.000976562 422.999023438 40.0009765625 422.999023438 c 1
 62.0009765625 548.286132812 137.000976562 622.999023438 257.000976562 622.999023438 c 0
 314.818359375 622.999023438 358.946289062 593.950195312 402.000976562 593.373046875 c 0
 423.732421875 593.08203125 445.19140625 601.625976562 468.000976562 627.999023438 c 1
 517.000976562 553.999023438 l 1
 485.505859375 523.873046875 453.424804688 514.169921875 422.000976562 514.3671875 c 0
 361.633789062 514.745117188 303.694335938 547 257 547 c 0
 223 547 185 525.069335938 164 494 c 1
 293 488 485 464 485 332 c 2xe4
308.000976562 108.999023438 m 0
 308.000976562 76.9990234375 334.000976562 50.9990234375 366.000976562 50.9990234375 c 0
 398.000976562 50.9990234375 423.000976562 76.9990234375 423.000976562 108.999023438 c 0
 423.000976562 139.999023438 398.000976562 165.999023438 366.000976562 165.999023438 c 0
 334.000976562 165.999023438 308.000976562 139.999023438 308.000976562 108.999023438 c 0
EndSplineSet
EndChar

StartChar: uni0E24
Encoding: 3620 3620 132
Width: 684
GlyphClass: 2
Flags: MW
HStem: -12 61<215 247 215 264> 164 61<228.5 247> 555 67
VStem: 112 62<107 122.5 91 264> 112 104<224 224 224 264 224 309> 289 61<91 122.5> 490 104<-237 415 415 415>
LayerCount: 2
Fore
SplineSet
289 107 m 0xf6
 289 138 263 164 231 164 c 0
 199 164 174 138 174 107 c 0
 174 75 199 49 231 49 c 0
 263 49 289 75 289 107 c 0xf6
215 280 m 2
 216 224 l 1xee
 221 225 226 225 231 225 c 0
 297 225 350 172 350 107 c 0
 350 41 297 -12 231 -12 c 0
 166 -12 112 41 112 107 c 2xf6
 112 264 l 2xee
 112 354 215 403 215 403 c 1
 70 422 l 1
 70 422 101 622 339 622 c 0
 570 622 594 453 594 426 c 2
 594 -237 l 1
 490 -237 l 1
 490 415 l 2
 491 438 480 545 341 545 c 0
 238 545 189 484.907226562 185 458 c 1
 292 440 l 1
 292 393 l 1
 292 393 215 364 215 280 c 2
EndSplineSet
EndChar

StartChar: uni0E25
Encoding: 3621 3621 133
Width: 679
GlyphClass: 2
Flags: MW
HStem: -10 61<205 237 205 254> 0 21G<485 589 485 485> 166 61<218.5 237> 557 65
VStem: 80 77<435 460> 102 62<109 124.5 93 257> 102 105<226 252 226 257 226 281.5> 279 61<93 124.5> 485 104<0 130 130 141.99 323 412 412 424 0 439>
LayerCount: 2
Fore
SplineSet
102 109 m 2xb580
 102 257 l 2xb380
 102 306 141.025390625 443.999023438 315 441 c 0
 398 439.361328125 451 386.916992188 485 323 c 1
 485 412 l 2
 485 466 452 547 330 547 c 0
 227 547 167 487.91015625 157 435 c 1
 80 460 l 1xb980
 98.26953125 527 175.192382812 622 330 622 c 0
 531 622 589 479 589 424 c 2
 589 0 l 1
 485 0 l 1
 485 130 l 2
 485 153.979492188 447.890625 371.4921875 311 365 c 0
 272 363.30078125 207 339.51171875 207 252 c 2
 207 226 l 1x7380
 212 227 216 227 221 227 c 0
 287 227 340 174 340 109 c 0
 340 43 287 -10 221 -10 c 0
 156 -10 102 43 102 109 c 2xb580
279 109 m 0
 279 140 253 166 221 166 c 0
 189 166 164 140 164 109 c 0xb580
 164 77 189 51 221 51 c 0
 253 51 279 77 279 109 c 0
EndSplineSet
EndChar

StartChar: uni0E26
Encoding: 3622 3622 134
Width: 716
GlyphClass: 2
Flags: MW
HStem: -12 61<143 175 143 191.5> 164 61<143 161.5 126 175> 555 67
VStem: 40 61<91 122.5 91 139.5> 174 104 216 62<91 107 74 122.5> 522 104<-237 415 415 415>
LayerCount: 2
Fore
SplineSet
174 224 m 1xfa
 168 264 l 1
 168 354 271 403 271 403 c 1
 102 422 l 1
 102 422 133 622 371 622 c 0
 602 622 626 453 626 426 c 2
 626 -237 l 1
 522 -237 l 1
 522 415 l 2
 523 438 512 545 373 545 c 0
 270 545 221 484.907226562 217 458 c 1
 348 440 l 1
 348 393 l 1
 348 393 271 364 271 280 c 2
 278 107 l 2xf6
 278 41 224 -12 159 -12 c 0
 93 -12 40 41 40 107 c 0
 40 172 93 225 159 225 c 0
 164 225 169 225 174 224 c 1xfa
101 107 m 0
 101 75 127 49 159 49 c 0
 191 49 216 75 216 107 c 0
 216 138 191 164 159 164 c 0
 127 164 101 138 101 107 c 0
EndSplineSet
EndChar

StartChar: uni0E27
Encoding: 3623 3623 135
Width: 607
GlyphClass: 2
Flags: MW
HStem: -10 61<382 414 382 430.5> 166 61<382 400.5 365 414> 556 66
VStem: 30 75<428 453> 279 61<93 124.5 93 141.5> 413 104<226 411 411 421> 455 62<93 109 109 124.5>
LayerCount: 2
Fore
SplineSet
517 421 m 2xfc
 517 109 l 2xfa
 517 43 463 -10 398 -10 c 0
 332 -10 279 43 279 109 c 0
 279 174 332 227 398 227 c 0
 403 227 408 227 413 226 c 1
 413 411 l 2
 413 464 390 546 275 546 c 0
 168.75 546 115.625 478.715820312 105 428 c 1
 30 453 l 1
 49 520 113 622 275 622 c 0
 473 622 517 477 517 421 c 2xfc
340 109 m 0
 340 77 366 51 398 51 c 0
 430 51 455 77 455 109 c 0
 455 140 430 166 398 166 c 0
 366 166 340 140 340 109 c 0
EndSplineSet
EndChar

StartChar: uni0E28
Encoding: 3624 3624 136
Width: 702
GlyphClass: 2
Flags: MW
HStem: 0 21G<90 194 90 90 508 508 508 612> 229 62<337.5 369 337.5 386> 406 61<337.5 369> 557 66
VStem: 90 104<0 22 297 413> 411 61<332 364> 508 104<0 413 413 424 0 439.5>
LayerCount: 2
Fore
SplineSet
194 0 m 1
 90 0 l 1
 90 423 l 2
 90 479 157 623 353 623 c 0
 399 623 436 616 468 604 c 1
 487 607 531 624 568 694 c 1
 651 650 l 1
 632 611 591 576 544 556 c 1
 595 506 612 452 612 424 c 2
 612 0 l 1
 508 0 l 1
 508 413 l 2
 508 466 474 547 353 547 c 0
 236 547 194 466 194 413 c 2
 194 297 l 1
 191 238 l 1
 200.643554688 288.703125 222.79296875 355.516601562 249 404 c 0
 269 441 308 467 353 467 c 0
 419 467 472 414 472 348 c 0
 472 283 419 229 353 229 c 0
 316 229 283 246 261 274 c 1
 261 274 208 105 194 22 c 1
 194 0 l 1
353 406 m 0
 322 406 296 380 296 348 c 0
 296 316 322 291 353 291 c 0
 385 291 411 316 411 348 c 0
 411 380 385 406 353 406 c 0
EndSplineSet
EndChar

StartChar: uni0E29
Encoding: 3625 3625 137
Width: 736
GlyphClass: 2
Flags: MW
HStem: 0 57 202 64 369 50 375 61<153.001 171.501> 551 61<153.001 185.001>
VStem: 50 61 184 104 226 62 314 50 468 50 546 104 688 61
LayerCount: 2
Fore
SplineSet
684 420 m 1xeef0
 749.000976562 410 l 1
 741.000976562 348.344726562 701.000976562 296.965820312 650.000976562 261 c 1
 650.000976562 92 l 2
 650.000976562 0 612.000976562 0 531.000976562 0 c 2
 184.000976562 0 l 1
 184.000976562 376 l 1xeef0
 179.000976562 375 174.000976562 375 169.000976562 375 c 0
 103.000976562 375 50.0009765625 428 50.0009765625 493 c 0
 50.0009765625 559 103.000976562 612 169.000976562 612 c 0
 234.000976562 612 288.000976562 559 288.000976562 493 c 2xddf0
 288.000976562 77 l 1
 531.000976562 77 l 2
 541.000976562 77 546.000976562 77 546.000976562 102 c 2
 546.000976562 220 l 1
 527.000976562 215 507.999023438 212.274414062 491.000976562 212 c 0
 429.000976562 211 361.6015625 223.252929688 332.000976562 269 c 0
 321.000976562 286 314.000976562 306 314.000976562 327 c 0
 314.000976562 384 360.000976562 429 416.000976562 429 c 0
 472.000976562 429 518.000976562 384 518.000976562 327 c 0
 518.000976562 305 511.000976562 284 498.000976562 267 c 1
 514.000976562 269 530.000976562 275 546.000976562 287 c 1
 546.000976562 602 l 1
 650.000976562 602 l 1
 650.000976562 343 l 1
 672.379882812 363.561523438 680.840820312 391.13671875 684 420 c 1xeef0
111.000976562 493 m 0
 111.000976562 462 137.000976562 436 169.000976562 436 c 0
 201.000976562 436 226.000976562 462 226.000976562 493 c 0xddf0
 226.000976562 525 201.000976562 551 169.000976562 551 c 0
 137.000976562 551 111.000976562 525 111.000976562 493 c 0
416.000976562 276 m 0
 444.000976562 276 468.000976562 299 468.000976562 327 c 0
 468.000976562 356 444.000976562 379 416.000976562 379 c 0xecf0
 388.000976562 379 364.000976562 356 364.000976562 327 c 0
 364.000976562 299 388.000976562 276 416.000976562 276 c 0
EndSplineSet
EndChar

StartChar: uni0E2A
Encoding: 3626 3626 138
Width: 681
GlyphClass: 2
Flags: MW
HStem: -10 61<205 237 205 254> 0 21G<485 589 485 485> 166 61<218.5 237> 557 65
VStem: 80 77<435 460> 102 62<109 124.5 93 257> 102 105<226 252 226 257 226 281.5> 279 61<93 124.5> 485 104<0 130 130 141.99 327 412 412 424 0 439>
LayerCount: 2
Fore
SplineSet
102 109 m 2xb580
 102 257 l 2xb380
 102 306 142.03125 444.299804688 315 441 c 0
 398 439.416992188 451 388.75 485 327 c 1
 485 412 l 2
 485 466 452 547 330 547 c 0
 227 547 167 487.91015625 157 435 c 1
 80 460 l 1xb980
 98.26953125 527 175.192382812 622 330 622 c 0
 377 622 415 615 444 604 c 1
 464 607 511 625 547 689 c 1
 630 646 l 1
 610 609 569 576 522 556 c 1
 573 506 589 452 589 424 c 2
 589 0 l 1
 485 0 l 1
 485 130 l 2
 485 153.979492188 447.763671875 374.00390625 310 365 c 0
 271 362.451171875 207 338.662109375 207 252 c 2
 207 226 l 1x7380
 212 227 216 227 221 227 c 0
 287 227 340 174 340 109 c 0
 340 43 287 -10 221 -10 c 0
 156 -10 102 43 102 109 c 2xb580
279 109 m 0
 279 140 253 166 221 166 c 0
 189 166 164 140 164 109 c 0xb580
 164 77 189 51 221 51 c 0
 253 51 279 77 279 109 c 0
EndSplineSet
EndChar

StartChar: uni0E2B
Encoding: 3627 3627 139
Width: 737
GlyphClass: 2
Flags: MW
HStem: 0 21G<185 288 185 185 542 647 542 542> 375 61 551 61 560 54
VStem: 50 61<477.501 509.001 477.501 526> 185 103<0 0> 226 62<477.501 493> 397 71<490.5 518 490.5 538.5> 542 105<0 280 280 287 0 298.912> 573 70<490.5 518>
LayerCount: 2
Fore
SplineSet
520 454 m 0xd940
 550 454 573 477 573 504 c 0
 573 532 550 555 520 555 c 0
 492 555 468 532 468 504 c 0
 468 477 492 454 520 454 c 0xd940
288 493 m 2xeb
 288 169.000976562 l 1
 318 243.192382812 376 375.314453125 446 418 c 1
 415 438 397 469 397 510 c 0
 397 567 452 614 520 614 c 0
 588 614 643 567 643 510 c 0xdd40
 643 467 617 432 584 411 c 1
 631 369 647 321 647 287 c 2
 647 0 l 1
 542 0 l 1
 542 280 l 2
 542 317.82421875 531 357.407226562 507 375 c 1
 419 332.278320312 288 0 288 0 c 1
 185 0 l 1xdd80
 184 376 l 1
 179 375 174 375 169 375 c 0
 103 375 50 428 50 493 c 0
 50 559 103 612 169 612 c 0
 234 612 288 559 288 493 c 2xeb
111 493.000976562 m 0
 111 462.000976562 137 436.000976562 169 436.000976562 c 0
 201 436.000976562 226 462.000976562 226 493.000976562 c 0
 226 525.000976562 201 551.000976562 169 551.000976562 c 0xeb
 137 551.000976562 111 525.000976562 111 493.000976562 c 0
EndSplineSet
EndChar

StartChar: uni0E2C
Encoding: 3628 3628 140
Width: 790
GlyphClass: 2
Flags: MW
HStem: 390 60 450 50 550 60 600 50
VStem: 50 60 170 100 210 60 470 50 570 100 680 70
LayerCount: 2
Fore
SplineSet
557 627 m 0x09c0
 523 627 506 594 506 578 c 0
 506 562 517 527 559 527 c 0
 594 527 608 559 608 576 c 0
 608 590 594 627 557 627 c 0x09c0
288 493 m 2
 288 169 l 1
 431 464 l 1
 451 464 l 1
 603 169 l 1
 603 475 l 1
 589 471 574 469 560 469 c 0
 504 469 434 508.827148438 434 578 c 0
 434 647.235351562 500 685 560 685 c 0
 595 685 642 664 657 646 c 1
 666 664 673 687 671 727 c 1
 766 707 l 1
 770 685 751 610 695 559 c 1
 701 547 707 517 707 510 c 2
 707 0 l 1
 600 0 l 1
 445 337 l 1
 288 0 l 1
 184 0 l 1
 184 376 l 1
 179 375 174 375 169 375 c 0
 103 375 50 428 50 493 c 0
 50 559 103 612 169 612 c 0
 234 612 288 559 288 493 c 2
111 493 m 0
 111 462 137 436 169 436 c 0
 201 436 226 462 226 493 c 0
 226 525 201 551 169 551 c 0
 137 551 111 525 111 493 c 0
EndSplineSet
EndChar

StartChar: uni0E2D
Encoding: 3629 3629 141
Width: 690
GlyphClass: 2
Flags: MW
HStem: 0 57 175 61 351 61 557 65
VStem: 90 76 126 62 126 104<67 67 67 166 67 283> 303 61 496 104
LayerCount: 2
Fore
SplineSet
230 67 m 1xf380
 480.999023438 67 l 2
 489.999023438 67 495.999023438 67 495.999023438 92 c 2
 495.999023438 412 l 2
 495.999023438 466 461.999023438 547 340.999023438 547 c 0
 238.999023438 547 175.999023438 486.9765625 165.999023438 434 c 1
 89.9990234375 460 l 1xf980
 108.271484375 527 187.129882812 622 341 622 c 0
 543 622 600 479 600 424 c 2
 600 82 l 2
 600 0 561 0 481 0 c 2
 126 0 l 1
 126 283 l 2xf580
 126 349 180 402 245 402 c 0
 311 402 364 349 364 283 c 0
 364 218 311 165 245 165 c 0
 240 165 235 165 230 166 c 1
 230 67 l 1xf380
302.999023438 283 m 0
 302.999023438 315 276.999023438 341 244.999023438 341 c 0
 212.999023438 341 187.999023438 315 187.999023438 283 c 0xf580
 187.999023438 252 212.999023438 226 244.999023438 226 c 0
 276.999023438 226 302.999023438 252 302.999023438 283 c 0
EndSplineSet
EndChar

StartChar: uni0E2E
Encoding: 3630 3630 142
Width: 697
GlyphClass: 2
Flags: MW
HStem: 0 59 165 61 341 61 432 49 557 65
VStem: 114 62<263 263> 115 106<0 146> 291 61<247.501 279.001> 486 104<82.001 413.001 413.001 418.501> 541 81<632 673>
LayerCount: 2
Fore
SplineSet
323 471 m 0xf9
 376 472 414 489 446 514 c 1
 420 539 384.008789062 547 330 547 c 0
 250 547 177.6171875 513.974609375 179 496 c 0
 180 483 254.982421875 469.716796875 323 471 c 0xf9
221 146 m 1xfb
 221 59.0009765625 l 1
 469 59.0009765625 l 2
 480 59.0009765625 486 59.0009765625 486 82.0009765625 c 2
 486 413.000976562 l 2xfb80
 486 424.000976562 479 447.000976562 476 459.000976562 c 1
 438 439.000976562 394.010742188 423.595703125 326 422.000976562 c 0
 180 418.578125 90 431.126953125 90 503 c 0
 90 565 185.99609375 622 330 622 c 0
 401 622 456 602 492 580 c 1
 514 600 542 658 541 673 c 1
 622 632 l 1xf940
 611 579 575 536 556 520 c 1
 579 481 590 445 590 424 c 2
 590 82 l 2
 590 0 551 0 469 0 c 2
 115 0 l 1xfb80
 114 263 l 2xfd
 113.749023438 328.999023438 168 382 233 382 c 0
 299 382 352 329 352 263 c 0
 352 198 299 145 233 145 c 0
 228 145 226 145 221 146 c 1xfb
291 263.000976562 m 0
 291 295.000976562 265 321.000976562 233 321.000976562 c 0
 201 321.000976562 176 295.000976562 176 263.000976562 c 0xfd
 176 232.000976562 201 206.000976562 233 206.000976562 c 0
 265 206.000976562 291 232.000976562 291 263.000976562 c 0
EndSplineSet
EndChar

StartChar: uni0E2F
Encoding: 3631 3631 143
Width: 664
GlyphClass: 2
Flags: MW
HStem: -20 90 360 65 555 45
VStem: 50 45 175 45 370 100 390 80
LayerCount: 2
Fore
SplineSet
284 386 m 0xf8
 223 386 139 383 98 444 c 0
 87 461 80 481 80 502 c 0
 80 559 126 604 182 604 c 0
 238 604 284 559 284 502 c 0
 284 480 278 460 265 443 c 1
 371 443 438 496 449 598 c 1
 449 602 l 1
 553 602 l 1
 553 0 l 1
 449 0 l 1
 449 437 l 1
 402 404 343 386 284 386 c 0xf8
182 451 m 0
 210 451 234 474 234 502 c 0
 234 531 210 554 182 554 c 0
 154 554 130 531 130 502 c 0
 130 474 154 451 182 451 c 0
EndSplineSet
EndChar

StartChar: uni0E30
Encoding: 3632 3632 144
Width: 592
GlyphClass: 2
Flags: MW
HStem: 30 65 225 45 340 65 535 45
VStem: 60 45 185 45 385 85
LayerCount: 2
Fore
SplineSet
254 368 m 0
 193 368 109 365 68 426 c 0
 57 443 50 463 50 484 c 0
 50 541 96 586 152 586 c 0
 208 586 254 541 254 484 c 0
 254 462 248 442 235 425 c 1
 341 425 408 478 419 580 c 1
 512 565 l 1
 495 445 374 368 254 368 c 0
152 433 m 0
 180 433 204 456 204 484 c 0
 204 513 180 536 152 536 c 0
 124 536 100 513 100 484 c 0
 100 456 124 433 152 433 c 0
254 27 m 0
 193 27 109 24 68 85 c 0
 57 102 50 122 50 143 c 0
 50 200 96 245 152 245 c 0
 208 245 254 200 254 143 c 0
 254 121 248 101 235 84 c 1
 341 84 408 137 419 239 c 1
 512 224 l 1
 495 104 374 27 254 27 c 0
152 92 m 0
 180 92 204 115 204 143 c 0
 204 172 180 195 152 195 c 0
 124 195 100 172 100 143 c 0
 100 115 124 92 152 92 c 0
EndSplineSet
EndChar

StartChar: uni0E31
Encoding: 3633 3633 145
Width: 0
GlyphClass: 4
Flags: MW
HStem: 709 65<-279 -103> 877 50<-279 -251>
VStem: -367 50<814.5 839.5 811 853.5> -213 50<814 839.5> 2 93<906 921>
LayerCount: 2
Fore
SplineSet
-163 709 m 0
 -224 709 -308 706 -349 767 c 0
 -360 784 -367 804 -367 825 c 0
 -367 882 -321 927 -265 927 c 0
 -209 927 -163 882 -163 825 c 0
 -163 803 -169 783 -182 766 c 1
 -76 766 -9 819 2 921 c 1
 95 906 l 1
 78 786 -43 709 -163 709 c 0
-265 774 m 0
 -237 774 -213 797 -213 825 c 0
 -213 854 -237 877 -265 877 c 0
 -293 877 -317 854 -317 825 c 0
 -317 797 -293 774 -265 774 c 0
EndSplineSet
Substitution2: "Single Substitution lookup 8 subtable" uni0E31.left
EndChar

StartChar: uni0E32
Encoding: 3634 3634 146
Width: 574
GlyphClass: 2
Flags: MW
HStem: 0 21G<379 484 379 379> 547 76<198.429 307.5>
VStem: 30 72<428 456> 379 105<0 413 413 423 0 438.125>
LayerCount: 2
Fore
SplineSet
102 428 m 1
 30 456 l 1
 49 521 85 623 252 623 c 0
 449 623 484 480 484 423 c 2
 484 0 l 1
 379 0 l 1
 379 413 l 2
 379 463.25 363 547 252 547 c 0
 144.857421875 547 113.786132812 473.5234375 102 428 c 1
EndSplineSet
EndChar

StartChar: uni0E33
Encoding: 3635 3635 147
Width: 574
GlyphClass: 2
Flags: MW
HStem: 0 21G<379 484 379 379> 547 76<198.429 307.5> 690 55 865 55
VStem: -315 65 -130 65 30 72<428 456> 379 105<0 413 413 423 0 438.125>
LayerCount: 2
Fore
SplineSet
102 428 m 1
 30 456 l 1
 49 521 85 623 252 623 c 0
 449 623 484 480 484 423 c 2
 484 0 l 1
 379 0 l 1
 379 413 l 2
 379 463.25 363 547 252 547 c 0
 144.857421875 547 113.786132812 473.5234375 102 428 c 1
-194 935 m 0
 -128 935 -75 882 -75 816 c 0
 -75 751 -128 697 -194 697 c 0
 -259 697 -312 751 -312 816 c 0
 -312 882 -259 935 -194 935 c 0
-194 759 m 0
 -162 759 -136 784 -136 816 c 0
 -136 848 -162 874 -194 874 c 0
 -225 874 -251 848 -251 816 c 0
 -251 784 -225 759 -194 759 c 0
EndSplineSet
Substitution2: "Single Substitution lookup 11 subtable" uni0E33.alt
EndChar

StartChar: uni0E34
Encoding: 3636 3636 148
Width: 0
VWidth: 1240
GlyphClass: 4
Flags: HMW
HStem: 715 219
AnchorPoint: "Anchor-0" -75 712 mark 0
LayerCount: 2
Fore
SplineSet
-596 732 m 1
 -577 853 -488 934 -358 934 c 0
 -240 934 -105 861 -74 715 c 1
 -290 759 -385 771 -596 732 c 1
-494.474609375 793.25 m 1
 -361.474609375 804.950195312 -269.325195312 795.05078125 -170.525390625 779.750976562 c 1
 -226.575195312 863.451171875 -332.025390625 880.55078125 -397.575195312 865.250976562 c 0
 -429.875 858.05078125 -471.674804688 839.150390625 -494.474609375 793.25 c 1
EndSplineSet
Substitution2: "Single Substitution lookup 8 subtable" uni0E34.left
EndChar

StartChar: uni0E35
Encoding: 3637 3637 149
Width: 0
VWidth: 1240
GlyphClass: 2
Flags: HMW
HStem: 718 267
VStem: -190 95<875 985 737 985>
LayerCount: 2
Fore
SplineSet
-612 735 m 1
 -593 856 -504 937 -374 937 c 0
 -311 937 -244 916 -190 875 c 1
 -190 985 l 1
 -95 985 l 1
 -95 737 l 2
 -93 731 -91 724 -90 718 c 1
 -306 762 -401 774 -612 735 c 1
-510.474609375 792.25 m 1
 -377.474609375 803.950195312 -285.325195312 794.048828125 -186.525390625 778.749023438 c 1
 -266.866210938 898.723632812 -454.985351562 903.958984375 -510.474609375 792.25 c 1
EndSplineSet
Substitution2: "Single Substitution lookup 8 subtable" uni0E35.left
EndChar

StartChar: uni0E36
Encoding: 3638 3638 150
Width: 1
VWidth: 1240
GlyphClass: 2
Flags: HMW
HStem: 953 53<-166.5 -139>
VStem: -104 53<890 917.5>
LayerCount: 2
Fore
SplineSet
-153 1006 m 0
 -96 1006 -51 961 -51 904 c 0
 -51 861 -76 825 -114 809 c 1
 -95 782 -81 751 -74 715 c 1
 -290 759 -385 771 -596 732 c 1
 -577 853 -488 934 -358 934 c 0
 -323 934 -288 928 -253 915 c 1
 -248 967 -205 1006 -153 1006 c 0
-153 856 m 0
 -125 856 -104 876 -104 904 c 0
 -104 931 -125 953 -153 953 c 0
 -180 953 -201 931 -201 904 c 0
 -201 876 -180 856 -153 856 c 0
-494.474609375 793.25 m 1
 -361.474609375 804.950195312 -269.325195312 795.05078125 -170.525390625 779.750976562 c 1
 -226.575195312 863.451171875 -332.025390625 880.55078125 -397.575195312 865.250976562 c 0
 -429.875 858.05078125 -471.674804688 839.150390625 -494.474609375 793.25 c 1
EndSplineSet
Substitution2: "Single Substitution lookup 8 subtable" uni0E36.left
EndChar

StartChar: uni0E37
Encoding: 3639 3639 151
Width: 0
VWidth: 1240
GlyphClass: 2
Flags: HMW
HStem: 715 267
VStem: -335 95<931 982 903 982> -189 95<872 982 734 982>
LayerCount: 2
Fore
SplineSet
-611 732 m 1
 -592 853 -503 934 -373 934 c 0
 -360 934 -347 933 -335 931 c 1
 -335 982 l 1
 -240 982 l 1
 -240 903 l 1
 -222 895 -205 884 -189 872 c 1
 -189 982 l 1
 -94 982 l 1
 -94 734 l 2
 -92 728 -90 721 -89 715 c 1
 -305 759 -400 771 -611 732 c 1
-509.474609375 793.25 m 1
 -376.474609375 804.950195312 -284.325195312 795.05078125 -185.525390625 779.750976562 c 1
 -241.575195312 863.451171875 -347.025390625 880.55078125 -412.575195312 865.250976562 c 0
 -444.875 858.05078125 -486.674804688 839.150390625 -509.474609375 793.25 c 1
EndSplineSet
Substitution2: "Single Substitution lookup 8 subtable" uni0E37.left
EndChar

StartChar: uni0E38
Encoding: 3640 3640 152
Width: 0
GlyphClass: 2
Flags: MW
HStem: -240 50 -110 50
VStem: -290 50<-186 -157.5 -186 -143.5> -200 90 -160 50
LayerCount: 2
Fore
SplineSet
-188 -70 m 0xe0
 -132 -70 -84 -115 -84 -172 c 2
 -84 -362 l 1
 -188 -362 l 1
 -188 -274 l 1
 -245 -274 -290 -228 -290 -172 c 0
 -290 -115 -245 -70 -188 -70 c 0xe0
-188 -223 m 0
 -160 -223 -137 -200 -137 -172 c 0
 -137 -143 -160 -120 -188 -120 c 0
 -217 -120 -240 -143 -240 -172 c 0
 -240 -200 -217 -223 -188 -223 c 0
EndSplineSet
Substitution2: "Single Substitution lookup 6 subtable" uni0E38.low
EndChar

StartChar: uni0E39
Encoding: 3641 3641 153
Width: 0
GlyphClass: 2
Flags: MW
HStem: -340 55 -240 50 -110 50
VStem: -470 50 -370 80 -340 50 -190 80
LayerCount: 2
Fore
SplineSet
-265 -305 m 1xf2
 -210 -305 l 2
 -200 -305 -195 -305 -195 -280 c 2
 -195 -79 l 1
 -91 -79 l 1
 -91 -280 l 2
 -91 -362 -129 -362 -210 -362 c 2
 -369 -362 l 1
 -369 -274 l 1
 -426 -274 -471 -228 -471 -172 c 0
 -471 -115 -426 -70 -369 -70 c 0
 -313 -70 -265 -115 -265 -172 c 2
 -265 -305 l 1xf2
-369 -223 m 0
 -341 -223 -318 -200 -318 -172 c 0
 -318 -143 -341 -120 -369 -120 c 0
 -398 -120 -421 -143 -421 -172 c 0
 -421 -200 -398 -223 -369 -223 c 0
EndSplineSet
Substitution2: "Single Substitution lookup 6 subtable" uni0E39.low
EndChar

StartChar: uni0E3A
Encoding: 3642 3642 154
Width: 0
GlyphClass: 2
Flags: MW
HStem: -210 140
VStem: -220 140
LayerCount: 2
Fore
SplineSet
-78 -146 m 0
 -78 -183 -108 -214 -146 -214 c 0
 -183 -214 -214 -183 -214 -146 c 0
 -214 -109 -183 -78 -146 -78 c 0
 -108 -78 -78 -109 -78 -146 c 0
EndSplineSet
Substitution2: "Single Substitution lookup 6 subtable" uni0E3A.low
EndChar

StartChar: uni0E3F
Encoding: 3647 3647 155
Width: 644
GlyphClass: 2
Flags: MW
HStem: 0 90<156 252 156 252 67 252> 370 90 715 85
VStem: 90 100 290 70 460 100 500 100
LayerCount: 2
Fore
SplineSet
575 227 m 0xf8
 575 71 475 -2 342 0 c 1
 342 -92 l 1
 252 -92 l 1
 252 0 l 1
 67 0 l 1
 67 800 l 1
 252 800 l 1
 252 885 l 1
 342 885 l 1
 342 798 l 1
 467 790 535 713 535 583 c 0
 535 514 515 460 478 424 c 1
 542 387 575 320 575 227 c 0xf8
342 368 m 1
 342 90 l 1
 417 90 486 107 486 227 c 0
 486 345 423 367 342 368 c 1
156 368 m 1
 156 90 l 1
 252 90 l 1
 252 368 l 1
 156 368 l 1
156 710 m 1
 156 460 l 1
 252 460 l 1
 252 710 l 1
 156 710 l 1
446 583 m 0
 446 662 407 699 342 708 c 1
 342 461 l 1
 403 468 446 503 446 583 c 0
EndSplineSet
EndChar

StartChar: uni0E40
Encoding: 3648 3648 156
Width: 388
GlyphClass: 2
Flags: MW
HStem: -10 60 150 60 580 20G
VStem: 110 60 110 100 270 60
LayerCount: 2
Fore
SplineSet
120 603 m 1xe4
 224 603 l 1
 224 226 l 1
 229 227 234 227 239 227 c 0
 305 227 358 174 358 109 c 0
 358 43 305 -10 239 -10 c 0
 174 -10 120 43 120 109 c 2
 120 603 l 1xe4
297 109 m 0
 297 140 271 166 239 166 c 0
 207 166 182 140 182 109 c 0
 182 77 207 51 239 51 c 0
 271 51 297 77 297 109 c 0
EndSplineSet
EndChar

StartChar: uni0E41
Encoding: 3649 3649 157
Width: 658
GlyphClass: 2
Flags: MW
HStem: -10 60 150 60 580 20
VStem: 110 60 110 100 270 60 380 60 380 100 540 60
LayerCount: 2
Fore
SplineSet
390 603 m 1xe080
 494 603 l 1
 494 226 l 1
 499 227 504 227 509 227 c 0
 575 227 628 174 628 109 c 0
 628 43 575 -10 509 -10 c 0
 444 -10 390 43 390 109 c 2
 390 603 l 1xe080
567 109 m 0
 567 140 541 166 509 166 c 0
 477 166 452 140 452 109 c 0
 452 77 477 51 509 51 c 0
 541 51 567 77 567 109 c 0
120 603 m 1xe4
 224 603 l 1
 224 226 l 1
 229 227 234 227 239 227 c 0
 305 227 358 174 358 109 c 0
 358 43 305 -10 239 -10 c 0
 174 -10 120 43 120 109 c 2
 120 603 l 1xe4
297 109 m 0
 297 140 271 166 239 166 c 0
 207 166 182 140 182 109 c 0
 182 77 207 51 239 51 c 0
 271 51 297 77 297 109 c 0
EndSplineSet
EndChar

StartChar: uni0E42
Encoding: 3650 3650 158
Width: 431
GlyphClass: 2
Flags: MW
HStem: -10 61<279 311 279 328> 166 61<292.5 311>
VStem: 176 62<109 124.5 93 788> 176 104<226 788 226 788 226 788> 353 61<93 124.5>
LayerCount: 2
Fore
SplineSet
176 109 m 2xe8
 176 788 l 1
 171 841 54 856 10 865 c 1
 48 956.7421875 113 1015.96777344 210 1009 c 0
 299 1005 366 934 429 1013 c 1
 475 950 l 1
 418 895 357 896 285 919 c 0
 256 927 228 936 202 938 c 0
 175 940 141 919 128 900 c 1
 202 878 280 849 280 788 c 2
 280 226 l 1xd8
 285 227 290 227 295 227 c 0
 361 227 414 174 414 109 c 0
 414 43 361 -10 295 -10 c 0
 230 -10 176 43 176 109 c 2xe8
353 109 m 0
 353 140 327 166 295 166 c 0
 263 166 238 140 238 109 c 0xe8
 238 77 263 51 295 51 c 0
 327 51 353 77 353 109 c 0
EndSplineSet
EndChar

StartChar: uni0E43
Encoding: 3651 3651 159
Width: 496
GlyphClass: 2
Flags: MW
HStem: -10 60 150 60 670 45 860 60
VStem: 20 45 150 60 150 100 290 70
LayerCount: 2
Fore
SplineSet
238 109 m 2xfd
 239 645 l 1
 271 704 296 764 288 870 c 0
 283 912 234 945 185 945 c 0
 161 945 115 934 101 908 c 1
 111 911 121 912 131 912 c 0
 197 912 250 859 250 793 c 0xfb
 250 728 197 674 131 674 c 0
 28 674 -3 788 12 874 c 0
 25 944 93 1005 185 1005 c 0
 279 1005 377 952 377 870 c 0
 377 752 357 731 342 660 c 1
 342 226 l 1
 347 227 352 227 357 227 c 0
 423 227 476 174 476 109 c 0
 476 43 423 -10 357 -10 c 0
 292 -10 238 43 238 109 c 2xfd
415 109 m 0
 415 140 389 166 357 166 c 0
 325 166 300 140 300 109 c 0
 300 77 325 51 357 51 c 0
 389 51 415 77 415 109 c 0
131 736 m 0
 163 736 189 761 189 793 c 0
 189 825 163 851 131 851 c 0
 100 851 74 825 74 793 c 0
 74 761 100 736 131 736 c 0
EndSplineSet
EndChar

StartChar: uni0E44
Encoding: 3652 3652 160
Width: 456
GlyphClass: 2
Flags: MW
HStem: -10 61<301 333 301 350> 166 61<314.5 333>
VStem: 198 62<109 124.5 93 652> 198 104<226 652 652 652> 375 61<93 124.5>
LayerCount: 2
Fore
SplineSet
302 662 m 1xd8
 302 226 l 1xd8
 307 227 312 227 317 227 c 0
 383 227 436 174 436 109 c 0
 436 43 383 -10 317 -10 c 0
 252 -10 198 43 198 109 c 2xe8
 198 652 l 1
 215 743.303710938 257 881.700195312 233 899 c 1
 153 730 l 1
 82 730 l 1
 10 993 l 1
 66 1021 l 1
 124 801 l 1
 215 1001 l 1
 242 1001 l 2
 267 1001 332 1001 332 938 c 1
 302 662 l 1xd8
375 109 m 0
 375 140 349 166 317 166 c 0
 285 166 260 140 260 109 c 0xe8
 260 77 285 51 317 51 c 0
 349 51 375 77 375 109 c 0
EndSplineSet
EndChar

StartChar: uni0E45
Encoding: 3653 3653 161
Width: 574
GlyphClass: 2
Flags: MW
HStem: 547 76<202 307.5>
VStem: 30 82<428 456> 379 105<-238 413 413 423 -238 438.125>
LayerCount: 2
Fore
SplineSet
112 428 m 1
 30 456 l 1
 49 521 85 623 252 623 c 0
 449 623 484 480 484 423 c 2
 484 -238 l 1
 379 -238 l 1
 379 413 l 2
 379 463.25 363 547 252 547 c 0
 152 547 123 473.5234375 112 428 c 1
EndSplineSet
EndChar

StartChar: uni0E46
Encoding: 3654 3654 162
Width: 806
GlyphClass: 2
Flags: MW
HStem: 234 62 411 61 591 20G
VStem: 200 65 380 61<336.999 368.999> 582 104<-93.001 402.999 402.999 420.999>
LayerCount: 2
Fore
SplineSet
322 472 m 1
 388 472 441 418.999023438 441 352.999023438 c 0
 441 287.999023438 388 233.999023438 322 233.999023438 c 0
 247 233.999023438 196.194335938 296.990234375 200 382.999023438 c 0
 205 495.999023438 250 564.999023438 355 610.999023438 c 1
 445 540.999023438 l 1
 533 610.999023438 l 1
 633 566.999023438 681 519.999023438 686 420.999023438 c 1
 686 -102.000976562 l 2
 686 -154.000976562 546 -240.000976562 494 -273.000976562 c 1
 457 -214.000976562 l 1
 463 -211.000976562 582 -128.000976562 582 -93.0009765625 c 2
 582 402.999023438 l 2
 582 461.077148438 572 497.030273438 532 520.999023438 c 1
 444 476.999023438 l 1
 357 521.999023438 l 1
 343 513.666015625 332 487.833007812 322 472 c 1
322 410.999023438 m 0
 291 410.999023438 265 384.999023438 265 352.999023438 c 0
 265 320.999023438 291 295.999023438 322 295.999023438 c 0
 354 295.999023438 380 320.999023438 380 352.999023438 c 0
 380 384.999023438 354 410.999023438 322 410.999023438 c 0
EndSplineSet
EndChar

StartChar: uni0E47
Encoding: 3655 3655 163
Width: 0
GlyphClass: 2
Flags: MW
HStem: 706 46<-198.5 -184 -198.5 -173.5> 764 54<-344.5 -333 -354 -313> 812 38<-198.5 -184> 881 55<-372.5 -340 -392 -335.5>
VStem: -497 70<813 840.5 813 854.5> -264 44 -171 71<973 973 973 999> -163 45<774 789.5>
LayerCount: 2
Fore
SplineSet
-333 818 m 0xde
 -310 816 -289 802 -264 785 c 1
 -263 821 -230 850 -191 850 c 0
 -152 850 -118 820 -118 782 c 0xbd
 -118 746 -149 706 -198 706 c 0
 -252 706 -292 764 -334 764 c 0
 -355 764 -362 736 -364 715 c 1
 -423 715 l 1
 -456 729 -497 777 -497 823 c 0
 -497 886 -426 936 -358 936 c 0
 -322 936 -285 930 -245 930 c 0
 -202 930 -171 941 -171 999 c 1
 -100 973 l 1
 -116 892 -169 877 -239 877 c 0
 -276 877 -313 881 -358 881 c 0
 -387 881 -427 858 -427 823 c 0
 -427 803 -419 787 -402 775 c 1
 -391 800 -375 818 -333 818 c 0xde
-191 752 m 0
 -177 752 -163 767 -163 781 c 0
 -163 798 -177 812 -191 812 c 0
 -206 812 -220 798 -220 781 c 0
 -220 767 -206 752 -191 752 c 0
EndSplineSet
Substitution2: "Single Substitution lookup 8 subtable" uni0E47.left
EndChar

StartChar: uni0E48
Encoding: 3656 3656 164
Width: 0
GlyphClass: 4
Flags: MW
HStem: 1000 181<-189 -94 -189 -94>
VStem: -189 95<1000 1181>
LayerCount: 2
Fore
SplineSet
-94 1000 m 1
 -189 1000 l 1
 -189 1181 l 1
 -94 1181 l 1
 -94 1000 l 1
EndSplineSet
Substitution2: "Single Substitution lookup 14 subtable" uni0E48.low
Substitution2: "Single Substitution lookup 10 subtable" uni0E48.high.left
Substitution2: "Single Substitution lookup 9 subtable" uni0E48.low.left
EndChar

StartChar: uni0E49
Encoding: 3657 3657 165
Width: 0
GlyphClass: 2
Flags: MW
HStem: 991 29<-311 -311> 1094 46<-270.5 -256.5> 1229 45<-270.5 -245>
VStem: -348 44<1171.5 1196.5 1171.5 1209.5> -211 43<1184 1196.5> -27 69<1244 1263>
LayerCount: 2
Fore
SplineSet
-258 1140 m 0
 -232 1140 -211 1159 -211 1184 c 0
 -211 1209 -232 1229 -258 1229 c 0
 -283 1229 -304 1209 -304 1184 c 0
 -304 1159 -283 1140 -258 1140 c 0
-168 1184 m 1
 -163 1143 -185 1089 -199 1062 c 1
 -113 1070 -37 1152 -27 1263 c 1
 42 1244 l 1
 31 1149 -43 981 -311 991 c 1
 -311 1020 l 1
 -278 1031 -238 1060 -242 1096 c 1
 -249 1094 -255 1094 -258 1094 c 0
 -308 1094 -348 1133 -348 1184 c 0
 -348 1235 -308 1274 -258 1274 c 0
 -210 1274 -168 1235 -168 1184 c 1
EndSplineSet
Substitution2: "Single Substitution lookup 14 subtable" uni0E49.low
Substitution2: "Single Substitution lookup 10 subtable" uni0E49.high.left
Substitution2: "Single Substitution lookup 9 subtable" uni0E49.low.left
EndChar

StartChar: uni0E4A
Encoding: 3658 3658 166
Width: 0
GlyphClass: 2
Flags: MW
HStem: 1000 35 1005 45 1095 35 1180 50
VStem: -390 60 -270 36 -154 54 -70 70
LayerCount: 2
Fore
SplineSet
-420 1042 m 0x3f
 -424 1055 -426 1070 -426 1090 c 0
 -426 1145 -404 1216 -326 1257 c 1
 -259 1210 l 1
 -238 1225 -213 1242 -192 1256 c 1
 -114 1223 -96 1152 -96 1114 c 0
 -99 1090 -102 1067 -105 1055 c 1
 -55 1072 -42 1208 -52 1254 c 1
 14 1254 l 1
 20 1213 23 1006 -161 979 c 1
 -195 995 l 1
 -179 1014 -164 1064 -163 1111 c 0
 -164 1157 -175 1182 -193 1199 c 1
 -214 1187 -241 1170 -260 1160 c 1
 -326 1199 l 1
 -333 1193 -346 1167 -344 1155 c 1
 -333 1155 l 2
 -283 1155 -244 1116 -244 1066 c 0
 -244 1017 -283 975 -333 975 c 0
 -375 975 -410 1005 -420 1042 c 0x3f
-333 1104 m 0
 -355 1104 -373 1088 -373 1067 c 0
 -373 1044 -355 1026 -333 1026 c 0
 -313 1026 -295 1044 -295 1067 c 0
 -295 1088 -313 1104 -333 1104 c 0
EndSplineSet
Substitution2: "Single Substitution lookup 14 subtable" uni0E4A.low
Substitution2: "Single Substitution lookup 10 subtable" uni0E4A.high.left
Substitution2: "Single Substitution lookup 9 subtable" uni0E4A.low.left
EndChar

StartChar: uni0E4B
Encoding: 3659 3659 167
Width: 0
GlyphClass: 2
Flags: MW
HStem: 1070 64<-283.5 -191.5 -283.5 -191.5 -97.5 -5.5>
VStem: -191.5 94<988 1070 988 1070 1134 1216>
LayerCount: 2
Fore
SplineSet
-97.5 988 m 1
 -191.5 988 l 1
 -191.5 1070 l 1
 -283.5 1070 l 1
 -283.5 1134 l 1
 -191.5 1134 l 1
 -191.5 1216 l 1
 -97.5 1216 l 1
 -97.5 1134 l 1
 -5.5 1134 l 1
 -5.5 1070 l 1
 -97.5 1070 l 1
 -97.5 988 l 1
EndSplineSet
Substitution2: "Single Substitution lookup 14 subtable" uni0E4B.low
Substitution2: "Single Substitution lookup 10 subtable" uni0E4B.high.left
Substitution2: "Single Substitution lookup 9 subtable" uni0E4B.low.left
EndChar

StartChar: uni0E4C
Encoding: 3660 3660 168
Width: 0
GlyphClass: 2
Flags: MW
HStem: 902 42<-191 -179 -191 -150.5>
VStem: -276 54<990 998.5 975 1024> -136 53<974.5 998> -9 93<1202 1223>
LayerCount: 2
Fore
SplineSet
-9 1223 m 1
 84 1202 l 1
 66 1100 -20 1074 -116 1054 c 1
 -92 1035 -83 1012 -83 989 c 0
 -83 940 -121 902 -180 902 c 0
 -240 902 -277 941 -276 990 c 0
 -276 1058 -222 1087 -161 1099 c 0
 -90 1113 -28 1134 -9 1223 c 1
-179 944 m 0
 -156 943 -136 963 -136 986 c 0
 -136 1010 -155 1029 -179 1029 c 0
 -202 1029 -222 1010 -222 987 c 0
 -222 963 -203 944 -179 944 c 0
EndSplineSet
Substitution2: "Single Substitution lookup 14 subtable" uni0E4C.low
Substitution2: "Single Substitution lookup 10 subtable" uni0E4C.high.left
Substitution2: "Single Substitution lookup 9 subtable" uni0E4C.low.left
EndChar

StartChar: uni0E4D
Encoding: 3661 3661 169
Width: 0
GlyphClass: 2
Flags: MW
HStem: 690 55 865 55
VStem: -315 65 -130 65
LayerCount: 2
Fore
SplineSet
-194 935 m 0
 -128 935 -75 882 -75 816 c 0
 -75 751 -128 697 -194 697 c 0
 -259 697 -312 751 -312 816 c 0
 -312 882 -259 935 -194 935 c 0
-194 759 m 0
 -162 759 -136 784 -136 816 c 0
 -136 848 -162 874 -194 874 c 0
 -225 874 -251 848 -251 816 c 0
 -251 784 -225 759 -194 759 c 0
EndSplineSet
Substitution2: "Single Substitution lookup 16 subtable" uni0E4D.high
Substitution2: "Single Substitution lookup 12 subtable" uni0E4D.high.left
Substitution2: "Single Substitution lookup 10 subtable" uni0E4D.high.left
Substitution2: "Single Substitution lookup 8 subtable" uni0E4D.low.left
EndChar

StartChar: uni0E4E
Encoding: 3662 3662 170
Width: 0
GlyphClass: 2
Flags: MW
HStem: 694 54<-267.5 -234.5 -267.5 -229> 840 52 968 47<-138 -110> 977 47<-248 -222>
VStem: -415 92<776 809.5 776 811.5> -361 93<922.5 948 914 967.5>
LayerCount: 2
Fore
SplineSet
-109 908 m 1xd4
 -93 853 l 1
 -114 847 -136 842 -176 840 c 0
 -248 842 -323 830 -323 789 c 0
 -323 763 -291 748 -244 748 c 0
 -225 748 -193 754 -162 762 c 1
 -147 708 l 1
 -178 700 -214 694 -244 694 c 0
 -310 694 -415 710 -415 789 c 0xd8
 -415 834 -379 860 -331 877 c 1
 -349 893 -361 912 -361 933 c 0
 -361 1002 -306 1024 -235 1024 c 0xd4
 -193 1024 -157 1015 -119 1015 c 0
 -95 1015 -61 1023 -5 1059 c 1
 -3 1007 l 1
 -42 977 -88 968 -132 968 c 0xe4
 -172 968 -205 977 -239 977 c 0
 -257 977 -268 963 -268 933 c 0
 -268 895 -211 892 -186 892 c 0
 -170 892 -145 896 -109 908 c 1xd4
EndSplineSet
EndChar

StartChar: uni0E4F
Encoding: 3663 3663 171
Width: 664
GlyphClass: 2
Flags: MW
HStem: -20 70 140 65 395 65 550 70
VStem: 80 70 240 65 495 65 650 70
LayerCount: 2
Fore
SplineSet
331 515 m 0
 471 515 583 406 583 282 c 0
 583 154 464 51 331 51 c 0
 194 51 81 157 81 283 c 0
 81 412 199 515 331 515 c 0
331 121 m 0
 412 121 484 197 484 283 c 0
 484 374 407 444 331 444 c 0
 251 444 180 369 180 283 c 0
 180 192 255 121 331 121 c 0
331 375 m 0
 393 375 434 333 434 283 c 0
 434 232 393 191 331 191 c 0
 271 191 230 231 230 283 c 0
 230 336 269 375 331 375 c 0
EndSplineSet
EndChar

StartChar: uni0E50
Encoding: 3664 3664 172
Width: 772
GlyphClass: 2
Flags: MW
HStem: -8 73<386 386> 427 73<387 387>
VStem: 78 102<182.508 309.966 182.508 332> 591 103<181.56 309.492>
LayerCount: 2
Fore
SplineSet
386 -8 m 1
 216 -9 78 76 78 246 c 0
 78 418 215 500 387 500 c 0
 559 500 694 416 694 246 c 0
 694 80 560 -15 386 -8 c 1
387 427 m 0
 272 427.947265625 180 373.931640625 180 246 c 0
 180 119.015625 273 65 387 65 c 0
 501 65 591 117.120117188 591 246 c 0
 591 372.984375 500 427.947265625 387 427 c 0
EndSplineSet
EndChar

StartChar: uni0E51
Encoding: 3665 3665 173
Width: 772
GlyphClass: 2
Flags: MW
HStem: -4 68<280.5 338 280.5 397.5> 247 61<371.5 403> 428 73<322 449.5>
VStem: 71 102<181.712 308.936 181.712 329.5> 269 61<173 205 173 222> 445 61<189 189> 598 103<181 309.41>
LayerCount: 2
Fore
SplineSet
362 73 m 1
 309 85 269 133 269 189 c 0
 269 255 322 308 387 308 c 0
 453 308 506.868164062 254.994140625 506 189 c 0
 505 113 462 -4 333 -4 c 0
 166 -4 71 82 71 243 c 0
 71 416 199 501 386 501 c 0
 557 501 701 426 701 243 c 0
 701 73 618 -1 529 -80 c 1
 477 -18 l 1
 561 50 598 119 598 243 c 0
 598 375.8203125 513 428 386 428 c 0
 258 428 173 374.872070312 173 243 c 0
 173 120.423828125 228 64 333 64 c 0
 343 64 360 67.2138671875 362 73 c 1
387 132 m 0
 419 132 445 157 445 189 c 0
 445 221 419 247 387 247 c 0
 356 247 330 221 330 189 c 0
 330 157 356 132 387 132 c 0
EndSplineSet
EndChar

StartChar: uni0E52
Encoding: 3666 3666 174
Width: 770
GlyphClass: 2
Flags: MW
HStem: 0 63<190 194 194 529> 104 61<360.5 392 360.5 409> 280 61<365 392> 430 73<347.5 379.5 529 567.5>
VStem: 72 103<83 83> 225 94<206 375.5> 434 61<206 238> 600 102<148 308 148 312 148 312>
LayerCount: 2
Fore
SplineSet
316 325 m 1
 334 335 354 341 376 341 c 0
 442 341 495 288 495 222 c 0
 495 157 442 104 376 104 c 0
 320 104 271.677734375 129.79296875 248 167 c 0
 227 200 225 267 225 326 c 0
 225 425 251 503 370 503 c 0
 405 503 434 470 455 447 c 1
 475 473 502 503 540 503 c 0
 672 503 702 413 702 308 c 2
 702 148 l 1
 706 67 612 -4 529 0 c 1
 194 0 l 2
 110 -0 71.8193359375 0 72 83 c 2
 73 543 l 2
 73.078125 579 37 606 2 617 c 1
 28 710 l 1
 113 680 171 614 175 555 c 1
 175 88 l 2
 175 63 181 63 190 63 c 2
 530 63 l 2
 563 63 600 102 600 148 c 2
 600 312 l 1
 596 374.6875 595 430 540 430 c 0
 518 430 497 373.8046875 486 358 c 1
 423 358 l 1
 412 373.8046875 389 430 370 430 c 0
 325 430 317 374.3046875 316 325 c 1
376 165 m 0
 408 165 434 190 434 222 c 0
 434 254 408 280 376 280 c 0
 345 280 319 254 319 222 c 0
 319 190 345 165 376 165 c 0
EndSplineSet
EndChar

StartChar: uni0E53
Encoding: 3667 3667 175
Width: 772
GlyphClass: 2
Flags: MW
HStem: -10 62<216.5 248 216.5 265> 167 61<221.5 248> 427 73<234 286.5 498 543.5>
VStem: 71 102<240.5 293.974 240.5 314> 290 61<93 125> 345 103<196 328 196 328> 600 103<205.222 294.92>
LayerCount: 2
Fore
SplineSet
506 500 m 0xfa
 655 500 703 371 703 249 c 0
 703 151.7265625 679 82.3837890625 602 -12 c 1
 548 52 l 1
 589 109.1015625 600 161.444335938 600 249 c 0
 600 340.840820312 581 427 506 427 c 0
 490 427 474.734375 413.529296875 462 387 c 0
 450 362 448 328 448 328 c 1
 448 196 l 1
 345 196 l 1
 345 328 l 1xf6
 345 328 343.690429688 362.34375 331 387 c 0
 317 414.200195312 296 427 277 427 c 0
 191 427 173 338.947265625 173 249 c 0
 173 232 174 219 174 212 c 1
 191 222 211 228 232 228 c 0
 298 228 351 175 351 109 c 0
 351 44 298 -10 232 -10 c 0
 168 -10 114.442382812 22.892578125 96 69 c 0
 80 109 71 161 71 249 c 0
 71 379 118 500 277 500 c 0
 323 500 367 484 396 456 c 1
 421 484 460 500 506 500 c 0xfa
232 167 m 0
 201 167 175 141 175 109 c 0
 175 77 201 52 232 52 c 0
 264 52 290 77 290 109 c 0xfa
 290 141 264 167 232 167 c 0
EndSplineSet
EndChar

StartChar: uni0E54
Encoding: 3668 3668 176
Width: 771
GlyphClass: 2
Flags: MW
HStem: 0 75<612 689 612 689> 302 61<376.5 408> 421 73<310.5 535 376 535>
VStem: 50 103<181.707 305.064 181.707 329.5> 274 61<235 260 228 277> 450 61<228 260> 642 102<611.769 678>
LayerCount: 2
Fore
SplineSet
285 193 m 0
 278 208 274 226 274 244 c 0
 274 310 327 363 392 363 c 0
 458 363 511 310 511 244 c 0
 511 195 481 152 437 134 c 1
 508 86.1162109375 590 75 612 75 c 2
 689 75 l 1
 689 0 l 1
 376 0 l 2
 189 0 50 59 50 252 c 0
 50 407 184 494 376 494 c 2
 535 494 l 2
 608 494 639 575.90234375 642 678 c 1
 744 678 l 1
 744 545.537109375 672 421 535 421 c 2
 376 421 l 2
 245 421 153 358.12890625 153 252 c 0
 153 111.413085938 247 73 376 73 c 2
 411 73 l 1
 358.19140625 101.615234375 307.931640625 143.861328125 285 193 c 0
392 187 m 0
 424 187 450 212 450 244 c 0
 450 276 424 302 392 302 c 0
 361 302 335 276 335 244 c 0
 335 212 361 187 392 187 c 0
EndSplineSet
EndChar

StartChar: uni0E55
Encoding: 3669 3669 177
Width: 771
GlyphClass: 2
Flags: MW
HStem: 0 75<612 689 612 689> 302 61<376.5 408> 421 71<319 324 319 376 319 535> 610 61<410.5 442>
VStem: 50 103<181.707 305.536 181.707 320.5> 274 61<235 260 228 277> 308 61<541 568 536 585> 450 61<228 260> 484 61<541.5 568> 642 102<626.951 678>
LayerCount: 2
Fore
SplineSet
426 671 m 0xfb40
 492 671 545 618 545 552 c 0
 545 531 539 511 530 494 c 1
 535 494 l 2
 609 494 642 575.90234375 642 678 c 1
 744 678 l 1
 744 546.669921875 672 421 535 421 c 2
 376 421 l 2
 250 421 153 359.072265625 153 252 c 0
 153 111.413085938 247 73 376 73 c 2
 411 73 l 1
 358.19140625 101.615234375 307.890625 143.94921875 285 193 c 0
 278 208 274 226 274 244 c 0xfcc0
 274 310 327 363 392 363 c 0
 458 363 511 310 511 244 c 0
 511 195 481 152 437 134 c 1
 508 86.1162109375 590 75 612 75 c 2
 689 75 l 1
 689 0 l 1
 376 0 l 2
 189 0 50 59 50 252 c 0
 50 389 165 474 319 492 c 1
 324 492 l 1
 313 509 308 530 308 552 c 0
 308 618 361 671 426 671 c 0xfb40
426 495 m 0
 458 495 484 520 484 552 c 0
 484 584 458 610 426 610 c 0
 395 610 369 584 369 552 c 0xfac0
 369 520 395 495 426 495 c 0
392 187 m 0
 424 187 450 212 450 244 c 0
 450 276 424 302 392 302 c 0
 361 302 335 276 335 244 c 0xfd40
 335 212 361 187 392 187 c 0
EndSplineSet
EndChar

StartChar: uni0E56
Encoding: 3670 3670 178
Width: 774
GlyphClass: 2
Flags: MW
HStem: -10 68<371.5 444 371.5 474> 221 61<250.5 282> 427 73<375 463.5> 634 83<-12 13>
VStem: 148 61<147 179 147 196> 148 93<353 397 353 404> 324 61<147 179> 592 103<186.153 301.513>
LayerCount: 2
Fore
SplineSet
328 61 m 1xfb
 345 59.125 361 58 382 58 c 0
 506 58 592 130.306640625 592 242 c 0
 592 361.025390625 526 427 401 427 c 0
 343 427 251 402.80859375 241 353 c 1
 148 353 l 1xf7
 148 397 l 2
 148 411 149 425 149 440 c 0
 149 529.748046875 124.073242188 635.813476562 -12 634 c 1
 13 717 l 1
 175 701 234 606 239 463 c 1
 287 487 349 500 401 500 c 0
 601 500 695 395 695 242 c 0
 695 76 566 -10 382 -10 c 0
 243 -10 148 50 148 163 c 0
 148 229 201 282 266 282 c 0
 332 282 385 229 385 163 c 0
 385 120 362 82 328 61 c 1xfb
266 106 m 0
 298 106 324 131 324 163 c 0
 324 195 298 221 266 221 c 0
 235 221 209 195 209 163 c 0xfb
 209 131 235 106 266 106 c 0
EndSplineSet
EndChar

StartChar: uni0E57
Encoding: 3671 3671 179
Width: 785
GlyphClass: 2
Flags: MW
HStem: -11 62<195.5 227 195.5 244> 166 61<200.5 227> 426 73<196 255.5 156 256.5 410.5 468.5>
VStem: 45 103<239 287.808 239 306.5> 269 61<92 124> 292 83<270 300 270 315.191> 510 102<222.5 297.727> 673 91<319 465.167 319 473>
LayerCount: 2
Fore
SplineSet
781 672 m 1xfb
 832 595 l 1
 810 580.421875 764 540.333007812 764 390 c 0
 764 248 744.561523438 121.413085938 673 45 c 0
 614 -18 530 -9 504 -9 c 2
 481 -9 l 1
 457 32 l 1
 505 96 510 170 510 260 c 0
 510 335.454101562 505 426 432 426 c 0
 389 426 375 336.8671875 375 300 c 2
 375 270 l 1
 292 270 l 1
 292 300 l 2xf7
 292 330.3828125 278 426 235 426 c 0
 157 426 148 326.615234375 148 249 c 0
 148 229 149.342773438 208.848632812 153 211 c 0
 170 221 190 227 211 227 c 0
 277 227 330 174 330 108 c 0
 330 43 277 -11 211 -11 c 0
 147 -11 96.548828125 20.7919921875 76 66 c 0
 56 110 45 168 45 249 c 0
 45 364 77 499 235 499 c 0
 276 499 311 463 334 437 c 1
 356 464 389 499 432 499 c 0
 589 499 612 373 612 260 c 0
 612 185 598 130 583 70 c 1
 667.953125 102.756835938 673 218.998046875 673 390 c 0
 673 556 731.576171875 631 781 672 c 1xfb
211 166 m 0
 180 166 154 140 154 108 c 0
 154 76 180 51 211 51 c 0
 243 51 269 76 269 108 c 0xfb
 269 140 243 166 211 166 c 0
EndSplineSet
EndChar

StartChar: uni0E58
Encoding: 3672 3672 180
Width: 771
GlyphClass: 2
Flags: MW
HStem: -9 73<546.5 565 546.5 616.5> 109 62<563.5 579> 127 73<347 356.5> 286 61<563.5 595> 419 73<332 545 387 545>
VStem: 71 103<206 299.032 206 320.5> 461 61<212 244 212 261> 637 61<228 228> 657 102<622.5 655 598.611 661>
LayerCount: 2
Fore
SplineSet
698 228 m 0xdf
 700 145 678 -9 555 -9 c 0
 488 -9 461.295898438 45.330078125 400 100 c 0
 382 116.053710938 358 127 355 127 c 0
 339 127 329.342773438 95.923828125 332 74 c 0
 336 41 352 21 369 -9 c 1
 310 -9 l 2
 144 -9 71 95 71 243 c 0
 71 398 210 492 387 492 c 2
 545 492 l 2
 614 492 657 584 657 661 c 1
 759 655 l 1
 759 542.221679688 672 419 545 419 c 2
 387 419 l 2
 277 419 174 355.064453125 174 243 c 0
 174 169 188 99 239 71 c 1
 237 79 237 85 237 92 c 0
 237 145 279 200 355 200 c 0xbe80
 416 200 436.290039062 158.5859375 475 122 c 0
 512 87.029296875 538 64 555 64 c 0
 575 64 586 87 590 110 c 1
 579 109 l 1
 514 109 461 163 461 228 c 0
 461 294 514 347 579 347 c 0
 645 347 696.41015625 293.98046875 698 228 c 0xdf
579 171 m 0xdf
 611 171 637 196 637 228 c 0
 637 260 611 286 579 286 c 0
 548 286 522 260 522 228 c 0
 522 196 548 171 579 171 c 0xdf
EndSplineSet
EndChar

StartChar: uni0E59
Encoding: 3673 3673 181
Width: 770
GlyphClass: 2
Flags: MW
HStem: -7 62<246.5 278 246.5 295> 170 61<246.5 278> 296 86<628 628> 398 104 417 76<220 292.5>
VStem: 61 99<235.5 285.958 235.5 312.5> 320 61<96 128>
LayerCount: 2
Fore
SplineSet
497 398 m 1xf6
 480 392.731445312 467.008789062 364.63671875 469 326 c 0
 473 248.375 554.693359375 134.893554688 614 96 c 0
 651 75.412109375 689 68 689 68 c 1
 675 -17 l 1
 530 12.908203125 445.498046875 146.682617188 398 257 c 0
 367 329 322 417 263 417 c 0
 177 417 160 323.916015625 160 248 c 0
 160 223 161 200 165 180 c 1
 186 211 222 231 262 231 c 0
 328 231 381 178 381 112 c 0
 381 47 328 -7 262 -7 c 0
 129 -7 61 136 61 248 c 0
 61 377 107 493 263 493 c 0xee
 325 493 379 452 413 379 c 1
 412 445 447.002929688 503.095703125 487 502 c 0
 560 500 602 382 629 382 c 0
 674.204101562 382 684.840820312 576 668 650 c 1
 765 657 l 1
 773 517.125 766.9921875 294.170898438 628 296 c 0
 552 297 536 397 497 398 c 1xf6
262 170 m 0
 231 170 205 144 205 112 c 0
 205 80 231 55 262 55 c 0
 294 55 320 80 320 112 c 0
 320 144 294 170 262 170 c 0
EndSplineSet
EndChar

StartChar: uni0E5A
Encoding: 3674 3674 182
Width: 822
GlyphClass: 2
Flags: MW
HStem: -20 70 360 65 555 45
VStem: 60 45 185 45 380 80 400 60 560 80
LayerCount: 2
Fore
SplineSet
616 602 m 1xf9
 721 602 l 1
 721 0 l 1
 616 0 l 1
 616 602 l 1xf9
284 386 m 0
 223 386 139 383 98 444 c 0
 87 461 80 481 80 502 c 0
 80 559 126 604 182 604 c 0
 238 604 284 559 284 502 c 0
 284 480 278 460 265 443 c 1
 371 443 438 496 449 598 c 1
 449 602 l 1
 553 602 l 1
 553 0 l 1
 449 0 l 1
 449 437 l 1
 402 404 343 386 284 386 c 0
182 451 m 0
 210 451 234 474 234 502 c 0
 234 531 210 554 182 554 c 0
 154 554 130 531 130 502 c 0
 130 474 154 451 182 451 c 0
EndSplineSet
EndChar

StartChar: uni0E5B
Encoding: 3675 3675 183
Width: 1026
GlyphClass: 2
Flags: MW
HStem: -20 65 150 60 250 50 270 60 380 50 555 65
VStem: 80 70 225 55 360 50 490 70
LayerCount: 2
Fore
SplineSet
723 324 m 1xdfc0
 667 242 l 1
 626 311 l 1
 610 277 588 233 575 204 c 1
 535 308 l 1
 491 188 l 1
 437 293 l 1
 413 163 340 87 252 87 c 0
 159 87 84 178 80 314 c 0
 80 446 137 535 226 535 c 0
 299 535 348 470 348 383 c 0
 348 331 324 250 257 250 c 0xefc0
 214 250 185 286 185 335 c 0
 185 380 213 420 257 420 c 0
 266 420 275 419 281 416 c 1
 276 455 253 475 226 475 c 0
 178 475 143 414 143 329 c 0
 143 220 190 147 252 147 c 0
 327 147 387 248 387 394 c 2
 387 410 l 1
 386 449 l 1
 431 428 l 1
 484 325 l 1
 532 463 l 1
 582 342 l 1
 622 427 l 1
 672 344 l 1
 681 357 692 370 700 381 c 1
 796 381 l 2
 851 379 894 386 917 394 c 1
 925 380 l 1
 898 353 848 333 799 324 c 1
 723 324 l 1xdfc0
229 335 m 0
 229 312 241 293 256 293 c 0
 274 293 285 312 285 335 c 0
 285 358 274 377 256 377 c 0
 241 377 229 358 229 335 c 0
EndSplineSet
EndChar

StartChar: endash
Encoding: 8211 8211 184
Width: 587
GlyphClass: 2
Flags: MW
HStem: 285 70
LayerCount: 2
Fore
SplineSet
487 354 m 1
 487 284 l 1
 100 284 l 1
 100 354 l 1
 487 354 l 1
EndSplineSet
EndChar

StartChar: emdash
Encoding: 8212 8212 185
Width: 745
GlyphClass: 2
Flags: MW
HStem: 285 70
LayerCount: 2
Fore
SplineSet
645 354 m 1
 645 284 l 1
 100 284 l 1
 100 354 l 1
 645 354 l 1
EndSplineSet
EndChar

StartChar: quoteleft
Encoding: 8216 8216 186
Width: 321
GlyphClass: 2
Flags: MW
HStem: 520 290
VStem: 80 80
LayerCount: 2
Fore
SplineSet
95 603 m 0
 107 583 129 570 153 570 c 0
 191 570 221 599 221 636 c 0
 221 675 191 704 153 704 c 0
 151 704 164 754 199 786 c 1
 194 814 l 1
 120 776 81 713 81 660 c 0
 81 640 85 620 95 603 c 0
EndSplineSet
EndChar

StartChar: quoteright
Encoding: 8217 8217 187
Width: 321
GlyphClass: 2
Flags: MW
HStem: 520 290
VStem: 140 80
LayerCount: 2
Fore
SplineSet
206 779 m 0
 216 762 220 742 220 722 c 0
 220 669 181 606 107 568 c 1
 102 596 l 1
 137 628 150 678 148 678 c 0
 110 678 80 707 80 746 c 0
 80 783 110 812 148 812 c 0
 172 812 194 799 206 779 c 0
EndSplineSet
EndChar

StartChar: quotedblleft
Encoding: 8220 8220 188
Width: 488
GlyphClass: 2
Flags: MW
HStem: 520 140 790 20G
VStem: 60 75 270 75
LayerCount: 2
Fore
SplineSet
112 602 m 0
 124 582 146 569 170 569 c 0
 208 569 238 598 238 635 c 0
 238 674 208 703 170 703 c 0
 168 703 181 753 216 785 c 1
 211 813 l 1
 137 775 98 712 98 659 c 0
 98 639 101.852539062 618.912109375 112 602 c 0
282 602 m 0
 294 582 316 569 340 569 c 0
 378 569 408 598 408 635 c 0
 408 674 378 703 340 703 c 0
 338 703 351 753 386 785 c 1
 381 813 l 1
 307 775 268 712 268 659 c 0
 268 639 271.852539062 618.912109375 282 602 c 0
EndSplineSet
EndChar

StartChar: quotedblright
Encoding: 8221 8221 189
Width: 480
GlyphClass: 2
Flags: MW
HStem: 520 20 670 140
VStem: 135 75 345 75
LayerCount: 2
Fore
SplineSet
368 728 m 0
 356 748 334 761 310 761 c 0
 272 761 242 732 242 695 c 0
 242 656 272 627 310 627 c 0
 312 627 299 577 264 545 c 1
 269 517 l 1
 343 555 382 618 382 671 c 0
 382 691 378.147460938 711.087890625 368 728 c 0
198 728 m 0
 186 748 164 761 140 761 c 0
 102 761 72 732 72 695 c 0
 72 656 102 627 140 627 c 0
 142 627 129 577 94 545 c 1
 99 517 l 1
 173 555 212 618 212 671 c 0
 212 691 208.147460938 711.087890625 198 728 c 0
EndSplineSet
EndChar

StartChar: bullet
Encoding: 8226 8226 190
Width: 425
GlyphClass: 2
Flags: MW
HStem: 230 180
VStem: 90 180
LayerCount: 2
Fore
SplineSet
335 329 m 0
 335 260 280 206 213 206 c 0
 144 206 90 260 90 329 c 0
 90 396 144 450 213 450 c 0
 280 450 335 396 335 329 c 0
EndSplineSet
EndChar

StartChar: ellipsis
Encoding: 8230 8230 191
Width: 780
GlyphClass: 2
Flags: MW
HStem: 0 140
VStem: 90 140 320 140 550 140
CounterMasks: 1 70
LayerCount: 2
Fore
SplineSet
608 131 m 0
 641 131 675 99 675 64 c 0
 675 28 641 -4 608 -4 c 0
 573 -4 540 28 540 64 c 0
 540 99 573 131 608 131 c 0
378 131 m 0
 411 131 445 99 445 64 c 0
 445 28 411 -4 378 -4 c 0
 343 -4 310 28 310 64 c 0
 310 99 343 131 378 131 c 0
148 131 m 0
 181 131 215 99 215 64 c 0
 215 28 181 -4 148 -4 c 0
 113 -4 80 28 80 64 c 0
 80 99 113 131 148 131 c 0
EndSplineSet
EndChar

StartChar: Euro
Encoding: 8364 8364 192
Width: 770
GlyphClass: 2
Flags: MW
HStem: -20 90 290 60 450 60 735 85
VStem: 140 100
LayerCount: 2
Fore
SplineSet
484 524 m 1
 484 434 l 1
 225 434 l 1
 225 404 l 2
 225 392 225 380 226 370 c 1
 484 370 l 1
 484 280 l 1
 240 280 l 1
 252 238 270 203 294 171 c 0
 334 113 387 82 443 82 c 0
 502 82 565 127 613 203 c 1
 690 156 l 1
 625 53 535 -8 443 -8 c 0
 352 -8 274 45 221 118 c 0
 188 165 164 221 149 280 c 1
 80 280 l 1
 80 370 l 1
 135 370 l 1
 135 404 l 2
 135 413 135 424 136 434 c 1
 80 434 l 1
 80 524 l 1
 148 524 l 1
 162 581 190 644 221 688 c 0
 275 761 352 813 443 813 c 0
 534 813 624 754 688 653 c 1
 611 607 l 1
 570 673 510 724 443 724 c 0
 387 724 334 692 294 634 c 0
 271 603 252 563 240 524 c 1
 484 524 l 1
EndSplineSet
EndChar

StartChar: uni0E0D.descless
Encoding: 60941 60941 193
Width: 950
GlyphClass: 2
Flags: MW
HStem: -12 61<205 237 205 254> 0 67<584 741 584 741> 164 61<218.5 237> 545 77<279.5 400.5>
VStem: 102 62<107 122.5 91 264> 102 103<107 322 280 309> 279 61<91 122.5> 480 104<67 67 67 415 415 415> 756 104<92 602>
LayerCount: 2
Fore
SplineSet
279 107 m 0xbb80
 279 138 253 164 221 164 c 0
 189 164 164 138 164 107 c 0
 164 75 189 49 221 49 c 0
 253 49 279 75 279 107 c 0xbb80
584 67 m 1x7780
 741 67 l 2
 751 67 756 67 756 92 c 2
 756 602 l 1
 860 602 l 1
 860 82 l 2
 860 0 822 0 741 0 c 2
 480 0 l 1
 480 415 l 2
 481 438 470 545 331 545 c 0
 228 545 179 484.907226562 175 458 c 1
 282 440 l 1
 282 393 l 1
 282 393 205 364 205 280 c 2x7780
 206 224 l 1
 211 225 216 225 221 225 c 0
 287 225 340 172 340 107 c 0
 340 41 287 -12 221 -12 c 0
 156 -12 102 41 102 107 c 2xbb80
 102 264 l 2
 102 354 205 403 205 403 c 1
 60 422 l 1
 60 422 91 622 329 622 c 0
 560 622 584 453 584 426 c 2
 584 67 l 1x7780
EndSplineSet
EndChar

StartChar: uni0E10.descless
Encoding: 60944 60944 194
Width: 587
GlyphClass: 2
Flags: MW
HStem: 0 21G<368 412> 434 67 546 76<253 292.089>
VStem: 395 103<127 331 331 345>
LayerCount: 2
Fore
SplineSet
269 622 m 0
 356 622 412 555.999023438 480 620.999023438 c 1
 529 547.999023438 l 1
 496.8359375 517.234375 464.061523438 507.736328125 432 508.395507812 c 0
 372.354492188 509.62109375 315.177734375 546 269 546 c 0
 237 546 198 528 178 501 c 1
 307 495.361328125 498 469.047851562 498 345 c 2
 498 82 l 2
 498 0 456 0 368 0 c 1
 286 193 l 1
 249 159 191.728515625 151.525390625 146 178 c 0
 89 211 69.6845703125 284.181640625 102 340 c 0
 135 397 206.77734375 415.604492188 265 383 c 0
 290 369 306.743164062 346.510742188 317 321 c 2
 395 127 l 1
 395 331 l 2
 395 426.14453125 245 434 54 434 c 1
 76 550.27734375 151 622 269 622 c 0
177 230.999023438 m 0
 204 214.999023438 238.67578125 225.181640625 254 251.999023438 c 0
 270 279.999023438 262 314.999023438 234 330.999023438 c 0
 206 346.999023438 171.901367188 336.463867188 155 308.999023438 c 0
 139 282.999023438 149.256835938 247.439453125 177 230.999023438 c 0
EndSplineSet
EndChar

StartChar: uni0E31.left
Encoding: 60977 60977 195
Width: 0
GlyphClass: 2
Flags: MW
HStem: 709 65<-449 -273> 877 50<-449 -421>
VStem: -537 50<814.5 839.5 811 853.5> -383 50<814 839.5> -168 93<906 921>
LayerCount: 2
Fore
SplineSet
-333 709 m 0
 -394 709 -478 706 -519 767 c 0
 -530 784 -537 804 -537 825 c 0
 -537 882 -491 927 -435 927 c 0
 -379 927 -333 882 -333 825 c 0
 -333 803 -339 783 -352 766 c 1
 -246 766 -179 819 -168 921 c 1
 -75 906 l 1
 -92 786 -213 709 -333 709 c 0
-435 774 m 0
 -407 774 -383 797 -383 825 c 0
 -383 854 -407 877 -435 877 c 0
 -463 877 -487 854 -487 825 c 0
 -487 797 -463 774 -435 774 c 0
EndSplineSet
EndChar

StartChar: uni0E33.alt
Encoding: 60979 60979 196
Width: 539
GlyphClass: 2
Flags: MW
HStem: 0 21G<368 473 368 368> 547 76<187.429 296.5> 690 55 865 55
VStem: -486 65 -301 65 19 72<428 456> 368 105<0 413 413 423 0 438.125>
LayerCount: 2
Fore
SplineSet
-395 977 m 0
 -329 977 -276 924 -276 858 c 0
 -276 793 -329 739 -395 739 c 0
 -460 739 -513 793 -513 858 c 0
 -513 924 -460 977 -395 977 c 0
-395 801 m 0
 -363 801 -337 826 -337 858 c 0
 -337 890 -363 916 -395 916 c 0
 -426 916 -452 890 -452 858 c 0
 -452 826 -426 801 -395 801 c 0
91 428 m 1
 19 456 l 1
 38 521 74 623 241 623 c 0
 438 623 473 480 473 423 c 2
 473 0 l 1
 368 0 l 1
 368 413 l 2
 368 463.25 352 547 241 547 c 0
 133.857421875 547 102.786132812 473.5234375 91 428 c 1
EndSplineSet
EndChar

StartChar: uni0E34.left
Encoding: 60980 60980 197
Width: 0
GlyphClass: 2
Flags: MW
HStem: 675 219
LayerCount: 2
Fore
SplineSet
-736 692 m 1
 -717 813 -628 894 -498 894 c 0
 -380 894 -245 821 -214 675 c 1
 -430 719 -525 731 -736 692 c 1
-634.474609375 753.25 m 1
 -501.474609375 764.950195312 -409.325195312 755.049804688 -310.525390625 739.75 c 1
 -366.575195312 823.450195312 -472.025390625 840.549804688 -537.575195312 825.25 c 0
 -569.875 818.049804688 -611.674804688 799.150390625 -634.474609375 753.25 c 1
EndSplineSet
EndChar

StartChar: uni0E35.left
Encoding: 60981 60981 198
Width: 0
GlyphClass: 2
Flags: MW
HStem: 678 267
VStem: -344 95<835 945 697 945>
LayerCount: 2
Fore
SplineSet
-766 695 m 1
 -747 816 -658 897 -528 897 c 0
 -465 897 -398 876 -344 835 c 1
 -344 945 l 1
 -249 945 l 1
 -249 697 l 2
 -247 691 -245 684 -244 678 c 1
 -460 722 -555 734 -766 695 c 1
-664.474609375 752.25 m 1
 -531.474609375 763.950195312 -439.325195312 754.049804688 -340.525390625 738.75 c 1
 -420.866210938 858.724609375 -608.985351562 863.958984375 -664.474609375 752.25 c 1
EndSplineSet
EndChar

StartChar: uni0E36.left
Encoding: 60982 60982 199
Width: 0
GlyphClass: 2
Flags: MW
HStem: 913 53<-326.5 -299>
VStem: -264 53<850 877.5>
LayerCount: 2
Fore
SplineSet
-313 966 m 0
 -256 966 -211 921 -211 864 c 0
 -211 821 -236 785 -274 769 c 1
 -255 742 -241 711 -234 675 c 1
 -450 719 -545 731 -756 692 c 1
 -737 813 -648 894 -518 894 c 0
 -483 894 -448 888 -413 875 c 1
 -408 927 -365 966 -313 966 c 0
-313 816 m 0
 -285 816 -264 836 -264 864 c 0
 -264 891 -285 913 -313 913 c 0
 -340 913 -361 891 -361 864 c 0
 -361 836 -340 816 -313 816 c 0
-654.474609375 753.25 m 1
 -521.474609375 764.950195312 -429.325195312 755.049804688 -330.525390625 739.75 c 1
 -386.575195312 823.450195312 -492.025390625 840.549804688 -557.575195312 825.25 c 0
 -589.875 818.049804688 -631.674804688 799.150390625 -654.474609375 753.25 c 1
EndSplineSet
EndChar

StartChar: uni0E37.left
Encoding: 60983 60983 200
Width: 0
GlyphClass: 2
Flags: MW
HStem: 675 267
VStem: -492 95<891 942 863 942> -346 95<832 942 694 942>
LayerCount: 2
Fore
SplineSet
-768 692 m 1
 -749 813 -660 894 -530 894 c 0
 -517 894 -504 893 -492 891 c 1
 -492 942 l 1
 -397 942 l 1
 -397 863 l 1
 -379 855 -362 844 -346 832 c 1
 -346 942 l 1
 -251 942 l 1
 -251 694 l 2
 -249 688 -247 681 -246 675 c 1
 -462 719 -557 731 -768 692 c 1
-666.474609375 753.25 m 1
 -533.474609375 764.950195312 -441.325195312 755.049804688 -342.525390625 739.75 c 1
 -398.575195312 823.450195312 -504.025390625 840.549804688 -569.575195312 825.25 c 0
 -601.875 818.049804688 -643.674804688 799.150390625 -666.474609375 753.25 c 1
EndSplineSet
EndChar

StartChar: uni0E38.low
Encoding: 60984 60984 201
Width: 0
GlyphClass: 2
Flags: MW
HStem: -430 50 -300 50
VStem: -301 50<-376 -347.5 -376 -333.5> -211 90 -171 50
LayerCount: 2
Fore
SplineSet
-199 -260 m 0xe0
 -143 -260 -95 -305 -95 -362 c 2
 -95 -552 l 1
 -199 -552 l 1
 -199 -464 l 1
 -256 -464 -301 -418 -301 -362 c 0
 -301 -305 -256 -260 -199 -260 c 0xe0
-199 -413 m 0
 -171 -413 -148 -390 -148 -362 c 0
 -148 -333 -171 -310 -199 -310 c 0
 -228 -310 -251 -333 -251 -362 c 0
 -251 -390 -228 -413 -199 -413 c 0
EndSplineSet
EndChar

StartChar: uni0E39.low
Encoding: 60985 60985 202
Width: 49
GlyphClass: 2
Flags: MW
HStem: -530 55 -430 50 -300 50
VStem: -470 50 -370 80 -340 50 -190 80
LayerCount: 2
Fore
SplineSet
-265 -495 m 1xf2
 -210 -495 l 2
 -200 -495 -195 -495 -195 -470 c 2
 -195 -269 l 1
 -91 -269 l 1
 -91 -470 l 2
 -91 -552 -129 -552 -210 -552 c 2
 -369 -552 l 1
 -369 -464 l 1
 -426 -464 -471 -418 -471 -362 c 0
 -471 -305 -426 -260 -369 -260 c 0
 -313 -260 -265 -305 -265 -362 c 2
 -265 -495 l 1xf2
-369 -413 m 0
 -341 -413 -318 -390 -318 -362 c 0
 -318 -333 -341 -310 -369 -310 c 0
 -398 -310 -421 -333 -421 -362 c 0
 -421 -390 -398 -413 -369 -413 c 0
EndSplineSet
EndChar

StartChar: uni0E3A.low
Encoding: 60986 60986 203
Width: 43
GlyphClass: 2
Flags: MW
HStem: -390 140
VStem: -249 140
LayerCount: 2
Fore
SplineSet
-107 -326 m 0
 -107 -363 -137 -394 -175 -394 c 0
 -212 -394 -243 -363 -243 -326 c 0
 -243 -289 -212 -258 -175 -258 c 0
 -137 -258 -107 -289 -107 -326 c 0
EndSplineSet
EndChar

StartChar: uni0E47.left
Encoding: 60999 60999 204
Width: 0
GlyphClass: 2
Flags: MW
HStem: 706 46<-318.5 -304 -318.5 -293.5> 764 54<-464.5 -453 -474 -433> 812 38<-318.5 -304> 881 55<-492.5 -460 -512 -455.5>
VStem: -617 70<813 840.5 813 854.5> -384 44 -291 71<973 973 973 999> -283 45<774 789.5>
LayerCount: 2
Fore
SplineSet
-453 818 m 0xde
 -430 816 -409 802 -384 785 c 1
 -383 821 -350 850 -311 850 c 0
 -272 850 -238 820 -238 782 c 0xbd
 -238 746 -269 706 -318 706 c 0
 -372 706 -412 764 -454 764 c 0
 -475 764 -482 736 -484 715 c 1
 -543 715 l 1
 -576 729 -617 777 -617 823 c 0
 -617 886 -546 936 -478 936 c 0
 -442 936 -405 930 -365 930 c 0
 -322 930 -291 941 -291 999 c 1
 -220 973 l 1
 -236 892 -289 877 -359 877 c 0
 -396 877 -433 881 -478 881 c 0
 -507 881 -547 858 -547 823 c 0
 -547 803 -539 787 -522 775 c 1
 -511 800 -495 818 -453 818 c 0xde
-311 752 m 0
 -297 752 -283 767 -283 781 c 0
 -283 798 -297 812 -311 812 c 0
 -326 812 -340 798 -340 781 c 0
 -340 767 -326 752 -311 752 c 0
EndSplineSet
EndChar

StartChar: uni0E48.low
Encoding: 61000 61000 205
Width: 0
GlyphClass: 2
Flags: MW
HStem: 680 250
VStem: -190 80
LayerCount: 2
Fore
SplineSet
-91 701 m 1
 -195 701 l 1
 -195 930 l 1
 -91 930 l 1
 -91 701 l 1
EndSplineSet
Substitution2: "Single Substitution lookup 15 subtable" uni0E48
EndChar

StartChar: uni0E49.low
Encoding: 61001 61001 206
Width: 0
GlyphClass: 2
Flags: MW
HStem: 700 55 880 40
VStem: -325 40 -215 40 -85 85
LayerCount: 2
Fore
SplineSet
-60 979 m 1
 33 952 l 1
 23 887 -65 677 -365 704 c 1
 -365 731 l 1
 -334 739 -299 760 -291 791 c 1
 -294 790 -297 790 -300 790 c 0
 -356 790 -402 836 -402 892 c 0
 -402 948 -356 994 -300 994 c 0
 -244 994 -198 948 -198 892 c 0
 -198 852 -218 813 -238 772 c 1
 -116 793 -70 899 -60 979 c 1
-300 944 m 0
 -329 944 -352 921 -352 892 c 0
 -352 864 -329 841 -300 841 c 0
 -272 841 -249 864 -249 892 c 0
 -249 921 -272 944 -300 944 c 0
EndSplineSet
Substitution2: "Single Substitution lookup 15 subtable" uni0E49
EndChar

StartChar: uni0E4A.low
Encoding: 61002 61002 207
Width: 1
GlyphClass: 2
Flags: MW
HStem: 700 35 705 45 795 35 840 21G 880 50
VStem: -390 60 -270 36 -154 54 -70 70
LayerCount: 2
Fore
SplineSet
-428 752 m 0xbf80
 -432 765 -434 780 -434 800 c 0
 -434 855 -412 926 -334 967 c 1
 -267 920 l 1
 -246 935 -221 952 -200 966 c 1
 -122 933 -104 862 -104 824 c 0
 -107 800 -110 791 -113 779 c 1
 -73 816 -78 946 -80 964 c 1
 -14 964 l 1
 -14 955 5 746 -169 689 c 1
 -203 705 l 1x7f80
 -187 724 -172 774 -171 821 c 0
 -172 867 -183 892 -201 909 c 1
 -222 897 -249 880 -268 870 c 1
 -334 909 l 1
 -341 903 -354 877 -352 865 c 1
 -341 865 l 2
 -291 865 -252 826 -252 776 c 0
 -252 727 -291 685 -341 685 c 0
 -383 685 -418 715 -428 752 c 0xbf80
-341 814 m 0
 -363 814 -381 798 -381 777 c 0
 -381 754 -363 736 -341 736 c 0
 -321 736 -303 754 -303 777 c 0
 -303 798 -321 814 -341 814 c 0
EndSplineSet
Substitution2: "Single Substitution lookup 15 subtable" uni0E4A
EndChar

StartChar: uni0E4B.low
Encoding: 61003 61003 208
Width: 0
GlyphClass: 2
Flags: MW
HStem: 787 74<-280 -198 -280 -198 -94 -12>
VStem: -198 104<705 787 705 787 861 943>
LayerCount: 2
Fore
SplineSet
-94 705 m 1
 -198 705 l 1
 -198 787 l 1
 -280 787 l 1
 -280 861 l 1
 -198 861 l 1
 -198 943 l 1
 -94 943 l 1
 -94 861 l 1
 -12 861 l 1
 -12 787 l 1
 -94 787 l 1
 -94 705 l 1
EndSplineSet
Substitution2: "Single Substitution lookup 15 subtable" uni0E4B
EndChar

StartChar: uni0E4C.low
Encoding: 61004 61004 209
Width: 0
GlyphClass: 2
Flags: MW
HStem: 670 40
VStem: -280 40 -170 40 -144 84
LayerCount: 2
Fore
SplineSet
-20 1018 m 1xc0
 73 997 l 1
 55 895 -31 869 -127 849 c 1
 -103 830 -94 807 -94 784 c 0
 -94 735 -132 697 -191 697 c 0
 -251 697 -288 736 -287 785 c 0
 -287 853 -233 882 -172 894 c 0
 -101 908 -39 929 -20 1018 c 1xc0
-190 739 m 0
 -167 738 -147 758 -147 781 c 0
 -147 805 -166 824 -190 824 c 0
 -213 824 -233 805 -233 782 c 0
 -233 758 -214 739 -190 739 c 0
EndSplineSet
Substitution2: "Single Substitution lookup 15 subtable" uni0E4C
EndChar

StartChar: uni0E4D.high
Encoding: 61005 61005 210
Width: 0
GlyphClass: 2
Flags: MW
HStem: 880 55 1055 55
VStem: -315 65 -130 65
LayerCount: 2
Fore
SplineSet
-194 1125 m 0
 -128 1125 -75 1072 -75 1006 c 0
 -75 941 -128 887 -194 887 c 0
 -259 887 -312 941 -312 1006 c 0
 -312 1072 -259 1125 -194 1125 c 0
-194 949 m 0
 -162 949 -136 974 -136 1006 c 0
 -136 1038 -162 1064 -194 1064 c 0
 -225 1064 -251 1038 -251 1006 c 0
 -251 974 -225 949 -194 949 c 0
EndSplineSet
Substitution2: "Single Substitution lookup 12 subtable" uni0E4D.high.left
EndChar

StartChar: uni0E48.low.left
Encoding: 986696 986696 211
Width: 0
GlyphClass: 2
Flags: MW
HStem: 680 250
VStem: -390 80
LayerCount: 2
Fore
SplineSet
-268 740 m 1
 -372 740 l 1
 -372 958 l 1
 -268 958 l 1
 -268 740 l 1
EndSplineSet
EndChar

StartChar: uni0E49.low.left
Encoding: 986697 986697 212
Width: 0
GlyphClass: 2
Flags: MW
HStem: 700 55 880 40
VStem: -545 40 -435 40 -305 85
LayerCount: 2
Fore
SplineSet
-211 1039 m 1
 -118 1012 l 1
 -128 947 -216 737 -516 764 c 1
 -516 791 l 1
 -485 799 -450 820 -442 851 c 1
 -445 850 -448 850 -451 850 c 0
 -507 850 -553 896 -553 952 c 0
 -553 1008 -507 1054 -451 1054 c 0
 -395 1054 -349 1008 -349 952 c 0
 -349 912 -369 873 -389 832 c 1
 -267 853 -221 959 -211 1039 c 1
-451 1004 m 0
 -480 1004 -503 981 -503 952 c 0
 -503 924 -480 901 -451 901 c 0
 -423 901 -400 924 -400 952 c 0
 -400 981 -423 1004 -451 1004 c 0
EndSplineSet
EndChar

StartChar: uni0E4A.low.left
Encoding: 986698 986698 213
Width: 0
GlyphClass: 2
Flags: MW
HStem: 700 35 705 45 795 35 840 21G 880 50
VStem: -610 60 -490 36 -374 54 -290 70
LayerCount: 2
Fore
SplineSet
-591 845 m 0x3f80
 -595 858 -597 873 -597 893 c 0
 -597 948 -575 1019 -497 1060 c 1
 -430 1013 l 1
 -409 1028 -384 1045 -363 1059 c 1
 -285 1026 -267 955 -267 917 c 0
 -270 893 -273 870 -276 858 c 1
 -226 875 -213 1011 -223 1057 c 1
 -157 1057 l 1
 -151 1016 -148 809 -332 782 c 1
 -366 798 l 1
 -350 817 -335 867 -334 914 c 0
 -335 960 -346 985 -364 1002 c 1
 -385 990 -412 973 -431 963 c 1
 -497 1002 l 1
 -504 996 -517 970 -515 958 c 1
 -504 958 l 2
 -454 958 -415 919 -415 869 c 0
 -415 820 -454 778 -504 778 c 0
 -546 778 -581 808 -591 845 c 0x3f80
-504 907 m 0
 -526 907 -544 891 -544 870 c 0
 -544 847 -526 829 -504 829 c 0
 -484 829 -466 847 -466 870 c 0
 -466 891 -484 907 -504 907 c 0
EndSplineSet
EndChar

StartChar: uni0E4B.low.left
Encoding: 986699 986699 214
Width: 0
GlyphClass: 2
Flags: MW
HStem: 877 74<-482 -390 -482 -390 -296 -204>
VStem: -390 94<795 877 795 877 951 1033>
LayerCount: 2
Fore
SplineSet
-296 795 m 1
 -390 795 l 1
 -390 877 l 1
 -482 877 l 1
 -482 951 l 1
 -390 951 l 1
 -390 1033 l 1
 -296 1033 l 1
 -296 951 l 1
 -204 951 l 1
 -204 877 l 1
 -296 877 l 1
 -296 795 l 1
EndSplineSet
EndChar

StartChar: uni0E4C.low.left
Encoding: 986700 986700 215
Width: 0
GlyphClass: 2
Flags: MW
HStem: 670 40
VStem: -460 40 -350 40 -324 84
LayerCount: 2
Fore
SplineSet
-179 1081 m 1xd0
 -86 1060 l 1
 -104 958 -190 932 -286 912 c 1
 -262 893 -253 870 -253 847 c 0
 -253 798 -291 760 -350 760 c 0xe0
 -410 760 -447 799 -446 848 c 0
 -446 916 -392 945 -331 957 c 0
 -260 971 -198 992 -179 1081 c 1xd0
-349 802 m 0
 -326 801 -306 821 -306 844 c 0
 -306 868 -325 887 -349 887 c 0
 -372 887 -392 868 -392 845 c 0
 -392 821 -373 802 -349 802 c 0
EndSplineSet
EndChar

StartChar: uni0E4D.low.left
Encoding: 986701 986701 216
Width: 0
GlyphClass: 2
Flags: MW
HStem: 690 55 865 55
VStem: -475 65 -290 65
LayerCount: 2
Fore
SplineSet
-384 977 m 0
 -318 977 -265 924 -265 858 c 0
 -265 793 -318 739 -384 739 c 0
 -449 739 -502 793 -502 858 c 0
 -502 924 -449 977 -384 977 c 0
-384 801 m 0
 -352 801 -326 826 -326 858 c 0
 -326 890 -352 916 -384 916 c 0
 -415 916 -441 890 -441 858 c 0
 -441 826 -415 801 -384 801 c 0
EndSplineSet
EndChar

StartChar: uni0E48.high.left
Encoding: 1044040 1044040 217
Width: 0
GlyphClass: 2
Flags: MW
HStem: 1010 181<-344 -249 -344 -249>
VStem: -344 95<1010 1191>
LayerCount: 2
Fore
SplineSet
-249 1010 m 1
 -344 1010 l 1
 -344 1191 l 1
 -249 1191 l 1
 -249 1010 l 1
EndSplineSet
EndChar

StartChar: uni0E49.high.left
Encoding: 1044041 1044041 218
Width: 0
GlyphClass: 2
Flags: MW
HStem: 1001 29<-420 -420> 1104 46<-379.5 -365.5> 1239 45<-379.5 -354>
VStem: -457 44<1181.5 1206.5 1181.5 1219.5> -320 43<1194 1206.5> -136 69<1254 1273>
LayerCount: 2
Fore
SplineSet
-367 1150 m 0
 -341 1150 -320 1169 -320 1194 c 0
 -320 1219 -341 1239 -367 1239 c 0
 -392 1239 -413 1219 -413 1194 c 0
 -413 1169 -392 1150 -367 1150 c 0
-277 1194 m 1
 -272 1153 -294 1099 -308 1072 c 1
 -222 1080 -146 1162 -136 1273 c 1
 -67 1254 l 1
 -78 1159 -152 991 -420 1001 c 1
 -420 1030 l 1
 -387 1041 -347 1070 -351 1106 c 1
 -358 1104 -364 1104 -367 1104 c 0
 -417 1104 -457 1143 -457 1194 c 0
 -457 1245 -417 1284 -367 1284 c 0
 -319 1284 -277 1245 -277 1194 c 1
EndSplineSet
EndChar

StartChar: uni0E4A.high.left
Encoding: 1044042 1044042 219
Width: 0
GlyphClass: 2
Flags: MW
HStem: 981 51<-494 -473 -494 -458> 1110 51<-494 -483 -483 -473>
VStem: -576 53<1061.5 1123.5> -445 51<1061.5 1083.5> -313 67 -202 66<1260 1260>
LayerCount: 2
Fore
SplineSet
-570 1048 m 0
 -574 1061 -576 1076 -576 1096 c 0
 -576 1151 -554 1222 -476 1263 c 1
 -409 1216 l 1
 -388 1231 -363 1248 -342 1262 c 1
 -264 1229 -246 1158 -246 1120 c 0
 -249 1096 -252 1073 -255 1061 c 1
 -205 1078 -192 1214 -202 1260 c 1
 -136 1260 l 1
 -130 1219 -127 1012 -311 985 c 1
 -345 1001 l 1
 -329 1020 -314 1070 -313 1117 c 0
 -314 1163 -325 1188 -343 1205 c 1
 -364 1193 -391 1176 -410 1166 c 1
 -476 1205 l 1
 -483 1199 -496 1173 -494 1161 c 1
 -483 1161 l 2
 -433 1161 -394 1122 -394 1072 c 0
 -394 1023 -433 981 -483 981 c 0
 -525 981 -560 1011 -570 1048 c 0
-483 1110 m 0
 -505 1110 -523 1094 -523 1073 c 0
 -523 1050 -505 1032 -483 1032 c 0
 -463 1032 -445 1050 -445 1073 c 0
 -445 1094 -463 1110 -483 1110 c 0
EndSplineSet
EndChar

StartChar: uni0E4B.high.left
Encoding: 1044043 1044043 220
Width: 0
GlyphClass: 2
Flags: MW
HStem: 1090 64<-438 -346 -438 -346 -252 -160>
VStem: -346 94<1008 1090 1008 1090 1154 1236>
LayerCount: 2
Fore
SplineSet
-252 1008 m 1
 -346 1008 l 1
 -346 1090 l 1
 -438 1090 l 1
 -438 1154 l 1
 -346 1154 l 1
 -346 1236 l 1
 -252 1236 l 1
 -252 1154 l 1
 -160 1154 l 1
 -160 1090 l 1
 -252 1090 l 1
 -252 1008 l 1
EndSplineSet
EndChar

StartChar: uni0E4C.high.left
Encoding: 1044044 1044044 221
Width: 0
GlyphClass: 2
Flags: MW
HStem: 970 40
VStem: -440 40 -330 40 -304 84
LayerCount: 2
Fore
SplineSet
-99 1235 m 1xc0
 -6 1214 l 1
 -24 1112 -110 1086 -206 1066 c 1
 -182 1047 -173 1024 -173 1001 c 0
 -173 952 -211 914 -270 914 c 0
 -330 914 -367 953 -366 1002 c 0
 -366 1070 -312 1099 -251 1111 c 0
 -180 1125 -118 1146 -99 1235 c 1xc0
-269 956 m 0
 -246 955 -226 975 -226 998 c 0
 -226 1022 -245 1041 -269 1041 c 0
 -292 1041 -312 1022 -312 999 c 0
 -312 975 -293 956 -269 956 c 0
EndSplineSet
EndChar

StartChar: uni0E4D.high.left
Encoding: 1044045 1044045 222
Width: 0
GlyphClass: 2
Flags: MW
HStem: 990 55 1165 55
VStem: -435 65 -250 65
LayerCount: 2
Fore
SplineSet
-264 1120 m 0
 -198 1120 -145 1067 -145 1001 c 0
 -145 936 -198 882 -264 882 c 0
 -329 882 -382 936 -382 1001 c 0
 -382 1067 -329 1120 -264 1120 c 0
-264 944 m 0
 -232 944 -206 969 -206 1001 c 0
 -206 1033 -232 1059 -264 1059 c 0
 -295 1059 -321 1033 -321 1001 c 0
 -321 969 -295 944 -264 944 c 0
EndSplineSet
EndChar
